# This file uses centimeters as units for non-parametric coordinates.

mtllib ハッピーボーイ.mtl
g default
v -1.447583 3.379394 -0.601057
v -1.107116 3.378943 -1.110605
v -0.597569 3.378270 -1.451072
v 0.003482 3.377475 -1.570629
v 0.604533 3.376681 -1.451073
v 1.114081 3.376008 -1.110606
v 1.454548 3.375557 -0.601059
v 1.574104 3.375400 -0.000006
v 1.454548 3.375557 0.601046
v 1.114081 3.376008 1.110594
v 0.604534 3.376681 1.451061
v 0.003483 3.377475 1.570618
v -0.597568 3.378270 1.451061
v -1.107115 3.378943 1.110594
v -1.447582 3.379394 0.601046
v -1.567138 3.379551 -0.000006
v -1.235321 0.437555 -0.511383
v -1.337025 0.438270 -0.000070
v -1.235295 0.438195 0.511374
v -0.945626 0.438004 0.944896
v -0.512105 0.437717 1.234565
v -0.000732 0.437379 1.336284
v 0.510641 0.437041 1.234565
v 0.944162 0.436755 0.944896
v 1.233832 0.436564 0.511374
v 1.335562 0.436488 -0.000070
v 1.233859 0.437540 -0.511383
v 0.944220 0.436747 -0.944852
v 0.510641 0.437367 -1.234563
v -0.000732 0.437379 -1.336281
v -0.512105 0.437717 -1.234563
v -0.945684 0.438012 -0.944852
v -1.447583 3.379394 -0.601057
v -1.107117 3.378943 -1.110605
v -1.107115 3.378943 1.110594
v -1.447582 3.379394 0.601046
v -1.107116 3.378943 -1.110605
v -0.597569 3.378270 -1.451072
v 0.003484 3.377475 1.570618
v -0.597567 3.378270 1.451061
v -1.567139 3.379551 -0.000006
v -1.447582 3.379394 -0.601057
v 0.003483 3.377475 -1.570629
v 0.604533 3.376681 -1.451073
v -1.447582 3.379394 0.601046
v -1.567138 3.379551 -0.000006
v -0.597569 3.378270 1.451061
v -1.107115 3.378943 1.110594
v 1.454549 3.375557 -0.601059
v 1.574104 3.375400 -0.000006
v 0.604533 3.376681 -1.451073
v 1.114081 3.376008 -1.110606
v 1.454548 3.375557 0.601046
v 1.114081 3.376008 1.110594
v 0.604534 3.376681 1.451061
v 0.003483 3.377475 1.570618
v -0.597569 3.378270 -1.451072
v 0.003482 3.377475 -1.570629
v 2.196272 0.176378 -0.909798
v 2.133596 0.256659 -0.884856
v 1.681401 0.176378 -1.681516
v 1.633979 0.258067 -1.633432
v 0.909864 0.176378 -2.196823
v 0.882024 0.256659 -2.135656
v -0.000072 0.176378 -2.378618
v -0.001460 0.258067 -2.311270
v -0.910485 0.176378 -2.197975
v -0.886912 0.258067 -2.135046
v -1.682531 0.176378 -1.682503
v -1.634512 0.256659 -1.635032
v -2.198640 0.176378 -0.910721
v -2.136717 0.256659 -0.884044
v -2.379851 0.176378 -0.000045
v -2.312659 0.256659 0.002048
v -2.199049 0.176378 0.910801
v -2.137120 0.255252 0.884096
v -1.682760 0.176378 1.682642
v -1.636414 0.255252 1.633829
v -0.910486 0.176378 2.197886
v -0.886886 0.255252 2.134942
v -0.000073 0.176378 2.378234
v -0.002555 0.255252 2.311088
v 0.909777 0.176378 2.196528
v 0.881943 0.258067 2.135343
v 1.680693 0.176378 1.680722
v 1.631870 0.255252 1.634395
v 2.195615 0.176378 0.909440
v 2.132941 0.256659 0.884542
v 2.376903 0.176378 -0.000044
v 2.309939 0.256659 -0.003439
v 0.000080 0.360415 -0.000035
vt 0.642240 0.330911
vt 0.591549 0.297041
vt 0.557678 0.246349
vt 0.545785 0.186555
vt 0.557679 0.126761
vt 0.591549 0.076070
vt 0.642240 0.042199
vt 0.702035 0.030305
vt 0.761829 0.042199
vt 0.812520 0.076070
vt 0.846391 0.126761
vt 0.858285 0.186555
vt 0.846391 0.246349
vt 0.812520 0.297041
vt 0.761829 0.330911
vt 0.702035 0.342805
vt 0.498698 0.999284
vt 0.249131 0.999202
vt 0.251840 -0.001569
vt 0.501406 -0.001487
vt 0.497129 0.998331
vt 0.247729 0.998249
vt 0.250438 0.000270
vt 0.499838 0.000352
vt 0.496829 1.000554
vt 0.248571 1.000472
vt 0.251280 0.000704
vt 0.499537 0.000786
vt 0.247170 0.999174
vt -0.000517 0.999092
vt 0.002191 0.000224
vt 0.249879 0.000306
vt 0.499475 0.999133
vt 0.249676 0.999051
vt 0.252385 -0.000223
vt 0.502183 -0.000141
vt 0.498812 1.000312
vt 0.249708 1.000230
vt 0.252417 0.000231
vt 0.501521 0.000312
vt 0.496254 0.999881
vt 0.248894 0.999800
vt 0.251603 0.002210
vt 0.498963 0.002291
vt 0.499037 0.998858
vt 0.249291 0.998776
vt 0.251999 0.000995
vt 0.501746 0.001076
vt 0.497619 0.998615
vt 0.249343 0.998533
vt 0.252052 -0.000612
vt 0.500327 -0.000530
vt 0.250133 0.998029
vt -0.001943 0.997947
vt 0.000766 0.000933
vt 0.252842 0.001015
vt 0.248599 0.998104
vt -0.001053 0.998023
vt 0.001656 0.003211
vt 0.251308 0.003293
vt 0.248292 0.998683
vt -0.000267 0.998601
vt 0.002441 0.000350
vt 0.251001 0.000431
vt 0.248460 0.998846
vt 0.000438 0.998765
vt 0.003146 -0.000380
vt 0.251169 -0.000298
vt 0.247601 0.998519
vt -0.000898 0.998438
vt 0.001810 0.001861
vt 0.250310 0.001943
vt 0.245330 0.998356
vt -0.000393 0.998274
vt 0.002315 0.001687
vt 0.248039 0.001769
vt 0.247471 0.999609
vt -0.000014 0.999527
vt 0.002695 0.002288
vt 0.250180 0.002369
vt 0.989448 0.259379
vt 0.960004 0.259686
vt 0.516981 0.261084
vt 0.516982 0.259408
vt 0.546434 0.258971
vt 0.546515 0.258990
vt 0.575959 0.259088
vt 0.576049 0.259138
vt 0.605496 0.258548
vt 0.605583 0.258594
vt 0.635030 0.258242
vt 0.635118 0.258288
vt 0.664565 0.258025
vt 0.664654 0.258067
vt 0.694107 0.257831
vt 0.694190 0.257844
vt 0.723641 0.257751
vt 0.723727 0.257754
vt 0.753182 0.257480
vt 0.753263 0.257462
vt 0.782720 0.257827
vt 0.782799 0.257792
vt 0.812257 0.258294
vt 0.812335 0.258248
vt 0.841793 0.258820
vt 0.841870 0.258770
vt 0.871327 0.258179
vt 0.871405 0.258125
vt 0.900860 0.258577
vt 0.900938 0.258541
vt 0.930391 0.259972
vt 0.930471 0.259959
vt 0.959921 0.259682
vt 0.546456 0.260740
vt 0.546490 0.994786
vt 0.516955 0.994786
vt 0.576025 0.264016
vt 0.576025 0.994786
vt 0.605559 0.262161
vt 0.605559 0.994786
vt 0.635094 0.263172
vt 0.635094 0.994786
vt 0.664598 0.259861
vt 0.664629 0.994786
vt 0.694164 0.261013
vt 0.694164 0.994786
vt 0.723761 0.259079
vt 0.723698 0.994786
vt 0.753233 0.259206
vt 0.753233 0.994786
vt 0.782768 0.259362
vt 0.782768 0.994786
vt 0.812303 0.259693
vt 0.812303 0.994786
vt 0.841837 0.260163
vt 0.841837 0.994786
vt 0.871372 0.259544
vt 0.871372 0.990131
vt 0.900907 0.260074
vt 0.900907 0.990131
vt 0.930441 0.261670
vt 0.930441 0.994786
vt 0.959976 0.266317
vt 0.959976 0.994786
vt 0.989511 0.262541
vt 0.989511 0.994786
vt 0.649461 0.313480
vt 0.604864 0.283726
vt 0.575050 0.239154
vt 0.564609 0.186555
vt 0.575073 0.133966
vt 0.604877 0.089398
vt 0.649461 0.059631
vt 0.702035 0.049199
vt 0.754581 0.059697
vt 0.799136 0.089454
vt 0.828868 0.134019
vt 0.839299 0.186555
vt 0.828830 0.239076
vt 0.799094 0.283615
vt 0.754576 0.313401
vt 0.702035 0.323894
vt 0.702035 0.186555
vn 0.001322 0.999999 0.000000
vn 0.001322 0.999999 0.000000
vn 0.001322 0.999999 0.000000
vn 0.001322 0.999999 0.000000
vn 0.001322 0.999999 0.000000
vn 0.001322 0.999999 0.000000
vn 0.001322 0.999999 0.000000
vn 0.001322 0.999999 0.000000
vn 0.001322 0.999999 0.000000
vn 0.001322 0.999999 0.000000
vn 0.001322 0.999999 0.000000
vn 0.001322 0.999999 0.000000
vn 0.001322 0.999999 0.000000
vn 0.001322 0.999999 0.000000
vn 0.001322 0.999999 0.000000
vn 0.001322 0.999999 0.000000
vn 0.553790 -0.078740 0.828925
vn 0.553790 -0.078740 0.828925
vn 0.553790 -0.078740 0.828925
vn 0.553790 -0.078740 0.828925
vn 0.977689 -0.079359 0.194488
vn 0.977689 -0.079359 0.194488
vn 0.977689 -0.079359 0.194488
vn 0.977689 -0.079359 0.194488
vn 0.828874 -0.079148 -0.553809
vn 0.828874 -0.079148 -0.553809
vn 0.828874 -0.079148 -0.553809
vn 0.828874 -0.079148 -0.553809
vn -0.829020 -0.076714 -0.553933
vn -0.829019 -0.076714 -0.553933
vn -0.829020 -0.076714 -0.553933
vn -0.829020 -0.076714 -0.553933
vn -0.829044 -0.076728 0.553895
vn -0.829044 -0.076728 0.553895
vn -0.829044 -0.076728 0.553895
vn -0.829044 -0.076728 0.553895
vn -0.553971 -0.077132 -0.828955
vn -0.553971 -0.077132 -0.828955
vn -0.553971 -0.077132 -0.828955
vn -0.553971 -0.077132 -0.828955
vn -0.194578 -0.077650 0.977809
vn -0.194578 -0.077650 0.977809
vn -0.194578 -0.077650 0.977809
vn -0.194578 -0.077650 0.977809
vn -0.977923 -0.076496 -0.194460
vn -0.977923 -0.076496 -0.194460
vn -0.977923 -0.076496 -0.194460
vn -0.977923 -0.076496 -0.194460
vn 0.194437 -0.078226 -0.977791
vn 0.194437 -0.078226 -0.977791
vn 0.194437 -0.078226 -0.977791
vn 0.194437 -0.078226 -0.977791
vn -0.977914 -0.076512 0.194501
vn -0.977914 -0.076512 0.194501
vn -0.977914 -0.076512 0.194501
vn -0.977914 -0.076512 0.194501
vn -0.553970 -0.077128 0.828957
vn -0.553970 -0.077128 0.828957
vn -0.553970 -0.077128 0.828957
vn -0.553970 -0.077128 0.828957
vn 0.977676 -0.079364 -0.194553
vn 0.977676 -0.079364 -0.194553
vn 0.977676 -0.079364 -0.194553
vn 0.977676 -0.079364 -0.194553
vn 0.553771 -0.078749 -0.828937
vn 0.553771 -0.078749 -0.828937
vn 0.553771 -0.078749 -0.828937
vn 0.553771 -0.078749 -0.828937
vn 0.828838 -0.079141 0.553863
vn 0.828838 -0.079141 0.553863
vn 0.828838 -0.079141 0.553863
vn 0.828838 -0.079141 0.553863
vn 0.194416 -0.078217 0.977796
vn 0.194416 -0.078217 0.977796
vn 0.194416 -0.078217 0.977796
vn 0.194416 -0.078217 0.977796
vn -0.194577 -0.077655 -0.977808
vn -0.194577 -0.077655 -0.977808
vn -0.194577 -0.077655 -0.977808
vn -0.194577 -0.077655 -0.977808
vn 0.710148 0.639916 -0.293595
vn 0.709476 0.639909 -0.295230
vn 0.766357 0.642409 -0.002629
vn 0.766290 0.642485 0.003646
vn 0.542807 0.640269 -0.543522
vn 0.543435 0.640265 -0.542898
vn 0.296458 0.639619 -0.709225
vn 0.292546 0.639584 -0.710879
vn 0.001023 0.637282 -0.770630
vn -0.001544 0.637262 -0.770646
vn -0.292340 0.636995 -0.713285
vn -0.296187 0.637021 -0.711673
vn -0.542776 0.640961 -0.542736
vn -0.542228 0.640945 -0.543303
vn -0.706688 0.643629 -0.293826
vn -0.707356 0.643624 -0.292227
vn -0.765356 0.643602 -0.002668
vn -0.765347 0.643617 0.001133
vn -0.704556 0.646559 0.292512
vn -0.705288 0.646528 0.290809
vn -0.536833 0.648714 0.539426
vn -0.539094 0.648720 0.537159
vn -0.289129 0.648327 0.704327
vn -0.293005 0.648330 0.702721
vn 0.003497 0.644871 0.764283
vn -0.000954 0.644971 0.764207
vn 0.295600 0.642147 0.707296
vn 0.291729 0.642139 0.708909
vn 0.541769 0.644371 0.539697
vn 0.539472 0.644324 0.542048
vn 0.706273 0.645381 0.290965
vn 0.705590 0.645395 0.292588
vn 0.168072 0.983357 -0.069004
vn 0.128141 0.983430 -0.128238
vn 0.128116 0.983430 -0.128263
vn 0.168080 0.983357 -0.068983
vn 0.069656 0.983370 -0.167724
vn 0.069723 0.983370 -0.167696
vn 0.000597 0.983441 -0.181230
vn 0.000623 0.983440 -0.181231
vn -0.069780 0.983412 -0.167429
vn -0.069711 0.983412 -0.167457
vn -0.129376 0.983236 -0.128491
vn -0.129405 0.983236 -0.128462
vn -0.168801 0.983162 -0.069984
vn -0.168789 0.983162 -0.070012
vn -0.183003 0.983112 0.000394
vn -0.183002 0.983113 0.000295
vn -0.169726 0.982932 0.070984
vn -0.169715 0.982931 0.071011
vn -0.130113 0.982910 0.130227
vn -0.130074 0.982910 0.130265
vn -0.070267 0.982947 0.169933
vn -0.070201 0.982947 0.169960
vn -0.000975 0.983084 0.183155
vn -0.000892 0.983084 0.183154
vn 0.069643 0.983354 0.167821
vn 0.069714 0.983354 0.167792
vn 0.129508 0.983205 0.128590
vn 0.129544 0.983205 0.128554
vn 0.167973 0.983298 0.070080
vn 0.167984 0.983298 0.070052
vn 0.181888 0.983319 0.000247
vn 0.181887 0.983319 0.000392
vn -0.077199 -0.997016 -0.000024
vn -0.000002 -1.000000 -0.000000
vn -0.071325 -0.997017 0.029508
vn -0.071333 -0.997015 -0.029548
vn 0.071218 -0.997024 -0.029503
vn 0.077099 -0.997023 0.000015
vn -0.054575 -0.997018 0.054553
vn 0.054494 -0.997023 -0.054547
vn -0.029550 -0.997018 0.071288
vn 0.029473 -0.997021 -0.071273
vn -0.000041 -0.997020 0.077142
vn -0.000048 -0.997019 -0.077152
vn 0.029491 -0.997021 0.071265
vn -0.029574 -0.997017 -0.071286
vn 0.054512 -0.997022 0.054543
vn -0.054610 -0.997016 -0.054565
vn 0.071227 -0.997023 0.029518
s off
g polySurface66
usemtl initialShadingGroup
f 11/1/1 10/2/2 9/3/3 8/4/4 7/5/5 6/6/6 5/7/7 4/8/8 3/9/9 2/10/10 1/11/11 16/12/12 15/13/13 14/14/14 13/15/15 12/16/16
f 10/17/17 11/18/18 23/19/19 24/20/20
f 8/21/21 9/22/22 25/23/23 26/24/24
f 6/25/25 7/26/26 27/27/27 28/28/28
f 33/29/29 34/30/30 32/31/31 17/32/32
f 35/33/33 36/34/34 19/35/35 20/36/36
f 37/37/37 38/38/38 31/39/39 32/40/40
f 39/41/41 40/42/42 21/43/43 22/44/44
f 41/45/45 42/46/46 17/47/47 18/48/48
f 43/49/49 44/50/50 29/51/51 30/52/52
f 45/53/53 46/54/54 18/55/55 19/56/56
f 47/57/57 48/58/58 20/59/59 21/60/60
f 49/61/61 50/62/62 26/63/63 27/64/64
f 51/65/65 52/66/66 28/67/67 29/68/68
f 53/69/69 54/70/70 24/71/71 25/72/72
f 55/73/73 56/74/74 22/75/75 23/76/76
f 57/77/77 58/78/78 30/79/79 31/80/80
s 1
f 59/81/81 60/145/82 90/143/83 89/82/84
f 60/83/82 59/84/81 61/85/85 62/114/86
f 62/114/86 61/86/85 63/87/87 64/117/88
f 64/117/88 63/88/87 65/89/89 66/119/90
f 66/119/90 65/90/89 67/91/91 68/121/92
f 68/121/92 67/92/91 69/93/93 70/123/94
f 70/123/94 69/94/93 71/95/95 72/125/96
f 72/125/96 71/96/95 73/97/97 74/127/98
f 74/127/98 73/98/97 75/99/99 76/129/100
f 76/129/100 75/100/99 77/101/101 78/131/102
f 78/131/102 77/102/101 79/103/103 80/133/104
f 80/133/104 79/104/103 81/105/105 82/135/106
f 82/135/106 81/106/105 83/107/107 84/137/108
f 84/137/108 83/108/107 85/109/109 86/139/110
f 86/139/110 85/110/109 87/111/111 88/141/112
f 88/141/112 87/112/111 89/113/84 90/143/83
s 2
f 60/83/113 62/114/114 28/115/115 27/116/116
f 62/114/114 64/117/117 29/118/118 28/115/115
f 64/117/117 66/119/119 30/120/120 29/118/118
f 66/119/119 68/121/121 31/122/122 30/120/120
f 68/121/121 70/123/123 32/124/124 31/122/122
f 70/123/123 72/125/125 17/126/126 32/124/124
f 72/125/125 74/127/127 18/128/128 17/126/126
f 74/127/127 76/129/129 19/130/130 18/128/128
f 76/129/129 78/131/131 20/132/132 19/130/130
f 78/131/131 80/133/133 21/134/134 20/132/132
f 80/133/133 82/135/135 22/136/136 21/134/134
f 82/135/135 84/137/137 23/138/138 22/136/136
f 84/137/137 86/139/139 24/140/140 23/138/138
f 86/139/139 88/141/141 25/142/142 24/140/140
f 88/141/141 90/143/143 26/144/144 25/142/142
f 90/143/143 60/145/113 27/146/116 26/144/144
s 3
f 89/158/145 91/163/146 59/157/147
f 87/159/148 91/163/146 89/158/145
f 91/163/146 75/149/149 73/150/150
f 59/157/147 91/163/146 61/156/151
f 91/163/146 77/148/152 75/149/149
f 61/156/151 91/163/146 63/155/153
f 79/147/154 77/148/152 91/163/146
f 63/155/153 91/163/146 65/154/155
f 79/147/154 91/163/146 81/162/156
f 65/154/155 91/163/146 67/153/157
f 81/162/156 91/163/146 83/161/158
f 67/153/157 91/163/146 69/152/159
f 83/161/158 91/163/146 85/160/160
f 69/152/159 91/163/146 71/151/161
f 85/160/160 91/163/146 87/159/148
f 71/151/161 91/163/146 73/150/150
