# This file uses centimeters as units for non-parametric coordinates.

mtllib ƒnƒbƒg–X.mtl
g default
v 1.100312 1.194112 -1.100307
v 0.595486 1.194112 -1.437622
v 0.000003 1.194112 -1.556071
v -0.595480 1.194112 -1.437622
v -1.100441 1.194135 -1.100212
v -1.437681 1.192219 -0.595508
v -1.556096 1.194135 -0.000164
v -1.437621 1.194112 0.595483
v -1.100307 1.194112 1.100310
v -0.595481 1.194112 1.437624
v 0.000002 1.194112 1.556073
v 0.595485 1.194112 1.437624
v 1.100312 1.194112 1.100310
v 1.437626 1.194112 0.595484
v 0.996964 3.351654 -0.996960
v 0.635775 3.299877 -1.302592
v 0.000003 3.175868 -1.409916
v -0.539548 3.295983 -1.302593
v -0.996972 3.351654 -0.996975
v -1.302653 3.351654 -0.539578
v -1.409932 3.351654 -0.000001
v -1.302590 3.351654 0.539551
v -0.996959 3.351654 0.996960
v -0.539549 3.295983 1.302592
v 0.000002 3.175868 1.409916
v 0.635774 3.299877 1.302592
v 0.996963 3.351654 0.996961
v 1.302595 3.351654 0.539551
v 1.302595 3.351654 -0.539551
v 1.437626 1.194112 -0.595481
v 1.409918 3.351654 -0.000000
v 1.556075 1.194112 0.000001
v 1.302595 3.351654 0.539551
v 1.437626 1.194112 0.595484
v 1.556075 1.194112 0.000001
v 1.409918 3.351654 -0.000000
v 1.437626 1.194112 -0.595481
v 1.556075 1.194112 0.000001
v 1.302595 3.351655 -0.539551
v 1.409918 3.351655 -0.000000
v 2.837817 0.688948 -1.175473
v 2.748729 0.810028 -1.138560
v 2.171966 0.688948 -2.171989
v 2.103786 0.810028 -2.103787
v 1.175449 0.688948 -2.837838
v 1.138560 0.810028 -2.748729
v -0.000022 0.688948 -3.071652
v -0.000000 0.810028 -2.975204
v -1.175493 0.688948 -2.837841
v -1.138599 0.810028 -2.748727
v -2.171347 0.688948 -2.171329
v -2.101342 0.809953 -2.105776
v -2.837341 0.688948 -1.175260
v -2.748219 0.810031 -1.138351
v -3.070739 0.688948 -0.000004
v -2.974881 0.809953 0.003133
v -2.837861 0.688948 1.175467
v -2.748755 0.810028 1.138528
v -2.172009 0.688948 2.171982
v -2.103789 0.810028 2.103786
v -1.175494 0.688948 2.837833
v -1.138564 0.810028 2.748728
v -0.000024 0.688948 3.071651
v -0.000003 0.810028 2.975202
v 1.175448 0.688948 2.837836
v 1.138559 0.810028 2.748728
v 2.171966 0.688948 2.171987
v 2.103784 0.810028 2.103786
v 2.837817 0.688948 1.175469
v 2.748727 0.810028 1.138560
v 3.071633 0.688948 -0.000003
v 2.975201 0.810028 -0.000001
v -0.000005 0.782446 -0.000003
vt 0.018528 0.792652
vt 0.016047 0.000782
vt 0.032360 0.000782
vt 0.031001 0.792654
vt 0.034841 0.792652
vt 0.048674 0.000782
vt 0.047314 0.792652
vt 0.063627 0.792652
vt 0.051154 0.792652
vt 0.064987 0.000782
vt 0.081300 0.000783
vt 0.079940 0.792652
vt 0.083781 0.792652
vt 0.097613 0.001523
vt 0.096253 0.792652
vt 0.100100 0.792652
vt 0.113925 -0.002835
vt 0.112568 0.792652
vt 0.115284 0.792652
vt 0.130231 0.000833
vt 0.127751 0.792652
vt 0.132720 0.792652
vt 0.130239 -0.000490
vt 0.146552 0.000782
vt 0.145192 0.792652
vt 0.149033 0.792652
vt 0.162865 0.000782
vt 0.161505 0.792652
vt 0.165346 0.792652
vt 0.179178 0.000782
vt 0.177818 0.792652
vt 0.194131 0.792654
vt 0.181659 0.792652
vt 0.195491 0.000782
vt 0.211804 0.000782
vt 0.210445 0.792652
vt 0.214285 0.792652
vt 0.228117 0.000782
vt 0.226758 0.792652
vt 0.230598 0.792652
vt 0.244430 0.000782
vt 0.243071 0.792654
vt 0.655527 0.072974
vt 0.655527 0.307286
vt 0.614387 0.279799
vt 0.586893 0.238660
vt 0.577245 0.190130
vt 0.586899 0.141603
vt 0.614388 0.100463
vt 0.821211 0.238658
vt 0.793723 0.279798
vt 0.752583 0.307286
vt 0.752583 0.072974
vt 0.793722 0.100462
vt 0.821211 0.141602
vt 0.830864 0.190130
vt 0.704055 0.316939
vt 0.704055 0.063321
vt 0.305055 0.792652
vt 0.302574 0.000782
vt 0.393346 0.000782
vt 0.391986 0.792652
vt 0.497517 0.000783
vt 0.494972 0.792652
vt 0.395958 0.792652
vt 0.391314 0.000782
vt 0.989215 0.253188
vt 0.960110 0.253187
vt 0.516955 0.261114
vt 0.517089 0.253187
vt 0.546194 0.253188
vt 0.546624 0.253187
vt 0.575729 0.253188
vt 0.576158 0.253187
vt 0.605264 0.253188
vt 0.605693 0.253187
vt 0.634798 0.253186
vt 0.635228 0.253185
vt 0.664331 0.253620
vt 0.664762 0.253627
vt 0.693888 0.253606
vt 0.694296 0.253572
vt 0.723385 0.253593
vt 0.723833 0.253620
vt 0.752937 0.253186
vt 0.753367 0.253186
vt 0.782472 0.253187
vt 0.782901 0.253188
vt 0.812006 0.253187
vt 0.812436 0.253188
vt 0.841541 0.253187
vt 0.841971 0.253188
vt 0.871076 0.253187
vt 0.871505 0.253188
vt 0.900611 0.253187
vt 0.901040 0.253188
vt 0.930145 0.253187
vt 0.930575 0.253187
vt 0.959680 0.253188
vt 0.546490 0.261114
vt 0.516955 0.994786
vt 0.576025 0.261114
vt 0.546490 0.994786
vt 0.605559 0.261114
vt 0.576025 0.994786
vt 0.635095 0.261105
vt 0.605559 0.994786
vt 0.664472 0.260958
vt 0.635094 0.994786
vt 0.694164 0.261469
vt 0.664629 0.994786
vt 0.723769 0.260958
vt 0.694164 0.994786
vt 0.753231 0.261105
vt 0.723698 0.994786
vt 0.782768 0.261114
vt 0.753233 0.994786
vt 0.812303 0.261114
vt 0.782768 0.994786
vt 0.841837 0.261114
vt 0.812303 0.994786
vt 0.871372 0.261114
vt 0.841837 0.994786
vt 0.900907 0.261114
vt 0.871372 0.994786
vt 0.930441 0.261114
vt 0.930441 0.994786
vt 0.900907 0.994786
vt 0.959976 0.261114
vt 0.959976 0.994786
vt 0.989511 0.261114
vt 0.989511 0.994786
vt 0.650717 0.310447
vt 0.607212 0.281378
vt 0.578143 0.237873
vt 0.567976 0.186555
vt 0.578165 0.135247
vt 0.607241 0.091762
vt 0.650717 0.062664
vt 0.702035 0.052456
vt 0.753352 0.062664
vt 0.796858 0.091732
vt 0.825926 0.135238
vt 0.836135 0.186555
vt 0.825927 0.237873
vt 0.796857 0.281378
vt 0.753352 0.310447
vt 0.702035 0.320655
vt 0.702035 0.186556
vn 0.829641 0.066294 -0.554348
vn 0.829641 0.066294 -0.554348
vn 0.727174 0.061164 -0.683723
vn 0.731681 0.061403 -0.678876
vn 0.192306 0.067116 -0.979037
vn 0.235669 0.066323 -0.969568
vn -0.000022 0.069010 -0.997616
vn -0.000022 0.069010 -0.997616
vn -0.193590 0.071071 -0.978505
vn -0.221483 0.071147 -0.972565
vn -0.705424 0.068032 -0.705513
vn -0.709898 0.068016 -0.701013
vn -0.921768 0.067566 -0.381809
vn -0.921768 0.067566 -0.381809
vn -0.997714 0.067575 -0.000251
vn -0.997714 0.067575 -0.000034
vn -0.921769 0.067585 0.381803
vn -0.921770 0.067585 0.381801
vn -0.705244 0.068046 0.705691
vn -0.709873 0.068030 0.701037
vn -0.193579 0.071074 0.978507
vn -0.221469 0.071151 0.972568
vn -0.000023 0.069012 0.997616
vn -0.000023 0.069012 0.997616
vn 0.192306 0.067117 0.979037
vn 0.235668 0.066325 0.969568
vn 0.727173 0.061165 0.683724
vn 0.731681 0.061404 0.678876
vn 0.829641 0.066295 0.554348
vn 0.829641 0.066295 0.554348
vn 0.014981 0.999888 -0.000000
vn 0.014981 0.999888 -0.000000
vn 0.080791 0.996731 -0.000000
vn 0.080791 0.996731 -0.000000
vn 0.080791 0.996731 -0.000000
vn 0.080791 0.996731 -0.000000
vn 0.080791 0.996731 -0.000000
vn -0.087336 0.996179 -0.000000
vn -0.087336 0.996179 -0.000000
vn -0.018208 0.999834 0.000000
vn -0.018208 0.999834 0.000000
vn -0.087336 0.996179 -0.000000
vn -0.087336 0.996179 -0.000000
vn -0.087336 0.996179 -0.000000
vn -0.003313 0.999995 0.000000
vn -0.003313 0.999995 0.000000
vn 0.978628 0.066294 0.194661
vn 0.978628 0.066294 0.194661
vn 0.978628 0.066294 0.194661
vn 0.978628 0.066294 0.194661
vn 0.978628 0.066294 -0.194661
vn 0.978628 0.066294 -0.194661
vn 0.978628 0.066294 -0.194661
vn 0.978628 0.066294 -0.194661
vn 0.722680 0.622995 -0.299351
vn 0.722685 0.622995 -0.299339
vn 0.782230 0.622990 0.000001
vn 0.782230 0.622990 -0.000001
vn 0.553101 0.623010 -0.553117
vn 0.553115 0.623010 -0.553102
vn 0.299321 0.623030 -0.722662
vn 0.299344 0.623030 -0.722652
vn -0.000015 0.623058 -0.782175
vn 0.000013 0.623058 -0.782175
vn -0.299615 0.621928 -0.723489
vn -0.299651 0.621927 -0.723475
vn -0.555320 0.621997 -0.552032
vn -0.552500 0.621966 -0.554889
vn -0.722470 0.623286 -0.299252
vn -0.722467 0.623286 -0.299259
vn -0.783000 0.622018 -0.002317
vn -0.783026 0.621987 0.001681
vn -0.723415 0.621964 0.299718
vn -0.723435 0.621964 0.299671
vn -0.553063 0.623106 0.553046
vn -0.553048 0.623106 0.553061
vn -0.299332 0.623082 0.722613
vn -0.299308 0.623082 0.722623
vn -0.000015 0.623056 0.782177
vn 0.000012 0.623056 0.782177
vn 0.299322 0.623030 0.722661
vn 0.299344 0.623030 0.722652
vn 0.553102 0.623010 0.553116
vn 0.553115 0.623010 0.553103
vn 0.722680 0.622997 0.299348
vn 0.722683 0.622996 0.299341
vn 0.241362 0.965272 -0.099976
vn 0.184730 0.965272 -0.184730
vn 0.184730 0.965272 -0.184730
vn 0.241362 0.965272 -0.099975
vn 0.099975 0.965272 -0.241362
vn 0.099975 0.965272 -0.241362
vn -0.000001 0.965272 -0.261248
vn -0.000000 0.965272 -0.261248
vn -0.099937 0.965271 -0.241380
vn -0.099931 0.965271 -0.241382
vn -0.184803 0.965353 -0.184233
vn -0.184893 0.965353 -0.184141
vn -0.241123 0.965342 -0.099876
vn -0.241123 0.965342 -0.099876
vn -0.260948 0.965353 -0.000403
vn -0.260947 0.965353 -0.000532
vn -0.241348 0.965271 0.100015
vn -0.241345 0.965271 0.100021
vn -0.184731 0.965272 0.184729
vn -0.184730 0.965272 0.184730
vn -0.099975 0.965272 0.241362
vn -0.099975 0.965272 0.241362
vn -0.000000 0.965272 0.261248
vn -0.000000 0.965272 0.261248
vn 0.099975 0.965272 0.241362
vn 0.099975 0.965272 0.241362
vn 0.184731 0.965272 0.184731
vn 0.184731 0.965272 0.184731
vn 0.241363 0.965271 0.099976
vn 0.241363 0.965272 0.099976
vn 0.261249 0.965271 0.000000
vn 0.261249 0.965271 0.000000
vn -0.028109 -0.999537 -0.011643
vn -0.000000 -1.000000 -0.000000
vn -0.030425 -0.999537 0.000000
vn -0.028109 -0.999537 0.011643
vn -0.021514 -0.999537 0.021514
vn 0.011643 -0.999537 -0.028109
vn 0.000000 -0.999537 -0.030425
vn 0.030434 -0.999537 0.000006
vn 0.028112 -0.999537 -0.011634
vn 0.021514 -0.999537 -0.021514
vn -0.011643 -0.999537 0.028109
vn -0.000000 -0.999537 0.030425
vn 0.011652 -0.999537 0.028105
vn -0.021514 -0.999537 -0.021514
vn 0.028114 -0.999537 0.011645
vn -0.011643 -0.999537 -0.028109
vn 0.021524 -0.999537 0.021516
s 1
g polySurface3
usemtl initialShadingGroup
f 29/1/1 30/2/2 1/3/3 15/4/4
f 15/5/4 1/3/3 2/6/5 16/7/6
f 17/8/7 16/9/6 2/6/5 3/10/8 4/11/9 18/12/10
f 18/13/10 4/11/9 5/14/11 19/15/12
f 19/16/12 5/14/11 6/17/13 20/18/14
f 20/19/14 6/17/13 7/20/15 21/21/16
f 21/22/16 7/23/15 8/24/17 22/25/18
f 22/26/18 8/24/17 9/27/19 23/28/20
f 23/29/20 9/27/19 10/30/21 24/31/22
f 25/32/23 24/33/22 10/30/21 11/34/24 12/35/25 26/36/26
f 26/37/26 12/35/25 13/38/27 27/39/28
f 27/40/28 13/38/27 14/41/29 28/42/30
s 2
f 24/43/31 18/44/32 19/45/33 20/46/34 21/47/35 22/48/36 23/49/37
f 29/50/38 15/51/39 16/52/40 26/53/41 27/54/42 28/55/43 31/56/44
f 17/57/45 18/44/32 24/43/31 25/58/46 26/53/41 16/52/40
s off
f 33/59/47 34/60/48 35/61/49 36/62/50
f 37/63/51 39/64/52 40/65/53 38/66/54
s 3
f 41/67/55 42/131/56 72/129/57 71/68/58
f 42/69/56 41/70/55 43/71/59 44/100/60
f 44/100/60 43/72/59 45/73/61 46/102/62
f 46/102/62 45/74/61 47/75/63 48/104/64
f 48/104/64 47/76/63 49/77/65 50/106/66
f 50/106/66 49/78/65 51/79/67 52/108/68
f 52/108/68 51/80/67 53/81/69 54/110/70
f 54/110/70 53/82/69 55/83/71 56/112/72
f 56/112/72 55/84/71 57/85/73 58/114/74
f 58/114/74 57/86/73 59/87/75 60/116/76
f 60/116/76 59/88/75 61/89/77 62/118/78
f 62/118/78 61/90/77 63/91/79 64/120/80
f 64/120/80 63/92/79 65/93/81 66/122/82
f 66/122/82 65/94/81 67/95/83 68/124/84
f 68/124/84 67/96/83 69/97/85 70/126/86
f 70/126/86 69/98/85 71/99/58 72/129/57
s 4
f 42/69/87 44/100/88 1/103/89 30/101/90
f 44/100/88 46/102/91 2/105/92 1/103/89
f 46/102/91 48/104/93 3/107/94 2/105/92
f 48/104/93 50/106/95 4/109/96 3/107/94
f 50/106/95 52/108/97 5/111/98 4/109/96
f 52/108/97 54/110/99 6/113/100 5/111/98
f 54/110/99 56/112/101 7/115/102 6/113/100
f 56/112/101 58/114/103 8/117/104 7/115/102
f 58/114/103 60/116/105 9/119/106 8/117/104
f 60/116/105 62/118/107 10/121/108 9/119/106
f 62/118/107 64/120/109 11/123/110 10/121/108
f 64/120/109 66/122/111 12/125/112 11/123/110
f 66/122/111 68/124/113 13/128/114 12/125/112
f 68/124/113 70/126/115 14/127/116 13/128/114
f 70/126/115 72/129/117 32/130/118 14/127/116
f 72/129/117 42/131/87 30/132/90 32/130/118
s 5
f 69/145/119 73/149/120 71/144/121
f 41/143/122 73/149/120 43/142/123
f 61/133/124 73/149/120 63/148/125
f 55/136/126 73/149/120 57/135/127
f 73/149/120 59/134/128 57/135/127
f 43/142/123 73/149/120 45/141/129
f 61/133/124 59/134/128 73/149/120
f 45/141/129 73/149/120 47/140/130
f 47/140/130 73/149/120 49/139/131
f 71/144/121 73/149/120 41/143/122
f 67/146/132 73/149/120 69/145/119
f 53/137/133 73/149/120 55/136/126
f 65/147/134 73/149/120 67/146/132
f 51/138/135 73/149/120 53/137/133
f 63/148/125 73/149/120 65/147/134
f 49/139/131 73/149/120 51/138/135
