# This file uses centimeters as units for non-parametric coordinates.

mtllib ƒnƒbƒg–X.mtl
g default
v 3.185694 0.709742 -1.319567
v 2.438222 0.709742 -2.438239
v 1.319551 0.709742 -3.185711
v -0.000012 0.709742 -3.448189
v -1.319575 0.709742 -3.185713
v -2.438248 0.709742 -2.438242
v -3.185719 0.709742 -1.319570
v -3.448197 0.709742 -0.000007
v -3.185721 0.709742 1.319555
v -2.438249 0.709742 2.438228
v -1.319577 0.709742 3.185699
v -0.000014 0.709742 3.448178
v 1.319548 0.709742 3.185700
v 2.438220 0.709742 2.438229
v 3.185692 0.709742 1.319557
v 3.448170 0.709742 -0.000006
v 1.100312 1.194112 -1.100307
v 0.595486 1.194112 -1.437622
v 0.000003 1.194112 -1.556071
v -0.595480 1.194112 -1.437622
v -1.100441 1.194135 -1.100212
v -1.437681 1.192219 -0.595508
v -1.556096 1.194135 -0.000164
v -1.437621 1.194112 0.595483
v -1.100307 1.194112 1.100310
v -0.595481 1.194112 1.437624
v 0.000002 1.194112 1.556073
v 0.595485 1.194112 1.437624
v 1.100312 1.194112 1.100310
v 1.437626 1.194112 0.595484
v 0.996964 3.351654 -0.996960
v 0.635775 3.299877 -1.302592
v 0.000003 3.175868 -1.409916
v -0.539548 3.295983 -1.302593
v -0.996972 3.351654 -0.996975
v -1.302653 3.351654 -0.539578
v -1.409932 3.351654 -0.000001
v -1.302590 3.351654 0.539551
v -0.996959 3.351654 0.996960
v -0.539549 3.295983 1.302592
v 0.000002 3.175868 1.409916
v 0.635774 3.299877 1.302592
v 0.996963 3.351654 0.996961
v 1.302595 3.351654 0.539551
v 1.302595 3.351654 -0.539551
v 1.437626 1.194112 -0.595481
v 1.409918 3.351654 -0.000000
v 1.556075 1.194112 0.000001
v 1.302595 3.351654 0.539551
v 1.437626 1.194112 0.595484
v 1.556075 1.194112 0.000001
v 1.409918 3.351654 -0.000000
v 1.437626 1.194112 -0.595481
v 1.556075 1.194112 0.000001
v 1.302595 3.351655 -0.539551
v 1.409918 3.351655 -0.000000
vt 0.516955 0.016589
vt 0.546490 0.016589
vt 0.546490 0.994786
vt 0.516955 0.994786
vt 0.576025 0.016589
vt 0.576025 0.994786
vt 0.605559 0.016589
vt 0.605559 0.994786
vt 0.635094 0.016589
vt 0.635094 0.994786
vt 0.664629 0.016589
vt 0.664629 0.994786
vt 0.694164 0.016589
vt 0.694164 0.994786
vt 0.723698 0.016589
vt 0.723698 0.994786
vt 0.753233 0.016589
vt 0.753233 0.994786
vt 0.782768 0.016589
vt 0.782768 0.994786
vt 0.812303 0.016589
vt 0.812303 0.994786
vt 0.841837 0.016589
vt 0.841837 0.994786
vt 0.871372 0.016589
vt 0.871372 0.994786
vt 0.900907 0.016589
vt 0.900907 0.994786
vt 0.930441 0.016589
vt 0.930441 0.994786
vt 0.959976 0.016589
vt 0.959976 0.994786
vt 0.989511 0.016589
vt 0.989511 0.994786
vt 0.642240 0.330911
vt 0.591549 0.297041
vt 0.557678 0.246349
vt 0.545785 0.186555
vt 0.557679 0.126761
vt 0.591549 0.076070
vt 0.642240 0.042199
vt 0.702035 0.030305
vt 0.761829 0.042199
vt 0.812520 0.076070
vt 0.846391 0.126761
vt 0.858285 0.186555
vt 0.846391 0.246349
vt 0.812520 0.297041
vt 0.761829 0.330911
vt 0.702035 0.342805
vt 0.018528 0.792652
vt 0.016047 0.000782
vt 0.032360 0.000782
vt 0.031001 0.792654
vt 0.034841 0.792652
vt 0.048674 0.000782
vt 0.047314 0.792652
vt 0.063627 0.792652
vt 0.051154 0.792652
vt 0.064987 0.000782
vt 0.081300 0.000783
vt 0.079940 0.792652
vt 0.083781 0.792652
vt 0.097613 0.001523
vt 0.096253 0.792652
vt 0.100100 0.792652
vt 0.113925 -0.002835
vt 0.112568 0.792652
vt 0.115284 0.792652
vt 0.130231 0.000833
vt 0.127751 0.792652
vt 0.132720 0.792652
vt 0.130239 -0.000490
vt 0.146552 0.000782
vt 0.145192 0.792652
vt 0.149033 0.792652
vt 0.162865 0.000782
vt 0.161505 0.792652
vt 0.165346 0.792652
vt 0.179178 0.000782
vt 0.177818 0.792652
vt 0.194131 0.792654
vt 0.181659 0.792652
vt 0.195491 0.000782
vt 0.211804 0.000782
vt 0.210445 0.792652
vt 0.214285 0.792652
vt 0.228117 0.000782
vt 0.226758 0.792652
vt 0.230598 0.792652
vt 0.244430 0.000782
vt 0.243071 0.792654
vt 0.655527 0.072974
vt 0.655527 0.307286
vt 0.614387 0.279799
vt 0.586893 0.238660
vt 0.577245 0.190130
vt 0.586899 0.141603
vt 0.614388 0.100463
vt 0.821211 0.238658
vt 0.793723 0.279798
vt 0.752583 0.307286
vt 0.752583 0.072974
vt 0.793722 0.100462
vt 0.821211 0.141602
vt 0.830864 0.190130
vt 0.704055 0.316939
vt 0.704055 0.063321
vt 0.305055 0.792652
vt 0.302574 0.000782
vt 0.393346 0.000782
vt 0.391986 0.792652
vt 0.497517 0.000783
vt 0.494972 0.792652
vt 0.395958 0.792652
vt 0.391314 0.000782
vn 0.229121 0.968760 -0.094905
vn 0.175361 0.968760 -0.175361
vn 0.175361 0.968761 -0.175361
vn 0.229121 0.968760 -0.094905
vn 0.094904 0.968761 -0.229120
vn 0.094905 0.968761 -0.229120
vn -0.000000 0.968761 -0.247997
vn 0.000000 0.968761 -0.247997
vn -0.094903 0.968760 -0.229123
vn -0.094903 0.968760 -0.229123
vn -0.175429 0.968840 -0.174856
vn -0.175425 0.968839 -0.174860
vn -0.228871 0.968830 -0.094801
vn -0.228871 0.968830 -0.094801
vn -0.247689 0.968839 -0.000406
vn -0.247690 0.968839 -0.000400
vn -0.229121 0.968760 0.094907
vn -0.229121 0.968760 0.094908
vn -0.175360 0.968761 0.175360
vn -0.175360 0.968761 0.175360
vn -0.094905 0.968761 0.229120
vn -0.094904 0.968761 0.229120
vn -0.000000 0.968761 0.247998
vn 0.000000 0.968761 0.247998
vn 0.094905 0.968760 0.229121
vn 0.094905 0.968760 0.229121
vn 0.175362 0.968760 0.175362
vn 0.175362 0.968760 0.175362
vn 0.229122 0.968760 0.094905
vn 0.229122 0.968760 0.094905
vn 0.248000 0.968760 0.000000
vn 0.248000 0.968760 0.000000
vn 0.000000 -1.000000 0.000000
vn 0.000000 -1.000000 0.000000
vn 0.000000 -1.000000 0.000000
vn 0.000000 -1.000000 0.000000
vn 0.000000 -1.000000 0.000000
vn 0.000000 -1.000000 0.000000
vn 0.000000 -1.000000 0.000000
vn 0.000000 -1.000000 0.000000
vn 0.000000 -1.000000 0.000000
vn 0.000000 -1.000000 0.000000
vn 0.000000 -1.000000 0.000000
vn 0.000000 -1.000000 0.000000
vn 0.000000 -1.000000 0.000000
vn 0.000000 -1.000000 0.000000
vn 0.000000 -1.000000 0.000000
vn 0.000000 -1.000000 0.000000
vn 0.829641 0.066294 -0.554348
vn 0.829641 0.066294 -0.554348
vn 0.727174 0.061164 -0.683723
vn 0.731681 0.061403 -0.678876
vn 0.192306 0.067116 -0.979037
vn 0.235669 0.066323 -0.969568
vn -0.000022 0.069010 -0.997616
vn -0.000022 0.069010 -0.997616
vn -0.193590 0.071071 -0.978505
vn -0.221483 0.071147 -0.972565
vn -0.705424 0.068032 -0.705513
vn -0.709898 0.068016 -0.701013
vn -0.921768 0.067566 -0.381809
vn -0.921768 0.067566 -0.381809
vn -0.997714 0.067575 -0.000251
vn -0.997714 0.067575 -0.000034
vn -0.921769 0.067585 0.381803
vn -0.921770 0.067585 0.381801
vn -0.705244 0.068046 0.705691
vn -0.709873 0.068030 0.701037
vn -0.193579 0.071074 0.978507
vn -0.221469 0.071151 0.972568
vn -0.000023 0.069012 0.997616
vn -0.000023 0.069012 0.997616
vn 0.192306 0.067117 0.979037
vn 0.235668 0.066325 0.969568
vn 0.727173 0.061165 0.683724
vn 0.731681 0.061404 0.678876
vn 0.829641 0.066295 0.554348
vn 0.829641 0.066295 0.554348
vn 0.014981 0.999888 -0.000000
vn 0.014981 0.999888 -0.000000
vn 0.080791 0.996731 -0.000000
vn 0.080791 0.996731 -0.000000
vn 0.080791 0.996731 -0.000000
vn 0.080791 0.996731 -0.000000
vn 0.080791 0.996731 -0.000000
vn -0.087336 0.996179 -0.000000
vn -0.087336 0.996179 -0.000000
vn -0.018208 0.999834 0.000000
vn -0.018208 0.999834 0.000000
vn -0.087336 0.996179 -0.000000
vn -0.087336 0.996179 -0.000000
vn -0.087336 0.996179 -0.000000
vn -0.003313 0.999995 0.000000
vn -0.003313 0.999995 0.000000
vn 0.978628 0.066294 0.194661
vn 0.978628 0.066294 0.194661
vn 0.978628 0.066294 0.194661
vn 0.978628 0.066294 0.194661
vn 0.978628 0.066294 -0.194661
vn 0.978628 0.066294 -0.194661
vn 0.978628 0.066294 -0.194661
vn 0.978628 0.066294 -0.194661
s 1
g polySurface3
usemtl initialShadingGroup
f 1/1/1 2/2/2 17/3/3 46/4/4
f 2/2/2 3/5/5 18/6/6 17/3/3
f 3/5/5 4/7/7 19/8/8 18/6/6
f 4/7/7 5/9/9 20/10/10 19/8/8
f 5/9/9 6/11/11 21/12/12 20/10/10
f 6/11/11 7/13/13 22/14/14 21/12/12
f 7/13/13 8/15/15 23/16/16 22/14/14
f 8/15/15 9/17/17 24/18/18 23/16/16
f 9/17/17 10/19/19 25/20/20 24/18/18
f 10/19/19 11/21/21 26/22/22 25/20/20
f 11/21/21 12/23/23 27/24/24 26/22/22
f 12/23/23 13/25/25 28/26/26 27/24/24
f 13/25/25 14/27/27 29/28/28 28/26/26
f 14/27/27 15/29/29 30/30/30 29/28/28
f 15/29/29 16/31/31 48/32/32 30/30/30
f 16/31/31 1/33/1 46/34/4 48/32/32
s off
f 11/35/33 10/36/34 9/37/35 8/38/36 7/39/37 6/40/38 5/41/39 4/42/40 3/43/41 2/44/42 1/45/43 16/46/44 15/47/45 14/48/46 13/49/47 12/50/48
s 2
f 45/51/49 46/52/50 17/53/51 31/54/52
f 31/55/52 17/53/51 18/56/53 32/57/54
f 33/58/55 32/59/54 18/56/53 19/60/56 20/61/57 34/62/58
f 34/63/58 20/61/57 21/64/59 35/65/60
f 35/66/60 21/64/59 22/67/61 36/68/62
f 36/69/62 22/67/61 23/70/63 37/71/64
f 37/72/64 23/73/63 24/74/65 38/75/66
f 38/76/66 24/74/65 25/77/67 39/78/68
f 39/79/68 25/77/67 26/80/69 40/81/70
f 41/82/71 40/83/70 26/80/69 27/84/72 28/85/73 42/86/74
f 42/87/74 28/85/73 29/88/75 43/89/76
f 43/90/76 29/88/75 30/91/77 44/92/78
s 3
f 40/93/79 34/94/80 35/95/81 36/96/82 37/97/83 38/98/84 39/99/85
f 45/100/86 31/101/87 32/102/88 42/103/89 43/104/90 44/105/91 47/106/92
f 33/107/93 34/94/80 40/93/79 41/108/94 42/103/89 32/102/88
s off
f 49/109/95 50/110/96 51/111/97 52/112/98
f 53/113/99 55/114/100 56/115/101 54/116/102
