# This file uses centimeters as units for non-parametric coordinates.

mtllib LR_ŠÅ”Â.mtl
g default
v -0.077989 2.361960 -0.333013
v 0.091585 2.361960 -0.333013
v 0.091585 4.335502 -0.333013
v -0.077989 4.335502 -0.333013
v -0.077989 2.361960 -3.893733
v -0.077989 4.335502 -3.893733
v 0.091585 4.335502 -3.893733
v 0.091585 2.361960 -3.893733
vt 0.501511 0.000809
vt 0.999854 0.000809
vt 0.999854 0.499052
vt 0.501511 0.499052
vt 0.002285 0.500804
vt 0.499092 0.500804
vt 0.499092 0.994917
vt 0.002285 0.994917
vt 0.501476 0.001589
vt 1.000663 0.001589
vt 1.000663 0.499155
vt 0.501476 0.499155
vt 0.500966 -0.000672
vt 0.999864 -0.000672
vt 0.999864 0.497304
vt 0.500966 0.497304
vt 0.500456 0.000235
vt 1.001384 0.000235
vt 1.001384 0.499644
vt 0.500456 0.499644
vt 0.500951 0.000811
vt 1.000281 0.000811
vt 1.000281 0.499919
vt 0.500951 0.499919
vn 0.000000 0.000000 1.000000
vn 0.000000 0.000000 1.000000
vn 0.000000 0.000000 1.000000
vn 0.000000 0.000000 1.000000
vn -1.000000 0.000000 0.000000
vn -1.000000 0.000000 0.000000
vn -1.000000 0.000000 0.000000
vn -1.000000 0.000000 0.000000
vn 0.000000 1.000000 0.000000
vn 0.000000 1.000000 0.000000
vn 0.000000 1.000000 0.000000
vn 0.000000 1.000000 0.000000
vn 0.000000 0.000000 -1.000000
vn 0.000000 0.000000 -1.000000
vn 0.000000 0.000000 -1.000000
vn 0.000000 0.000000 -1.000000
vn 0.000000 -1.000000 0.000000
vn 0.000000 -1.000000 0.000000
vn 0.000000 -1.000000 0.000000
vn 0.000000 -1.000000 0.000000
vn 1.000000 0.000000 0.000000
vn 1.000000 0.000000 0.000000
vn 1.000000 0.000000 0.000000
vn 1.000000 0.000000 0.000000
s off
g polySurface3
usemtl initialShadingGroup
f 1/1/1 2/2/2 3/3/3 4/4/4
f 5/5/5 1/6/6 4/7/7 6/8/8
f 4/9/9 3/10/10 7/11/11 6/12/12
f 6/13/13 7/14/14 8/15/15 5/16/16
f 5/17/17 8/18/18 2/19/19 1/20/20
f 2/21/21 8/22/22 7/23/23 3/24/24
g default
v -0.001652 0.008193 -0.362974
v -0.001652 6.718847 -0.362973
v 0.253841 6.718847 -0.257145
v 0.253841 0.008193 -0.257145
v -0.257145 0.008193 -0.257145
v -0.362973 0.008193 -0.001652
v -0.257145 0.008193 0.253840
v -0.001652 0.008193 0.359669
v 0.253841 0.008193 0.253840
v 0.359669 0.008193 -0.001652
v -0.257145 6.718847 -0.257145
v -0.362973 6.718847 -0.001652
v -0.257145 6.718847 0.253841
v -0.001652 6.718847 0.359669
v 0.253841 6.718847 0.253841
v 0.359669 6.718847 -0.001652
vt 0.504300 0.511096
vt 0.999594 0.511096
vt 0.999594 0.996491
vt 0.504300 0.996491
vt 0.506686 0.514839
vt 0.998432 0.514839
vt 0.998432 0.996491
vt 0.506686 0.996491
vt 0.505583 0.510685
vt 0.996241 0.510685
vt 0.996241 0.997366
vt 0.505583 0.997366
vt 0.506653 0.514038
vt 0.993957 0.514038
vt 0.993957 0.995689
vt 0.506653 0.995689
vt 0.506046 0.514038
vt 0.993351 0.514038
vt 0.993351 0.997366
vt 0.506046 0.997366
vt 0.503762 0.512361
vt 0.994420 0.512361
vt 0.994420 0.999042
vt 0.503762 0.999042
vt 0.509862 0.517391
vt 0.992137 0.517391
vt 0.992137 0.994012
vt 0.509862 0.994012
vt 0.510932 0.509008
vt 0.996560 0.509008
vt 0.996560 0.995689
vt 0.510932 0.995689
vt 0.993326 0.993892
vt 0.882840 0.996147
vt 0.512471 0.993892
vt 0.511976 0.927731
vt 0.512471 0.514499
vt 0.882840 0.508891
vt 0.993326 0.514499
vt 0.993820 0.927731
vn 0.382683 0.000000 -0.923880
vn 0.382683 0.000000 -0.923880
vn 0.382683 0.000000 -0.923880
vn 0.382683 0.000000 -0.923880
vn -0.382683 0.000000 -0.923880
vn -0.382683 0.000000 -0.923880
vn -0.382683 0.000000 -0.923880
vn -0.382683 0.000000 -0.923880
vn -0.923880 0.000000 -0.382683
vn -0.923880 0.000000 -0.382683
vn -0.923880 0.000000 -0.382683
vn -0.923880 0.000000 -0.382683
vn -0.923880 -0.000000 0.382684
vn -0.923880 -0.000000 0.382683
vn -0.923880 -0.000000 0.382684
vn -0.923880 -0.000000 0.382683
vn -0.382684 -0.000000 0.923879
vn -0.382684 -0.000000 0.923879
vn -0.382684 -0.000000 0.923879
vn -0.382684 -0.000000 0.923879
vn 0.382683 -0.000000 0.923880
vn 0.382683 -0.000000 0.923880
vn 0.382683 -0.000000 0.923880
vn 0.382683 -0.000000 0.923880
vn 0.923880 -0.000000 0.382684
vn 0.923880 -0.000000 0.382684
vn 0.923880 -0.000000 0.382684
vn 0.923880 -0.000000 0.382684
vn 0.923879 0.000000 -0.382684
vn 0.923879 0.000000 -0.382684
vn 0.923879 0.000000 -0.382684
vn 0.923879 0.000000 -0.382684
vn 0.000000 1.000000 0.000000
vn 0.000000 1.000000 0.000000
vn 0.000000 1.000000 0.000000
vn 0.000000 1.000000 0.000000
vn 0.000000 1.000000 0.000000
vn 0.000000 1.000000 0.000000
vn 0.000000 1.000000 0.000000
vn 0.000000 1.000000 0.000000
s off
g polySurface5
usemtl initialShadingGroup
f 12/25/25 9/26/26 10/27/27 11/28/28
f 9/29/29 13/30/30 19/31/31 10/32/32
f 13/33/33 14/34/34 20/35/35 19/36/36
f 14/37/37 15/38/38 21/39/39 20/40/40
f 15/41/41 16/42/42 22/43/43 21/44/44
f 16/45/45 17/46/46 23/47/47 22/48/48
f 17/49/49 18/50/50 24/51/51 23/52/52
f 18/53/53 12/54/54 11/55/55 24/56/56
f 11/57/57 10/58/58 19/59/59 20/60/60 21/61/61 22/62/62 23/63/63 24/64/64
g default
v -0.091695 4.745193 3.823668
v 0.077879 4.745193 3.823668
v 0.077879 6.718735 3.823668
v -0.091695 6.718735 3.823668
v -0.091695 4.745193 0.262948
v -0.091695 6.718735 0.262948
v 0.077879 6.718735 0.262948
v 0.077879 4.745193 0.262948
vt 0.501511 0.000809
vt 0.999854 0.000809
vt 0.999854 0.499052
vt 0.501511 0.499052
vt 0.002285 0.012310
vt 0.499092 0.012310
vt 0.499092 0.506423
vt 0.002285 0.506423
vt 0.501476 0.001589
vt 1.000663 0.001589
vt 1.000663 0.499155
vt 0.501476 0.499155
vt 0.500966 -0.000672
vt 0.999864 -0.000672
vt 0.999864 0.497304
vt 0.500966 0.497304
vt 0.500456 0.000235
vt 1.001384 0.000235
vt 1.001384 0.499644
vt 0.500456 0.499644
vt 0.500951 0.000811
vt 1.000281 0.000811
vt 1.000281 0.499919
vt 0.500951 0.499919
vn 0.000000 0.000000 1.000000
vn 0.000000 0.000000 1.000000
vn 0.000000 0.000000 1.000000
vn 0.000000 0.000000 1.000000
vn -1.000000 0.000000 0.000000
vn -1.000000 0.000000 0.000000
vn -1.000000 0.000000 0.000000
vn -1.000000 0.000000 0.000000
vn 0.000000 1.000000 0.000000
vn 0.000000 1.000000 0.000000
vn 0.000000 1.000000 0.000000
vn 0.000000 1.000000 0.000000
vn 0.000000 0.000000 -1.000000
vn 0.000000 0.000000 -1.000000
vn 0.000000 0.000000 -1.000000
vn 0.000000 0.000000 -1.000000
vn 0.000000 -1.000000 0.000000
vn 0.000000 -1.000000 0.000000
vn 0.000000 -1.000000 0.000000
vn 0.000000 -1.000000 0.000000
vn 1.000000 0.000000 0.000000
vn 1.000000 0.000000 0.000000
vn 1.000000 0.000000 0.000000
vn 1.000000 0.000000 0.000000
s off
g polySurface7
usemtl initialShadingGroup
f 25/65/65 26/66/66 27/67/67 28/68/68
f 29/69/69 25/70/70 28/71/71 30/72/72
f 28/73/73 27/74/74 31/75/75 30/76/76
f 30/77/77 31/78/78 32/79/79 29/80/80
f 29/81/81 32/82/82 26/83/83 25/84/84
f 26/85/85 32/86/86 31/87/87 27/88/88
