# This file uses centimeters as units for non-parametric coordinates.

mtllib ‰E‘¾‚à‚à.mtl
g default
v -53.467294 13.005585 -16.341053
v -56.320109 3.807735 -13.806589
v -56.138391 13.016868 -16.858194
v -55.064567 13.229307 -14.807960
v -54.645901 3.621888 -14.852748
v -53.895047 3.575651 -13.420069
v -54.138856 12.794489 -18.062508
v -55.180967 8.818005 -13.985441
v -55.565407 3.818141 -12.231912
v -54.428773 8.541600 -16.225181
v -54.234573 13.033312 -15.494705
v -55.135252 11.042096 -14.380211
v -55.390001 6.268662 -13.137517
v -56.157751 6.201256 -14.498599
v -54.047633 11.475197 -16.907115
v -53.605781 10.782079 -15.729756
v -55.302656 8.585947 -15.818798
v -55.902535 3.790641 -12.971625
v -54.240127 10.961912 -15.034863
v -53.744532 12.935656 -17.213678
v -54.291641 10.690066 -17.190698
v -54.048065 8.504049 -15.678974
v -55.739479 5.542888 -13.317485
v -54.604078 11.682566 -15.046637
v -54.191782 3.622421 -14.195551
v -54.760404 3.662913 -12.811700
v -54.597782 6.138619 -15.539302
v -56.131956 10.874843 -16.036640
v -56.076165 8.711540 -15.372971
v -55.747494 6.263889 -13.841161
v -55.596210 13.031058 -15.851877
v -54.471118 8.756536 -14.546293
v -53.878513 10.730926 -16.325651
v -55.097899 12.982671 -17.476667
v -54.125363 6.079089 -15.040827
vn 0.574642 0.237100 0.783307
vn 0.574642 0.237100 0.783307
vn 0.574642 0.237100 0.783307
vn -0.513707 -0.241624 -0.823240
vn -0.513707 -0.241624 -0.823240
vn -0.513707 -0.241624 -0.823240
vn 0.803893 -0.213836 -0.555005
vn 0.803893 -0.213836 -0.555005
vn 0.803893 -0.213836 -0.555005
vn -0.420255 -0.218313 -0.880753
vn -0.420255 -0.218313 -0.880753
vn -0.420255 -0.218313 -0.880753
vn 0.547280 0.235155 0.803235
vn 0.547280 0.235155 0.803235
vn 0.547280 0.235155 0.803235
vn -0.836756 0.137186 0.530113
vn -0.836756 0.137186 0.530113
vn -0.836756 0.137186 0.530113
vn -0.891999 0.215448 0.397392
vn -0.891999 0.215448 0.397392
vn -0.891999 0.215448 0.397392
vn 0.793522 -0.219086 -0.567736
vn 0.793522 -0.219086 -0.567736
vn 0.793522 -0.219086 -0.567736
vn 0.592197 0.121289 0.796613
vn 0.592197 0.121289 0.796613
vn 0.592197 0.121289 0.796613
vn -0.893450 0.091404 0.439764
vn -0.893450 0.091404 0.439764
vn -0.893450 0.091404 0.439764
vn -0.409200 -0.358691 -0.838985
vn -0.409200 -0.358691 -0.838985
vn -0.409200 -0.358691 -0.838985
vn 0.954589 -0.245206 -0.169216
vn 0.954589 -0.245206 -0.169216
vn 0.954589 -0.245206 -0.169216
vn 0.744567 0.060180 0.664829
vn 0.744567 0.060180 0.664829
vn 0.744567 0.060180 0.664829
vn -0.872027 0.142026 0.468398
vn -0.872027 0.142026 0.468398
vn -0.872027 0.142026 0.468398
vn 0.649273 0.118892 0.751205
vn 0.649273 0.118892 0.751205
vn 0.649273 0.118892 0.751205
vn 0.551913 0.220838 0.804128
vn 0.551913 0.220838 0.804128
vn 0.551913 0.220838 0.804128
vn -0.837592 0.216415 0.501601
vn -0.837592 0.216415 0.501601
vn -0.837592 0.216415 0.501601
vn -0.839244 0.204153 0.503975
vn -0.839244 0.204153 0.503975
vn -0.839244 0.204153 0.503975
vn -0.534891 -0.197791 -0.821444
vn -0.534891 -0.197791 -0.821444
vn -0.534891 -0.197791 -0.821444
vn 0.791926 -0.226738 -0.566960
vn 0.791926 -0.226738 -0.566960
vn 0.791926 -0.226738 -0.566960
vn 0.879706 -0.245964 -0.406963
vn 0.879706 -0.245964 -0.406963
vn 0.879706 -0.245964 -0.406963
vn 0.901975 -0.166787 -0.398276
vn 0.901975 -0.166787 -0.398276
vn 0.901975 -0.166787 -0.398276
vn 0.748597 0.128136 0.650526
vn 0.748597 0.128136 0.650526
vn 0.748597 0.128136 0.650526
vn -0.513494 -0.265085 -0.816122
vn -0.513494 -0.265085 -0.816122
vn -0.513494 -0.265085 -0.816122
vn -0.496569 -0.288676 -0.818588
vn -0.496569 -0.288676 -0.818588
vn -0.496569 -0.288676 -0.818588
vn -0.872559 0.212876 0.439688
vn -0.872559 0.212876 0.439688
vn -0.872559 0.212876 0.439688
vn 0.735207 0.141816 0.662842
vn 0.735207 0.141816 0.662842
vn 0.735207 0.141816 0.662842
vn 0.367490 0.195073 0.909339
vn 0.367490 0.195073 0.909339
vn 0.367490 0.195073 0.909339
vn 0.942373 -0.176243 -0.284379
vn 0.942373 -0.176243 -0.284379
vn 0.942373 -0.176243 -0.284379
vn 0.897238 -0.227969 -0.378146
vn 0.897238 -0.227969 -0.378146
vn 0.897238 -0.227969 -0.378146
vn -0.513560 -0.284408 -0.809548
vn -0.513560 -0.284408 -0.809548
vn -0.513560 -0.284407 -0.809548
vn 0.899578 -0.185827 -0.395258
vn 0.899578 -0.185827 -0.395258
vn 0.899578 -0.185827 -0.395258
vn 0.915824 -0.156311 -0.369910
vn 0.915824 -0.156311 -0.369910
vn 0.915824 -0.156311 -0.369910
vn -0.870391 0.221801 0.439573
vn -0.870391 0.221801 0.439573
vn -0.870391 0.221801 0.439573
vn -0.738989 0.193961 0.645194
vn -0.738989 0.193961 0.645194
vn -0.738989 0.193961 0.645194
vn 0.784578 -0.023515 0.619584
vn 0.784578 -0.023515 0.619584
vn 0.784578 -0.023515 0.619584
vn 0.579700 0.310770 0.753239
vn 0.579700 0.310770 0.753239
vn 0.579700 0.310770 0.753239
vn 0.920451 -0.149822 -0.361005
vn 0.920451 -0.149822 -0.361005
vn 0.920451 -0.149822 -0.361005
vn 0.597410 0.240995 0.764868
vn 0.597410 0.240995 0.764868
vn 0.597410 0.240995 0.764868
vn 0.699000 -0.198043 -0.687152
vn 0.699000 -0.198043 -0.687152
vn 0.699000 -0.198043 -0.687152
vn -0.548288 -0.208095 -0.809986
vn -0.548288 -0.208095 -0.809986
vn -0.548288 -0.208095 -0.809986
vn -0.599284 -0.292915 -0.745023
vn -0.599284 -0.292915 -0.745023
vn -0.599284 -0.292915 -0.745023
vn -0.780610 0.222809 0.583955
vn -0.780610 0.222809 0.583955
vn -0.780610 0.222809 0.583955
vn -0.829081 0.209149 0.518537
vn -0.829081 0.209149 0.518537
vn -0.829081 0.209149 0.518537
vn -0.543058 -0.261976 -0.797782
vn -0.543058 -0.261976 -0.797782
vn -0.543058 -0.261976 -0.797782
vn -0.848936 0.312496 0.426209
vn -0.848936 0.312496 0.426209
vn -0.848936 0.312496 0.426209
vn -0.972837 0.131226 0.190704
vn -0.972837 0.131226 0.190704
vn -0.972837 0.131226 0.190704
vn -0.893824 0.110266 0.434650
vn -0.893824 0.110266 0.434650
vn -0.893824 0.110267 0.434650
vn 0.615321 0.232900 0.753085
vn 0.615321 0.232900 0.753085
vn 0.615321 0.232900 0.753085
vn 0.621168 0.097978 0.777529
vn 0.621168 0.097978 0.777529
vn 0.621168 0.097978 0.777529
vn 0.897450 -0.123968 -0.423339
vn 0.897450 -0.123968 -0.423339
vn 0.897450 -0.123968 -0.423339
vn 0.763377 -0.285708 -0.579333
vn 0.763377 -0.285708 -0.579333
vn 0.763377 -0.285708 -0.579333
vn -0.539716 -0.292104 -0.789545
vn -0.539716 -0.292104 -0.789545
vn -0.539716 -0.292104 -0.789545
vn 0.698533 -0.200446 -0.686930
vn 0.698533 -0.200446 -0.686930
vn 0.698533 -0.200446 -0.686930
vn 0.817148 -0.169072 -0.551075
vn 0.817148 -0.169072 -0.551075
vn 0.817148 -0.169072 -0.551075
vn 0.027140 0.996478 -0.079338
vn 0.027140 0.996478 -0.079338
vn 0.027140 0.996478 -0.079338
vn 0.027140 0.996478 -0.079338
vn 0.027140 0.996478 -0.079338
vn 0.027140 0.996478 -0.079338
vn 0.027140 0.996478 -0.079338
vn 0.027140 0.996478 -0.079338
vn -0.096347 -0.995075 0.023285
vn -0.096347 -0.995075 0.023285
vn -0.096347 -0.995075 0.023285
vn -0.096347 -0.995075 0.023285
vn -0.096347 -0.995075 0.023285
vn -0.096347 -0.995075 0.023285
vn -0.096347 -0.995075 0.023285
s off
g polySurface496 polySurface16
usemtl initialShadingGroup
f 26//1 6//2 13//3
f 27//4 29//5 17//6
f 25//7 5//8 35//9
f 17//10 10//11 27//12
f 6//13 16//14 32//15
f 28//16 29//17 8//18
f 18//19 9//20 13//21
f 27//22 10//23 22//24
f 12//25 8//26 19//27
f 3//28 8//29 12//30
f 21//31 10//32 17//33
f 20//34 15//35 21//36
f 32//37 16//38 19//39
f 12//40 31//41 3//42
f 11//43 4//44 12//45
f 6//46 8//47 13//48
f 14//49 30//50 8//51
f 14//52 2//53 30//54
f 5//55 2//56 14//57
f 22//58 10//59 33//60
f 33//61 10//62 21//63
f 33//64 1//65 16//66
f 16//67 1//68 19//69
f 17//70 29//71 28//72
f 17//73 3//74 34//75
f 30//76 2//77 18//78
f 19//79 1//80 11//81
f 11//82 24//83 19//84
f 20//85 1//86 33//87
f 21//88 7//89 20//90
f 21//91 17//92 34//93
f 22//94 33//95 16//96
f 35//97 16//98 6//99
f 13//100 8//101 30//102
f 13//103 23//104 18//105
f 12//106 24//107 11//108
f 19//109 24//110 12//111
f 6//112 25//113 35//114
f 13//115 9//116 26//117
f 35//118 5//119 27//120
f 27//121 5//122 14//123
f 28//124 3//125 17//126
f 3//127 28//128 8//129
f 8//130 29//131 14//132
f 14//133 29//134 27//135
f 30//136 23//137 13//138
f 18//139 23//140 30//141
f 12//142 4//143 31//144
f 32//145 8//146 6//147
f 19//148 8//149 32//150
f 21//151 15//152 33//153
f 33//154 15//155 20//156
f 34//157 7//158 21//159
f 22//160 35//161 27//162
f 22//163 16//164 35//165
f 3//166 31//167 4//168 11//169 1//170 20//171 7//172 34//173
f 6//174 26//175 9//176 18//177 2//178 5//179 25//180
g default
v -60.656920 31.611201 -14.725420
v -59.228042 20.629102 -19.168050
v -59.480727 30.679781 -22.431123
v -51.234992 14.655442 -16.531261
v -49.287711 16.792817 -16.122047
v -54.050040 16.016785 -20.454708
v -59.770667 21.006072 -15.867616
v -50.601172 18.153653 -11.571920
v -52.152411 17.864419 -21.376605
v -54.227511 29.876953 -29.353003
v -58.993491 31.289466 -9.048951
v -56.881198 29.686888 -7.588757
v -57.985236 22.506875 -9.140760
v -53.656981 15.718019 -11.469439
v -58.492293 16.879298 -12.739752
v -54.833960 19.839048 -8.810034
v -54.835128 12.708142 -16.483091
v -55.173957 12.804990 -13.966148
v -52.818259 12.382810 -16.493214
v -60.120437 21.427140 -12.484098
v -54.808642 28.305293 -6.088088
v -47.303584 25.899324 -6.309279
v -52.816260 20.503198 -8.630003
v -58.798400 18.337909 -14.427427
v -57.908477 16.571564 -18.086772
v -56.607978 12.344616 -16.992575
v -55.601249 12.309319 -17.785581
v -59.228042 20.629112 -19.168046
v -50.791129 17.530535 -18.429923
v -52.021171 13.510641 -16.441281
v -54.560233 12.262384 -18.563223
v -47.266368 23.942886 -15.879375
v -47.395160 24.036473 -19.570367
v -53.656981 15.718019 -11.469439
v -47.325099 27.744374 -27.243675
v -45.522258 30.080608 -15.634128
v -46.592973 30.309158 -25.727038
v -52.968661 32.919485 -28.006351
v -58.643260 33.901095 -21.529924
v -59.203975 35.461413 -14.261194
v -57.654755 34.757818 -9.669367
v -53.986291 32.759348 -6.900832
v -47.335662 29.547179 -5.955500
v -51.774827 42.654416 -14.697290
v -52.805179 42.742672 -15.878818
v -50.058261 43.441946 -17.627074
v -47.960883 41.885568 -14.645442
v -50.179889 42.249315 -14.261818
v -47.784610 41.333942 -19.809220
v -47.287366 41.625878 -16.817615
v -50.125409 41.651288 -21.159759
v -52.543504 42.369696 -18.772573
v -52.106990 37.252450 -8.587991
v -46.675681 35.944516 -7.879624
v -45.476920 36.161469 -15.955185
v -45.961007 35.948851 -23.837526
v -51.631215 37.016118 -25.748583
v -55.973311 38.535925 -20.205112
v -57.129563 38.714371 -14.345522
v -56.094911 38.189386 -10.449146
vt 0.667478 0.444204
vt 0.667478 0.444204
vt 0.667748 0.442612
vt 0.772676 0.458160
vt 0.772676 0.458160
vt 0.772676 0.458160
vt 0.702306 0.665505
vt 0.702576 0.663914
vt 0.702576 0.663914
vt 0.715363 0.902977
vt 0.715363 0.902977
vt 0.715363 0.902977
vt 0.687799 0.218040
vt 0.687799 0.218040
vt 0.687799 0.218040
vt 0.784134 0.397887
vt 0.784134 0.397887
vt 0.784134 0.397887
vt 0.724923 0.807238
vt 0.724923 0.807238
vt 0.724923 0.807238
vt 0.787870 0.424933
vt 0.787870 0.424933
vt 0.787870 0.424933
vt 0.762658 0.237650
vt 0.762388 0.239242
vt 0.762658 0.237650
vt 0.698827 0.534303
vt 0.698827 0.534303
vt 0.698827 0.534303
vt 0.763608 0.887227
vt 0.763608 0.887227
vt 0.763608 0.887227
vt 0.755954 0.077015
vt 0.755954 0.077015
vt 0.755954 0.077015
vt 0.770759 0.368795
vt 0.770759 0.368795
vt 0.770759 0.368795
vt 0.744899 0.423084
vt 0.744899 0.423084
vt 0.744899 0.423084
vt 0.792118 0.156415
vt 0.792118 0.156415
vt 0.792118 0.156415
vt 0.721253 0.751640
vt 0.721253 0.751640
vt 0.721253 0.751640
vt 0.683365 0.965817
vt 0.683365 0.965817
vt 0.683365 0.965817
vt 0.752808 0.127597
vt 0.752808 0.127597
vt 0.752808 0.127597
vt 0.650349 0.712423
vt 0.650349 0.712423
vt 0.650349 0.712423
vt 0.791448 0.270972
vt 0.791448 0.270972
vt 0.791448 0.270972
vt 0.733631 0.648043
vt 0.733631 0.648043
vt 0.733631 0.648043
vt 0.759184 0.335924
vt 0.759184 0.335924
vt 0.759184 0.335924
vt 0.724885 0.467656
vt 0.724885 0.467656
vt 0.724885 0.467656
vt 0.774821 0.307177
vt 0.774821 0.307177
vt 0.774821 0.307177
vt 0.758510 0.241686
vt 0.758510 0.241686
vt 0.758510 0.241686
vt 0.743782 0.366218
vt 0.743782 0.366218
vt 0.743782 0.366218
vt 0.699660 0.913001
vt 0.699660 0.913001
vt 0.699660 0.913001
vt 0.690940 0.376081
vt 0.690940 0.376081
vt 0.691287 0.377884
vt 0.744445 0.689324
vt 0.744445 0.689324
vt 0.744445 0.689324
vt 0.705675 0.869194
vt 0.705675 0.869194
vt 0.705675 0.869194
vt 0.732417 0.898950
vt 0.732417 0.898950
vt 0.732417 0.898950
vt 0.681877 0.879161
vt 0.681877 0.879161
vt 0.681877 0.879161
vt 0.741572 0.638819
vt 0.741572 0.638819
vt 0.741572 0.638819
vt 0.786573 0.150039
vt 0.786573 0.150039
vt 0.786573 0.150039
vt 0.738867 0.278219
vt 0.739137 0.276628
vt 0.739137 0.276628
vt 0.707310 0.959001
vt 0.707580 0.957409
vt 0.707310 0.959001
vt 0.776215 0.570110
vt 0.776215 0.570110
vt 0.776215 0.570110
vt 0.784367 0.714529
vt 0.784367 0.714529
vt 0.784367 0.714529
vt 0.791356 0.023851
vt 0.791356 0.023851
vt 0.791356 0.023851
vt 0.718516 0.485707
vt 0.718516 0.485707
vt 0.718516 0.485707
vt 0.780529 0.364849
vt 0.780529 0.364849
vt 0.780529 0.364849
vt 0.771964 0.243621
vt 0.771964 0.243621
vt 0.771964 0.243621
vt 0.695042 0.725633
vt 0.695042 0.725633
vt 0.695042 0.725633
vt 0.782133 0.534325
vt 0.782133 0.534325
vt 0.782133 0.534325
vt 0.670534 0.910814
vt 0.670534 0.910814
vt 0.670534 0.910814
vt 0.667827 0.882078
vt 0.667827 0.882078
vt 0.667827 0.882078
vt 0.711441 0.828333
vt 0.711441 0.828333
vt 0.711441 0.828333
vt 0.721958 0.975880
vt 0.721958 0.975880
vt 0.721958 0.975880
vt 0.776497 0.483387
vt 0.776497 0.483387
vt 0.776497 0.483387
vt 0.795803 0.506811
vt 0.795803 0.506811
vt 0.795803 0.506811
vt 0.749574 0.676297
vt 0.749574 0.676297
vt 0.749574 0.676297
vt 0.723178 0.907845
vt 0.723178 0.907845
vt 0.723178 0.907845
vt 0.763607 0.668143
vt 0.763607 0.668143
vt 0.763607 0.668143
vt 0.697292 0.902353
vt 0.697292 0.902353
vt 0.697292 0.902353
vt 0.706396 0.803105
vt 0.701463 0.686477
vt 0.671981 0.843428
vt 0.702763 0.902660
vt 0.750823 0.310632
vt 0.725579 0.621595
vt 0.696456 0.568091
vt 0.729506 0.411582
vt 0.701021 0.617748
vt 0.686831 0.705257
vt 0.697741 0.685379
vt 0.688403 0.682854
vt 0.695940 0.643963
vt 0.692902 0.735620
vt 0.690669 0.709432
vt 0.679748 0.771152
vt 0.693043 0.782237
vt 0.693466 0.610698
vt 0.716165 0.504134
vt 0.701413 0.778182
vt 0.697511 0.695953
vt 0.674722 0.817922
vt 0.696427 0.824158
vt 0.729903 0.439644
vt 0.712997 0.633824
vn -0.962440 -0.257212 -0.086895
vn -0.962440 -0.257212 -0.086895
vn -0.962440 -0.257212 -0.086895
vn 0.608022 -0.474971 -0.636170
vn 0.608022 -0.474971 -0.636170
vn 0.608022 -0.474971 -0.636170
vn -0.970366 -0.199192 -0.136791
vn -0.970366 -0.199192 -0.136791
vn -0.970366 -0.199192 -0.136791
vn 0.671242 -0.634332 0.383480
vn 0.671242 -0.634332 0.383480
vn 0.671242 -0.634332 0.383480
vn -0.506081 -0.700286 -0.503470
vn -0.506081 -0.700286 -0.503470
vn -0.506081 -0.700286 -0.503470
vn -0.704339 -0.280256 0.652199
vn -0.704339 -0.280256 0.652199
vn -0.704339 -0.280256 0.652199
vn -0.334100 -0.567281 0.752708
vn -0.334100 -0.567281 0.752708
vn -0.334100 -0.567281 0.752708
vn -0.193212 -0.981087 0.011740
vn -0.193212 -0.981087 0.011740
vn -0.193212 -0.981087 0.011740
vn -0.969189 -0.103340 0.223592
vn -0.969189 -0.103340 0.223592
vn -0.969189 -0.103340 0.223592
vn -0.249919 -0.782409 0.570418
vn -0.249919 -0.782409 0.570418
vn -0.249919 -0.782409 0.570418
vn 0.410070 -0.356423 0.839527
vn 0.410070 -0.356423 0.839527
vn 0.410070 -0.356423 0.839527
vn -0.542313 -0.603919 0.584105
vn -0.542313 -0.603919 0.584105
vn -0.542313 -0.603919 0.584105
vn 0.124453 -0.593610 0.795071
vn 0.124453 -0.593610 0.795071
vn 0.124453 -0.593610 0.795071
vn -0.612616 -0.262201 0.745622
vn -0.612616 -0.262201 0.745622
vn -0.612616 -0.262201 0.745622
vn -0.942517 -0.323122 -0.085171
vn -0.942517 -0.323122 -0.085171
vn -0.942517 -0.323122 -0.085171
vn 0.450696 -0.704536 0.548180
vn 0.450696 -0.704536 0.548180
vn 0.450696 -0.704536 0.548180
vn -0.310798 -0.520039 0.795591
vn -0.310798 -0.520039 0.795591
vn -0.310798 -0.520039 0.795591
vn -0.572178 -0.380844 -0.726340
vn -0.572178 -0.380844 -0.726340
vn -0.572178 -0.380844 -0.726340
vn -0.440515 -0.247706 -0.862895
vn -0.440515 -0.247706 -0.862895
vn -0.440515 -0.247706 -0.862895
vn 0.595075 -0.536233 -0.598615
vn 0.595075 -0.536233 -0.598615
vn 0.595075 -0.536233 -0.598615
vn 0.685054 -0.511242 -0.518972
vn 0.685054 -0.511242 -0.518972
vn 0.685054 -0.511242 -0.518972
vn -0.943575 -0.308699 -0.119878
vn -0.943575 -0.308699 -0.119878
vn -0.943575 -0.308699 -0.119878
vn 0.065939 -0.985506 -0.156301
vn 0.065939 -0.985506 -0.156301
vn 0.065939 -0.985506 -0.156301
vn -0.572809 -0.306275 -0.760319
vn -0.572809 -0.306275 -0.760319
vn -0.572809 -0.306275 -0.760319
vn -0.719566 -0.378937 0.581921
vn -0.719566 -0.378937 0.581921
vn -0.719566 -0.378937 0.581921
vn -0.577326 -0.593780 0.560464
vn -0.577326 -0.593780 0.560464
vn -0.577326 -0.593780 0.560464
vn -0.708313 -0.349902 0.613075
vn -0.708313 -0.349902 0.613075
vn -0.708313 -0.349902 0.613075
vn 0.115733 -0.977311 -0.177396
vn 0.115733 -0.977311 -0.177396
vn 0.115733 -0.977311 -0.177396
vn -0.642944 -0.545335 -0.537804
vn -0.642944 -0.545335 -0.537804
vn -0.642944 -0.545335 -0.537804
vn -0.575340 -0.325005 -0.750570
vn -0.575340 -0.325005 -0.750570
vn -0.575339 -0.325005 -0.750570
vn 0.666515 -0.364394 -0.650365
vn 0.666515 -0.364394 -0.650365
vn 0.666515 -0.364394 -0.650365
vn -0.952738 -0.284798 -0.105737
vn -0.952738 -0.284798 -0.105737
vn -0.952738 -0.284798 -0.105737
vn -0.037516 -0.928325 0.369873
vn -0.037516 -0.928325 0.369873
vn -0.037516 -0.928325 0.369873
vn -0.932045 -0.358633 -0.051716
vn -0.932045 -0.358633 -0.051716
vn -0.932045 -0.358633 -0.051716
vn -0.967254 -0.244078 -0.069611
vn -0.967254 -0.244078 -0.069611
vn -0.967254 -0.244078 -0.069611
vn -0.650359 -0.514725 -0.558651
vn -0.650359 -0.514725 -0.558651
vn -0.650359 -0.514725 -0.558651
vn -0.156056 -0.972788 0.171261
vn -0.156056 -0.972788 0.171261
vn -0.156056 -0.972788 0.171261
vn 0.165836 -0.964421 0.205890
vn 0.165836 -0.964421 0.205890
vn 0.165836 -0.964421 0.205890
vn 0.681677 -0.373242 -0.629291
vn 0.681677 -0.373242 -0.629291
vn 0.681677 -0.373242 -0.629291
vn 0.614393 -0.677973 0.403577
vn 0.614393 -0.677973 0.403577
vn 0.614393 -0.677973 0.403577
vn 0.757803 -0.486212 0.435124
vn 0.757803 -0.486212 0.435124
vn 0.757803 -0.486212 0.435124
vn -0.954283 -0.288917 -0.076619
vn -0.954283 -0.288917 -0.076619
vn -0.954283 -0.288917 -0.076619
vn -0.628391 -0.643402 0.437217
vn -0.628391 -0.643402 0.437217
vn -0.628391 -0.643402 0.437217
vn 0.107105 -0.706562 0.699499
vn 0.107105 -0.706562 0.699499
vn 0.107105 -0.706562 0.699499
vn -0.219639 -0.819694 0.529018
vn -0.219639 -0.819694 0.529018
vn -0.219639 -0.819694 0.529018
vn -0.110908 -0.781378 -0.614124
vn -0.110908 -0.781378 -0.614124
vn -0.110908 -0.781378 -0.614124
vn 0.013648 -0.852646 -0.522311
vn 0.013648 -0.852646 -0.522311
vn 0.013648 -0.852646 -0.522311
vn 0.280298 -0.904427 0.321627
vn 0.280298 -0.904427 0.321627
vn 0.280298 -0.904427 0.321627
vn 0.212002 -0.975034 0.066056
vn 0.212002 -0.975034 0.066056
vn 0.212002 -0.975034 0.066056
vn 0.676461 -0.451278 -0.582021
vn 0.676461 -0.451278 -0.582021
vn 0.676461 -0.451278 -0.582021
vn 0.717406 -0.527949 0.454531
vn 0.717406 -0.527949 0.454531
vn 0.717406 -0.527949 0.454531
vn 0.683167 -0.522685 -0.509984
vn 0.683167 -0.522685 -0.509984
vn 0.683167 -0.522685 -0.509984
vn -0.954765 -0.285936 -0.081641
vn -0.954765 -0.285936 -0.081641
vn -0.954765 -0.285936 -0.081641
vn 0.525260 -0.638906 -0.562050
vn 0.525260 -0.638907 -0.562050
vn 0.525260 -0.638907 -0.562050
vn 0.967413 -0.236108 -0.091458
vn 0.912778 -0.070857 -0.402263
vn 0.918813 -0.022380 -0.394059
vn 0.992438 -0.119952 0.026032
vn 0.977011 -0.212995 -0.009097
vn -0.235349 0.452758 -0.860012
vn -0.171995 0.467396 -0.867155
vn -0.797525 0.410360 -0.442221
vn -0.778889 0.469086 -0.416281
vn -0.679157 0.321433 0.659869
vn -0.660657 0.399985 0.635251
vn -0.894969 0.445118 0.030004
vn -0.937855 0.346458 0.019861
vn 0.871136 -0.137896 0.471282
vn 0.744670 0.017372 0.667207
vn -0.182476 0.270537 0.945258
vn -0.170528 0.131586 0.976527
vn -0.263856 0.813704 0.517943
vn 0.156332 0.975243 -0.156401
vn -0.626233 0.778430 0.043353
vn 0.647753 0.631946 0.425512
vn 0.057553 0.768916 0.636754
vn 0.762525 0.530850 -0.369804
vn 0.911595 0.410390 0.023959
vn -0.028798 0.727737 -0.685252
vn -0.559524 0.734200 -0.384555
vn 0.732226 0.306579 0.608157
vn -0.048574 0.555202 0.830296
vn 0.860592 0.236020 -0.451305
vn 0.992924 0.110783 0.042764
vn -0.114094 0.567606 -0.815356
vn -0.671047 0.612702 -0.417483
vn -0.466284 0.634884 0.616037
vn -0.770484 0.636490 0.035147
vn -0.450220 0.269381 0.851314
s off
g polySurface501 polySurface494 polySurface492
usemtl initialShadingGroup
f 36/1/181 38/2/182 37/3/183
f 39/4/184 41/5/185 40/6/186
f 36/7/187 37/8/188 42/9/189
f 43/10/190 39/11/191 40/12/192
f 44/13/193 37/14/194 45/15/195
f 46/16/196 48/17/197 47/18/198
f 49/19/199 51/20/200 50/21/201
f 52/22/202 54/23/203 53/24/204
f 46/25/205 36/26/206 55/27/207
f 56/28/208 58/29/209 57/30/210
f 49/31/211 43/32/212 51/33/213
f 56/34/214 48/35/215 51/36/216
f 58/37/217 56/38/218 51/39/219
f 50/40/220 51/41/221 55/42/222
f 59/43/223 50/44/224 55/45/225
f 54/46/226 49/47/227 53/48/228
f 49/49/229 50/50/230 53/51/231
f 60/52/232 62/53/233 61/54/234
f 41/55/235 63/56/236 44/57/237
f 41/58/238 64/59/239 40/60/240
f 65/61/241 66/62/242 39/63/243
f 60/64/244 42/65/245 37/66/246
f 44/67/247 67/68/248 64/69/249
f 60/70/250 41/71/251 62/72/252
f 48/73/253 46/74/254 55/75/255
f 51/76/256 48/77/257 55/78/258
f 47/79/259 48/80/260 56/81/261
f 67/82/262 44/83/263 68/84/264
f 41/85/265 60/86/266 37/87/267
f 62/88/268 41/89/269 66/90/270
f 64/91/271 41/92/272 44/93/273
f 59/94/274 60/95/275 61/96/276
f 67/97/277 57/98/278 40/99/279
f 42/100/280 59/101/281 55/102/282
f 36/103/283 42/104/284 55/105/285
f 45/106/286 37/107/287 38/108/288
f 62/109/289 54/110/290 52/111/291
f 61/112/292 62/113/293 52/114/294
f 41/115/295 39/116/296 66/117/297
f 49/118/298 39/119/299 43/120/300
f 69/121/301 65/122/302 39/123/303
f 59/124/304 61/125/305 50/126/306
f 61/127/307 53/128/308 50/129/309
f 43/130/310 58/131/311 51/132/312
f 43/133/313 57/134/314 58/135/315
f 44/136/316 45/137/317 70/138/318
f 68/139/319 44/140/320 70/141/321
f 57/142/322 43/143/323 40/144/324
f 61/145/325 52/146/326 53/147/327
f 62/148/328 65/149/329 54/150/330
f 54/151/331 65/152/332 49/153/333
f 62/154/334 66/155/335 65/156/336
f 60/157/337 59/158/338 42/159/339
f 64/160/340 67/161/341 40/162/342
s 1
f 68/84/343 70/141/344 72/163/345 71/164/346 67/97/347
f 72/163/345 70/141/344 45/137/348 73/165/349
f 38/108/350 74/166/351 73/165/349 45/137/348
f 46/25/352 76/167/353 75/168/354 36/1/355
f 57/30/356 78/169/357 77/170/358 56/81/359
f 79/171/360 81/172/361 80/173/362
f 82/174/363 81/172/361 83/175/364
f 84/176/365 81/172/361 85/177/366
f 81/172/361 84/176/365 86/178/367
f 87/179/368 81/172/361 86/178/367
f 78/169/357 89/180/369 88/181/370 77/170/358
f 72/163/345 91/182/371 90/183/372 71/164/346
f 91/182/371 72/163/345 73/165/349 92/184/373
f 74/166/351 93/185/374 92/184/373 73/165/349
f 76/167/353 95/186/375 94/187/376 75/168/354
f 89/180/369 82/174/363 83/175/364 88/181/370
f 91/182/371 84/176/365 85/177/366 90/183/372
f 84/176/365 91/182/371 92/184/373 86/178/367
f 93/185/374 87/179/368 86/178/367 92/184/373
f 95/186/375 79/171/360 80/173/362 94/187/376
f 77/170/358 76/167/353 46/25/352 47/18/377 56/81/359
f 88/181/370 95/186/375 76/167/353 77/170/358
f 83/175/364 79/171/360 95/186/375 88/181/370
f 81/172/361 79/171/360 83/175/364
f 71/164/346 78/169/357 57/30/356 67/97/347
f 90/183/372 89/180/369 78/169/357 71/164/346
f 85/177/366 82/174/363 89/180/369 90/183/372
f 81/172/361 82/174/363 85/177/366
f 75/168/354 74/166/351 38/108/350 36/1/355
f 94/187/376 93/185/374 74/166/351 75/168/354
f 80/173/362 87/179/368 93/185/374 94/187/376
f 81/172/361 87/179/368 80/173/362
