# This file uses centimeters as units for non-parametric coordinates.

mtllib ‰E—ƒ.mtl
g default
v 0.673414 6.812070 -11.010519
v 4.207575 12.278622 -18.334831
v 0.292678 1.345474 -3.192170
v -0.774386 -0.356305 -0.129848
v -1.546580 1.902519 -3.071751
v -2.106546 8.389390 -10.833972
v 2.662792 13.151057 -18.589292
v 1.312450 11.207587 -3.912716
v 3.692916 16.952196 -10.661102
v 4.868224 15.767116 -13.620210
v 1.283818 6.160956 2.982341
v 0.314868 4.227476 6.104371
v -1.186691 7.574317 3.464877
v -2.259682 12.117995 -5.772865
v -0.131480 15.660970 -3.254177
v 3.493407 16.826903 -13.672747
v 3.128990 17.828252 -10.481503
v 3.518617 14.814277 5.027924
v 4.868684 18.133210 1.447349
v 4.471900 12.690494 8.050628
v 3.737373 11.569478 9.710322
v 3.351911 13.162256 8.215395
v -0.048955 14.836392 0.978963
v 3.263529 18.098879 -6.897997
v 3.481600 18.537529 -1.089751
v 3.582031 18.739567 1.585540
v 2.049653 15.736459 5.029625
v 1.130193 13.897225 -12.292019
vt 0.668563 0.500000
vt 0.704737 0.500000
vt 0.740910 0.500000
vt 0.777084 0.500000
vt 0.813257 0.500000
vt 0.849431 0.500000
vt 0.885604 0.500000
vt 0.668563 0.577433
vt 0.668563 0.625000
vt 0.704737 0.625000
vt 0.740910 0.625000
vt 0.777084 0.625000
vt 0.813257 0.625000
vt 0.849431 0.589444
vt 0.849431 0.625000
vt 0.885604 0.625000
vt 0.885604 0.578323
vt 0.668563 0.750000
vt 0.704737 0.750000
vt 0.740910 0.750000
vt 0.777084 0.750000
vt 0.813257 0.750000
vt 0.849431 0.691060
vt 0.885604 0.722287
vt 0.885604 0.662121
vt 0.885604 0.750000
vt 0.849431 0.750000
vt 0.871986 0.548837
vn 0.928373 -0.319301 0.190186
vn 0.928373 -0.319301 0.190186
vn 0.928373 -0.319301 0.190186
vn 0.928373 -0.319301 0.190186
vn 0.928373 -0.319301 0.190186
vn 0.993170 -0.106223 -0.048267
vn 0.993170 -0.106223 -0.048267
vn 0.993170 -0.106223 -0.048267
vn 0.993170 -0.106223 -0.048267
vn 0.932917 -0.344568 0.104593
vn 0.932917 -0.344568 0.104593
vn 0.932917 -0.344568 0.104593
vn 0.932917 -0.344568 0.104593
vn -0.959585 -0.156042 0.234196
vn -0.959585 -0.156042 0.234196
vn -0.959585 -0.156042 0.234196
vn -0.959585 -0.156042 0.234196
vn -0.996158 -0.050647 0.071444
vn -0.991025 0.030555 0.130139
vn -0.988957 0.074733 0.127977
vn -0.784522 0.578436 -0.223467
vn -0.850164 0.466798 -0.243557
vn -0.819471 0.518248 -0.244714
vn 0.903183 -0.426554 -0.048091
vn 0.903183 -0.426554 -0.048091
vn 0.903183 -0.426554 -0.048091
vn 0.903183 -0.426554 -0.048091
vn 0.954391 -0.192539 -0.228182
vn 0.954391 -0.192539 -0.228182
vn 0.954391 -0.192539 -0.228182
vn 0.954391 -0.192539 -0.228182
vn 0.894038 -0.446766 0.033110
vn 0.894038 -0.446766 0.033111
vn 0.894038 -0.446766 0.033110
vn 0.894038 -0.446766 0.033110
vn -0.820551 0.148508 0.551943
vn -0.820551 0.148508 0.551943
vn -0.820551 0.148508 0.551943
vn -0.820551 0.148508 0.551943
vn -0.871917 0.275232 0.404979
vn -0.846135 0.269264 0.459947
vn -0.931240 0.232767 0.280377
vn -0.680964 0.727881 0.080476
vn -0.695195 0.710820 0.106957
vn -0.608773 0.792482 -0.036991
vn 0.640468 0.761625 -0.098635
vn 0.624316 0.774190 -0.104206
vn 0.610000 0.784865 -0.109027
vn 0.610000 0.784865 -0.109027
vn 0.610000 0.784865 -0.109027
vn 0.610000 0.784865 -0.109027
vn 0.412537 0.702151 0.580342
vn 0.373012 0.608345 0.700556
vn 0.373012 0.608345 0.700556
vn 0.397842 0.666445 0.630533
vn -0.608773 0.792482 -0.036990
vn -0.712076 0.687918 0.140417
vn -0.712076 0.687918 0.140417
vn -0.712076 0.687918 0.140417
vn -0.847103 0.440354 -0.297500
vn -0.819494 0.515055 -0.251295
vn -0.842467 0.471367 -0.260888
vn -0.801757 0.543058 -0.249546
vn -0.997731 -0.064972 0.017680
vn -0.897893 0.344684 0.273828
vn -0.983659 0.172153 0.052713
vn -0.892357 0.094686 0.441286
vn 0.495378 0.658504 -0.566545
vn 0.586711 0.698821 -0.409170
vn 0.547136 0.683261 -0.483525
vn 0.495378 0.658504 -0.566545
vn 0.437470 0.766499 0.470213
vn 0.437470 0.766499 0.470213
vn 0.437470 0.766499 0.470213
vn -0.365341 -0.708568 -0.603703
vn -0.365341 -0.708568 -0.603703
vn -0.365341 -0.708568 -0.603703
vn -0.365341 -0.708568 -0.603703
vn -0.365341 -0.708568 -0.603703
vn -0.365341 -0.708568 -0.603703
vn -0.365341 -0.708568 -0.603703
s off
g polySurface76 polySurface71 polySurface70 pSphere3
usemtl initialShadingGroup
f 2/1/1 10/8/2 9/9/3 8/10/4 1/2/5
f 1/2/6 8/10/7 11/11/8 3/3/9
f 3/3/10 11/11/11 12/12/12 4/4/13
f 4/4/14 12/12/15 13/13/16 5/5/17
s 1
f 5/5/18 13/13/19 14/14/20
s 2
f 15/15/21 17/16/22 16/17/23
s off
f 9/9/24 19/18/25 18/19/26 8/10/27
f 8/10/28 18/19/29 20/20/30 11/11/31
f 11/11/32 20/20/33 21/21/34 12/12/35
f 12/12/36 21/21/37 22/22/38 13/13/39
s 3
f 13/13/40 22/22/41 23/23/42
s 4
f 15/15/43 25/24/44 24/25/45
s 5
f 9/9/46 17/16/47 24/25/48 25/24/49 26/26/50 19/18/51
s 6
f 18/19/52 19/18/53 26/26/54 27/27/55
s 4
f 15/15/43 24/25/45 17/16/56
f 15/15/43 23/23/57 27/27/58 26/26/59 25/24/44
s 2
f 6/6/60 28/28/61 16/17/23 7/7/62
f 6/6/60 14/14/63 28/28/61
s 1
f 5/5/18 14/14/20 6/6/64
f 13/13/19 15/15/65 14/14/20
s 3
f 13/13/40 23/23/42 15/15/66
f 22/22/41 27/27/67 23/23/42
s 2
f 14/14/63 15/15/21 16/17/23 28/28/61
s 5
f 7/7/68 16/17/69 10/8/70 2/1/71
f 10/8/70 16/17/69 17/16/47 9/9/46
s 6
f 18/19/52 27/27/55 22/22/72 21/21/73 20/20/74
s off
f 1/2/75 3/3/76 4/4/77 5/5/78 6/6/79 7/7/80 2/1/81
