# This file uses centimeters as units for non-parametric coordinates.

mtllib ‰E‘«.mtl
g default
v 0.122009 9.103965 -3.705104
v -1.989127 0.175144 0.165524
v -2.598164 9.070937 -3.661666
v -1.131533 9.466661 -1.902664
v -0.561339 -0.105933 -1.181464
v 0.467431 -0.023298 0.064847
v -0.883692 8.738901 -5.226371
v -0.999302 5.147757 -0.686413
v -0.928541 0.327009 1.544432
v -0.716466 4.669556 -2.999411
v -0.456262 9.208700 -2.725092
v -1.074590 7.327074 -1.277536
v -0.985405 2.685585 0.408727
v -2.014057 2.496252 -0.754268
v -0.534750 7.529244 -4.002135
v 0.150789 6.944868 -2.883940
v -1.489372 4.751212 -2.427804
v -1.409331 0.233134 0.895113
v -0.331053 7.187290 -2.092314
v -0.326609 8.955779 -4.492509
v -0.817713 6.721937 -4.158902
v -0.231465 4.681132 -2.541886
v -1.351441 1.946844 0.369352
v -0.702379 7.904268 -2.092876
v 0.017544 -0.046472 -0.634207
v -0.256565 0.119329 0.827774
v -0.699133 2.338479 -2.083391
v -2.385975 7.011841 -2.672543
v -2.157407 4.917253 -1.845558
v -1.479149 2.617620 -0.203268
v -1.861914 9.175443 -2.793421
v -0.418234 5.035251 -1.373378
v -0.237138 6.840365 -3.404211
v -1.705769 8.980086 -4.475102
v -0.133751 2.323773 -1.689275
vt 0.139970 0.189208
vt 0.139970 0.189208
vt 0.139970 0.189208
vt 0.129291 0.304027
vt 0.129291 0.304027
vt 0.129291 0.304027
vt 0.126271 0.381201
vt 0.126271 0.381201
vt 0.126271 0.381201
vt 0.134914 0.255090
vt 0.134914 0.255090
vt 0.134914 0.255090
vt 0.095593 0.234038
vt 0.095593 0.234038
vt 0.095593 0.234038
vt 0.128869 0.239083
vt 0.128869 0.239083
vt 0.128869 0.239083
vt 0.130411 0.305367
vt 0.130411 0.305367
vt 0.130411 0.305367
vt 0.129415 0.369104
vt 0.129415 0.369104
vt 0.129415 0.369104
vt 0.123809 0.359456
vt 0.123809 0.359456
vt 0.123809 0.359456
vt 0.110180 0.387287
vt 0.110180 0.387287
vt 0.110180 0.387287
vt 0.123082 0.407217
vt 0.123082 0.407217
vt 0.123082 0.407217
vt 0.122761 0.342422
vt 0.122761 0.342422
vt 0.122761 0.342422
vt 0.123265 0.414614
vt 0.123265 0.414614
vt 0.123265 0.414614
vt 0.127725 0.312794
vt 0.127725 0.312794
vt 0.127725 0.312794
vt 0.138643 0.227348
vt 0.138643 0.227348
vt 0.138643 0.227348
vt 0.093803 0.358829
vt 0.093803 0.358829
vt 0.093803 0.358829
vt 0.123861 0.405654
vt 0.123861 0.405654
vt 0.123861 0.405654
vt 0.138500 0.257383
vt 0.138500 0.257383
vt 0.138500 0.257383
vt 0.136575 0.131110
vt 0.136575 0.131110
vt 0.136575 0.131110
vt 0.129781 0.372062
vt 0.129781 0.372062
vt 0.129781 0.372062
vt 0.135093 0.265417
vt 0.135093 0.265417
vt 0.135093 0.265417
vt 0.123805 0.131282
vt 0.123805 0.131282
vt 0.123805 0.131282
vt 0.128109 0.315455
vt 0.128109 0.315455
vt 0.128109 0.315455
vt 0.121942 0.130827
vt 0.121942 0.130827
vt 0.121942 0.130827
vt 0.114959 0.339303
vt 0.114959 0.339303
vt 0.114959 0.339303
vt 0.136173 0.246914
vt 0.136173 0.246914
vt 0.136173 0.246914
vt 0.123299 0.391310
vt 0.123299 0.391310
vt 0.123299 0.391310
vt 0.135033 0.367666
vt 0.135033 0.367666
vt 0.135033 0.367666
vt 0.128296 0.330551
vt 0.128296 0.330551
vt 0.128296 0.330551
vt 0.134453 0.270770
vt 0.134453 0.270770
vt 0.134453 0.270770
vt 0.115156 0.350641
vt 0.115156 0.350641
vt 0.115156 0.350641
vt 0.139329 0.270592
vt 0.139329 0.270592
vt 0.139329 0.270592
vt 0.106262 0.392631
vt 0.106262 0.392631
vt 0.106262 0.392631
vt 0.098961 0.254970
vt 0.098961 0.254970
vt 0.098961 0.254970
vt 0.122817 0.282031
vt 0.122817 0.282031
vt 0.122817 0.282031
vt 0.121966 0.401303
vt 0.121966 0.401303
vt 0.121966 0.401303
vt 0.137585 0.342431
vt 0.137585 0.342431
vt 0.137585 0.342431
vt 0.125070 0.386178
vt 0.125070 0.386178
vt 0.125070 0.386178
vt 0.135021 0.239201
vt 0.135021 0.239201
vt 0.135021 0.239201
vt 0.116269 0.315528
vt 0.116269 0.315528
vt 0.116269 0.315528
vt 0.125883 0.229946
vt 0.125883 0.229946
vt 0.125883 0.229946
vt 0.104448 0.309774
vt 0.104448 0.309774
vt 0.104448 0.309774
vt 0.102742 0.306469
vt 0.102742 0.306469
vt 0.102742 0.306469
vt 0.124450 0.257614
vt 0.124450 0.257614
vt 0.124450 0.257614
vt 0.122165 0.257622
vt 0.122165 0.257622
vt 0.122165 0.257622
vt 0.091511 0.320569
vt 0.091511 0.320569
vt 0.091511 0.320569
vt 0.093983 0.420532
vt 0.093983 0.420532
vt 0.093983 0.420532
vt 0.131832 0.265452
vt 0.131832 0.265452
vt 0.131832 0.265452
vt 0.113088 0.284983
vt 0.113088 0.284983
vt 0.113088 0.284983
vt 0.127062 0.354469
vt 0.127062 0.354469
vt 0.127062 0.354469
vt 0.138337 0.232887
vt 0.138337 0.232887
vt 0.138337 0.232887
vt 0.117543 0.375975
vt 0.117543 0.375975
vt 0.117543 0.375975
vt 0.130833 0.272555
vt 0.130833 0.272555
vt 0.130833 0.272555
vt 0.116383 0.310888
vt 0.116383 0.310888
vt 0.116383 0.310888
vt 0.095855 0.213260
vt 0.095855 0.213260
vt 0.095855 0.213260
vn 0.718461 0.306338 0.624477
vn 0.718461 0.306338 0.624477
vn 0.718461 0.306338 0.624477
vn -0.666913 -0.314506 -0.675509
vn -0.666913 -0.314506 -0.675509
vn -0.666913 -0.314506 -0.675509
vn 0.676994 -0.263810 -0.687084
vn 0.676994 -0.263810 -0.687084
vn 0.676994 -0.263810 -0.687084
vn -0.587631 -0.296568 -0.752820
vn -0.587631 -0.296568 -0.752820
vn -0.587631 -0.296568 -0.752820
vn 0.695793 0.306226 0.649690
vn 0.695793 0.306226 0.649690
vn 0.695793 0.306226 0.649690
vn -0.712896 0.185254 0.676358
vn -0.712896 0.185254 0.676358
vn -0.712896 0.185254 0.676358
vn -0.795495 0.251263 0.551411
vn -0.795495 0.251263 0.551411
vn -0.795496 0.251263 0.551411
vn 0.664332 -0.270178 -0.696898
vn 0.664332 -0.270178 -0.696898
vn 0.664332 -0.270178 -0.696898
vn 0.740408 0.192186 0.644097
vn 0.740408 0.192186 0.644097
vn 0.740408 0.192186 0.644097
vn -0.786057 0.131553 0.603993
vn -0.786057 0.131553 0.603993
vn -0.786057 0.131553 0.603993
vn -0.565788 -0.432611 -0.701948
vn -0.565788 -0.432611 -0.701948
vn -0.565788 -0.432611 -0.701948
vn 0.903958 -0.260353 -0.339230
vn 0.903958 -0.260353 -0.339230
vn 0.903958 -0.260353 -0.339230
vn 0.863650 0.119289 0.489774
vn 0.863650 0.119289 0.489775
vn 0.863650 0.119289 0.489775
vn -0.760127 0.184535 0.623020
vn -0.760127 0.184535 0.623021
vn -0.760127 0.184535 0.623020
vn 0.787021 0.185646 0.588331
vn 0.787021 0.185646 0.588331
vn 0.787021 0.185646 0.588331
vn 0.700763 0.292044 0.650878
vn 0.700763 0.292044 0.650878
vn 0.700763 0.292044 0.650878
vn -0.720946 0.261586 0.641724
vn -0.720946 0.261586 0.641724
vn -0.720946 0.261586 0.641724
vn -0.721861 0.249590 0.645463
vn -0.721861 0.249590 0.645463
vn -0.721861 0.249590 0.645463
vn -0.688053 -0.270670 -0.673292
vn -0.688053 -0.270670 -0.673292
vn -0.688053 -0.270670 -0.673292
vn 0.663064 -0.277727 -0.695136
vn 0.663064 -0.277727 -0.695136
vn 0.663064 -0.277727 -0.695136
vn 0.782045 -0.282507 -0.555513
vn 0.782046 -0.282507 -0.555513
vn 0.782046 -0.282507 -0.555513
vn 0.804219 -0.202889 -0.558630
vn 0.804219 -0.202889 -0.558630
vn 0.804219 -0.202889 -0.558630
vn 0.863468 0.185671 0.468988
vn 0.863468 0.185671 0.468988
vn 0.863468 0.185671 0.468988
vn -0.664835 -0.337228 -0.666538
vn -0.664834 -0.337227 -0.666538
vn -0.664834 -0.337227 -0.666538
vn -0.648358 -0.360960 -0.670328
vn -0.648358 -0.360960 -0.670328
vn -0.648358 -0.360960 -0.670328
vn -0.767771 0.252503 0.588872
vn -0.767771 0.252503 0.588872
vn -0.767771 0.252503 0.588872
vn 0.852641 0.200420 0.482530
vn 0.852641 0.200420 0.482530
vn 0.852641 0.200420 0.482530
vn 0.542248 0.276052 0.793575
vn 0.542248 0.276052 0.793575
vn 0.542248 0.276052 0.793575
vn 0.867224 -0.202059 -0.455076
vn 0.867224 -0.202059 -0.455076
vn 0.867224 -0.202059 -0.455076
vn 0.804781 -0.261999 -0.532620
vn 0.804781 -0.261999 -0.532620
vn 0.804781 -0.261999 -0.532620
vn -0.663214 -0.355878 -0.658406
vn -0.663214 -0.355878 -0.658406
vn -0.663214 -0.355878 -0.658406
vn 0.802826 -0.221577 -0.553510
vn 0.802826 -0.221577 -0.553510
vn 0.802826 -0.221577 -0.553510
vn 0.823391 -0.189908 -0.534755
vn 0.823391 -0.189908 -0.534755
vn 0.823391 -0.189908 -0.534755
vn -0.765830 0.261379 0.587524
vn -0.765830 0.261379 0.587524
vn -0.765830 0.261379 0.587524
vn -0.594671 0.252100 0.763421
vn -0.594671 0.252100 0.763421
vn -0.594671 0.252100 0.763421
vn 0.895029 0.031814 0.444871
vn 0.895029 0.031814 0.444871
vn 0.895029 0.031814 0.444871
vn 0.715959 0.376988 0.587608
vn 0.715959 0.376988 0.587608
vn 0.715959 0.376988 0.587608
vn 0.829626 -0.182645 -0.527599
vn 0.829626 -0.182645 -0.527599
vn 0.829626 -0.182645 -0.527599
vn 0.736902 0.308532 0.601484
vn 0.736902 0.308532 0.601484
vn 0.736902 0.308532 0.601484
vn 0.547023 -0.259918 -0.795744
vn 0.547023 -0.259918 -0.795744
vn 0.547023 -0.259918 -0.795744
vn -0.698638 -0.279885 -0.658460
vn -0.698638 -0.279885 -0.658460
vn -0.698638 -0.279885 -0.658460
vn -0.733760 -0.358447 -0.577159
vn -0.733760 -0.358447 -0.577159
vn -0.733760 -0.358447 -0.577159
vn -0.648443 0.275338 0.709726
vn -0.648443 0.275338 0.709726
vn -0.648443 0.275338 0.709726
vn -0.709023 0.255871 0.657127
vn -0.709023 0.255871 0.657127
vn -0.709023 0.255871 0.657127
vn -0.690072 -0.332448 -0.642867
vn -0.690072 -0.332448 -0.642867
vn -0.690072 -0.332448 -0.642867
vn -0.749168 0.350477 0.562061
vn -0.749168 0.350477 0.562061
vn -0.749168 0.350477 0.562061
vn -0.915408 0.148796 0.374015
vn -0.915408 0.148796 0.374015
vn -0.915408 0.148796 0.374015
vn -0.787802 0.149877 0.597416
vn -0.787802 0.149877 0.597416
vn -0.787802 0.149877 0.597416
vn 0.752164 0.299390 0.587039
vn 0.752164 0.299390 0.587039
vn 0.752164 0.299390 0.587039
vn 0.765269 0.167221 0.621611
vn 0.765269 0.167221 0.621611
vn 0.765269 0.167221 0.621611
vn 0.793907 -0.162504 -0.585922
vn 0.793907 -0.162504 -0.585922
vn 0.793907 -0.162504 -0.585922
vn 0.633633 -0.337548 -0.696111
vn 0.633633 -0.337548 -0.696111
vn 0.633633 -0.337548 -0.696111
vn -0.684584 -0.361713 -0.632857
vn -0.684584 -0.361713 -0.632857
vn -0.684584 -0.361713 -0.632857
vn 0.546654 -0.262290 -0.795219
vn 0.546654 -0.262290 -0.795219
vn 0.546654 -0.262290 -0.795219
vn 0.689980 -0.218885 -0.689940
vn 0.689980 -0.218885 -0.689940
vn 0.689980 -0.218885 -0.689940
vn -0.007262 0.985218 -0.171149
vn -0.007262 0.985218 -0.171149
vn -0.007262 0.985218 -0.171149
vn -0.007262 0.985218 -0.171149
vn -0.007262 0.985218 -0.171149
vn -0.007262 0.985218 -0.171149
vn -0.007262 0.985218 -0.171149
vn -0.007262 0.985218 -0.171149
vn -0.071963 -0.988820 0.130602
vn -0.071963 -0.988820 0.130602
vn -0.071963 -0.988820 0.130602
vn -0.071963 -0.988820 0.130602
vn -0.071963 -0.988820 0.130602
vn -0.071963 -0.988820 0.130602
vn -0.071963 -0.988820 0.130602
s off
g polySurface431 polySurface16
usemtl initialShadingGroup
f 26/1/1 6/2/2 13/3/3
f 27/4/4 29/5/5 17/6/6
f 25/7/7 5/8/8 35/9/9
f 17/10/10 10/11/11 27/12/12
f 6/13/13 16/14/14 32/15/15
f 28/16/16 29/17/17 8/18/18
f 18/19/19 9/20/20 13/21/21
f 27/22/22 10/23/23 22/24/24
f 12/25/25 8/26/26 19/27/27
f 3/28/28 8/29/29 12/30/30
f 21/31/31 10/32/32 17/33/33
f 20/34/34 15/35/35 21/36/36
f 32/37/37 16/38/38 19/39/39
f 12/40/40 31/41/41 3/42/42
f 11/43/43 4/44/44 12/45/45
f 6/46/46 8/47/47 13/48/48
f 14/49/49 30/50/50 8/51/51
f 14/52/52 2/53/53 30/54/54
f 5/55/55 2/56/56 14/57/57
f 22/58/58 10/59/59 33/60/60
f 33/61/61 10/62/62 21/63/63
f 33/64/64 1/65/65 16/66/66
f 16/67/67 1/68/68 19/69/69
f 17/70/70 29/71/71 28/72/72
f 17/73/73 3/74/74 34/75/75
f 30/76/76 2/77/77 18/78/78
f 19/79/79 1/80/80 11/81/81
f 11/82/82 24/83/83 19/84/84
f 20/85/85 1/86/86 33/87/87
f 21/88/88 7/89/89 20/90/90
f 21/91/91 17/92/92 34/93/93
f 22/94/94 33/95/95 16/96/96
f 35/97/97 16/98/98 6/99/99
f 13/100/100 8/101/101 30/102/102
f 13/103/103 23/104/104 18/105/105
f 12/106/106 24/107/107 11/108/108
f 19/109/109 24/110/110 12/111/111
f 6/112/112 25/113/113 35/114/114
f 13/115/115 9/116/116 26/117/117
f 35/118/118 5/119/119 27/120/120
f 27/121/121 5/122/122 14/123/123
f 28/124/124 3/125/125 17/126/126
f 3/127/127 28/128/128 8/129/129
f 8/130/130 29/131/131 14/132/132
f 14/133/133 29/134/134 27/135/135
f 30/136/136 23/137/137 13/138/138
f 18/139/139 23/140/140 30/141/141
f 12/142/142 4/143/143 31/144/144
f 32/145/145 8/146/146 6/147/147
f 19/148/148 8/149/149 32/150/150
f 21/151/151 15/152/152 33/153/153
f 33/154/154 15/155/155 20/156/156
f 34/157/157 7/158/158 21/159/159
f 22/160/160 35/161/161 27/162/162
f 22/163/163 16/164/164 35/165/165
f 3/42/166 31/144/167 4/44/168 11/81/169 1/86/170 20/90/171 7/158/172 34/75/173
f 6/2/174 26/117/175 9/20/176 18/78/177 2/56/178 5/8/179 25/113/180
