# This file uses centimeters as units for non-parametric coordinates.

mtllib ¶‘¾‚à‚à.mtl
g default
v -38.806360 12.663234 -16.044154
v -40.866782 3.562307 -12.567045
v -41.524305 12.642991 -15.922976
v -40.004731 12.941450 -14.189913
v -39.480511 3.341681 -13.967594
v -38.415600 3.355711 -12.749294
v -39.858124 12.380877 -17.551810
v -39.867439 8.566047 -13.196598
v -39.765755 3.638618 -11.213824
v -39.654905 8.203550 -15.537977
v -39.355322 12.721588 -15.043641
v -39.944623 10.772780 -13.675015
v -39.839017 6.051742 -12.227433
v -40.902144 5.926948 -13.367922
v -38.768874 10.465348 -15.333709
v -40.265752 3.580247 -11.852715
v -39.278569 12.557409 -16.824567
v -39.775347 10.312316 -16.589422
v -38.885653 3.370290 -13.435186
v -39.116233 3.463656 -11.959337
v -39.627314 5.829185 -14.741144
v -41.297940 10.535501 -15.045190
v -41.060137 8.400651 -14.331529
v -40.762559 12.699536 -15.072458
v -40.656446 12.588379 -16.765674
vt 0.171116 0.178867
vt 0.171116 0.178867
vt 0.134790 0.426713
vt 0.134790 0.426713
vt 0.157708 0.263915
vt 0.053446 0.236738
vt 0.141680 0.243252
vt 0.145768 0.328818
vt 0.145768 0.328818
vt 0.143128 0.411096
vt 0.128263 0.398642
vt 0.092123 0.434569
vt 0.126334 0.460297
vt 0.138646 0.338406
vt 0.138646 0.338406
vt 0.167597 0.228102
vt 0.167597 0.228102
vt 0.048699 0.397833
vt 0.167216 0.266875
vt 0.162112 0.103868
vt 0.162112 0.103868
vt 0.158184 0.277246
vt 0.128251 0.104090
vt 0.139664 0.341840
vt 0.123311 0.103503
vt 0.104795 0.372627
vt 0.104795 0.372627
vt 0.161046 0.253360
vt 0.161046 0.253360
vt 0.126909 0.439762
vt 0.126909 0.439762
vt 0.140160 0.361328
vt 0.140160 0.361328
vt 0.156485 0.284157
vt 0.156485 0.284157
vt 0.156485 0.284157
vt 0.081735 0.441468
vt 0.062376 0.263760
vt 0.131607 0.433138
vt 0.131607 0.433138
vt 0.157991 0.243403
vt 0.157991 0.243403
vt 0.157991 0.243403
vt 0.108268 0.341935
vt 0.133763 0.231456
vt 0.076923 0.334507
vt 0.072401 0.330241
vt 0.129963 0.267173
vt 0.123904 0.267183
vt 0.149536 0.277291
vt 0.149536 0.277291
vt 0.149536 0.277291
vt 0.146886 0.286460
vt 0.146886 0.286460
vn 0.738322 0.270508 0.617823
vn 0.716393 0.269249 0.643651
vn 0.877932 0.157041 0.452297
vn 0.867604 0.171148 0.466874
vn 0.804969 0.151418 0.573671
vn 0.804969 0.151418 0.573671
vn 0.760033 0.155393 0.631033
vn 0.721296 0.254998 0.643978
vn 0.756106 0.273757 0.594441
vn 0.756106 0.273757 0.594441
vn 0.806251 -0.167217 -0.567449
vn 0.812741 -0.160358 -0.560123
vn 0.655002 -0.232538 -0.718957
vn 0.521974 -0.222458 -0.823441
vn 0.642017 -0.238333 -0.728705
vn 0.763680 -0.258423 -0.591617
vn 0.787209 -0.239221 -0.568397
vn 0.787209 -0.239221 -0.568397
vn 0.852283 -0.183611 -0.489797
vn 0.786307 -0.178872 -0.591377
vn -0.746693 0.235619 0.622039
vn -0.767338 0.105240 0.632548
vn -0.769144 0.123882 0.626953
vn -0.769144 0.123882 0.626953
vn -0.740501 0.157052 0.653448
vn -0.625729 0.242753 0.741306
vn -0.691744 0.154822 0.705351
vn -0.687938 0.226296 0.689588
vn -0.701150 0.220681 0.678003
vn -0.748656 0.226696 0.622995
vn -0.777459 0.227500 0.586345
vn -0.777459 0.227500 0.586345
vn -0.719307 -0.242484 -0.650999
vn -0.709091 -0.232591 -0.665652
vn -0.709091 -0.232591 -0.665652
vn -0.710660 -0.295813 -0.638324
vn -0.686150 -0.299531 -0.662932
vn -0.752609 -0.324851 -0.572757
vn -0.669956 -0.323132 -0.668389
vn -0.705088 -0.325575 -0.629961
vn -0.705088 -0.325575 -0.629961
vn -0.588835 -0.393550 -0.705969
vn -0.611192 -0.254996 -0.749281
vn -0.005354 0.992621 -0.121142
vn -0.005354 0.992621 -0.121142
vn -0.005354 0.992621 -0.121142
vn -0.005354 0.992621 -0.121142
vn -0.005354 0.992621 -0.121142
vn -0.005354 0.992621 -0.121142
vn -0.005354 0.992621 -0.121142
vn -0.005354 0.992621 -0.121142
vn -0.075032 -0.993738 0.082798
vn -0.075032 -0.993738 0.082798
vn -0.075032 -0.993738 0.082798
vn -0.075032 -0.993738 0.082798
vn -0.075032 -0.993738 0.082798
vn -0.075032 -0.993738 0.082798
vn -0.075032 -0.993738 0.082798
s off
g polySurface498 polySurface18
usemtl initialShadingGroup
f 20/1/1 6/6/2 15/24/3 1/30/4 11/16/5 4/17/6 12/11/7 8/18/8 13/41/9 9/42/10
f 15/37/11 6/39/12 19/3/13 5/44/14 21/10/15 10/22/16 18/34/17 7/35/18 17/32/19 1/23/20
f 13/38/21 8/12/22 12/50/23 4/51/24 24/14/25 3/47/26 22/7/27 23/48/28 14/19/29 2/28/30 16/8/31 9/9/32
f 21/45/33 5/20/34 2/21/35 14/49/36 23/25/37 22/46/38 3/26/39 25/53/40 7/54/41 18/13/42 10/5/43
f 3/15/44 24/52/45 4/17/46 11/31/47 1/33/48 17/36/49 7/54/50 25/27/51
f 6/2/52 20/43/53 9/9/54 16/29/55 2/21/56 5/4/57 19/40/58
g default
v -34.165667 31.765585 -15.018660
v -35.116823 30.679080 -22.341877
v -35.520315 20.661233 -19.109546
v -43.513365 14.773648 -16.285786
v -40.698317 16.010653 -20.250191
v -45.460646 16.922859 -15.944143
v -34.977690 21.142040 -15.822634
v -44.147184 18.426433 -11.439168
v -42.595945 17.828312 -21.229865
v -40.993250 29.842816 -28.593279
v -36.018515 31.569772 -8.982750
v -36.763121 22.854119 -9.146424
v -37.799486 30.127637 -7.659464
v -41.091375 15.995239 -11.259971
v -39.914396 20.198042 -8.731775
v -36.256063 17.115902 -12.566253
v -39.913229 12.828834 -16.176264
v -41.930098 12.503345 -16.176128
v -39.574400 13.004964 -13.663624
v -34.627920 21.669543 -12.454068
v -39.808622 28.534441 -6.041941
v -41.932096 20.867536 -8.572768
v -47.153025 26.036716 -6.271288
v -35.949957 18.520595 -14.299063
v -36.839880 16.639791 -17.900918
v -39.147108 12.389157 -17.465536
v -38.140379 12.449431 -16.674037
v -35.520315 20.661242 -19.109543
v -43.957228 17.587469 -18.274124
v -42.727186 13.632253 -16.159769
v -40.188124 12.317735 -18.241313
v -47.481989 24.077024 -15.926951
v -47.353197 24.054230 -19.619060
v -41.091375 15.995239 -11.259971
v -47.572020 27.453391 -27.068122
v -44.690096 43.511311 -18.288366
v -42.204855 42.397584 -19.340809
v -42.973532 42.810607 -15.276525
v -46.787474 42.043777 -15.200469
v -46.963747 41.329670 -20.344298
v -44.622946 41.604289 -21.704166
v -37.093599 35.075795 -10.037010
v -47.412695 29.984801 -6.160756
v -48.155386 30.123230 -25.946487
v -41.866957 32.349337 -27.697362
v -36.105097 33.845671 -21.864671
v -38.653444 38.481600 -10.915985
v -48.072676 36.318833 -8.276984
v -48.787348 35.820195 -24.227096
v -43.117144 36.826697 -26.170840
v -38.775045 38.520472 -20.678026
v -41.186464 33.127075 -7.845636
v -42.641367 37.603791 -9.026223
v -44.568468 42.419434 -14.828502
v -49.226099 30.219427 -15.875279
v -49.422815 36.204343 -16.308405
v -47.460989 41.715752 -17.363380
v -35.544382 35.634314 -14.648731
v -37.618792 38.883516 -14.826971
v -41.943178 42.861581 -16.460249
vt 0.667478 0.444204
vt 0.667748 0.442612
vt 0.667478 0.444204
vt 0.772676 0.458160
vt 0.772676 0.458160
vt 0.772676 0.458160
vt 0.702306 0.665505
vt 0.702576 0.663914
vt 0.702576 0.663914
vt 0.715363 0.902977
vt 0.715363 0.902977
vt 0.715363 0.902977
vt 0.687799 0.218040
vt 0.687799 0.218040
vt 0.687799 0.218040
vt 0.784134 0.397887
vt 0.784134 0.397887
vt 0.784134 0.397887
vt 0.724923 0.807238
vt 0.724923 0.807238
vt 0.724923 0.807238
vt 0.787870 0.424933
vt 0.787870 0.424933
vt 0.787870 0.424933
vt 0.762658 0.237650
vt 0.762658 0.237650
vt 0.762388 0.239242
vt 0.698827 0.534303
vt 0.698827 0.534303
vt 0.698827 0.534303
vt 0.763608 0.887227
vt 0.763608 0.887227
vt 0.763608 0.887227
vt 0.755954 0.077015
vt 0.755954 0.077015
vt 0.755954 0.077015
vt 0.770759 0.368795
vt 0.770759 0.368795
vt 0.770759 0.368795
vt 0.744899 0.423084
vt 0.744899 0.423084
vt 0.744899 0.423084
vt 0.792118 0.156415
vt 0.792118 0.156415
vt 0.792118 0.156415
vt 0.721253 0.751640
vt 0.721253 0.751640
vt 0.721253 0.751640
vt 0.683365 0.965817
vt 0.683365 0.965817
vt 0.683365 0.965817
vt 0.752808 0.127597
vt 0.752808 0.127597
vt 0.752808 0.127597
vt 0.650349 0.712423
vt 0.650349 0.712423
vt 0.650349 0.712423
vt 0.791448 0.270972
vt 0.791448 0.270972
vt 0.791448 0.270972
vt 0.733631 0.648043
vt 0.733631 0.648043
vt 0.733631 0.648043
vt 0.759184 0.335924
vt 0.759184 0.335924
vt 0.759184 0.335924
vt 0.724885 0.467656
vt 0.724885 0.467656
vt 0.724885 0.467656
vt 0.774821 0.307177
vt 0.774821 0.307177
vt 0.774821 0.307177
vt 0.758510 0.241686
vt 0.758510 0.241686
vt 0.758510 0.241686
vt 0.743782 0.366218
vt 0.743782 0.366218
vt 0.743782 0.366218
vt 0.699660 0.913001
vt 0.699660 0.913001
vt 0.699660 0.913001
vt 0.690940 0.376081
vt 0.691287 0.377884
vt 0.690940 0.376081
vt 0.744445 0.689324
vt 0.744445 0.689324
vt 0.744445 0.689324
vt 0.705675 0.869194
vt 0.705675 0.869194
vt 0.705675 0.869194
vt 0.732417 0.898950
vt 0.732417 0.898950
vt 0.732417 0.898950
vt 0.681877 0.879161
vt 0.681877 0.879161
vt 0.681877 0.879161
vt 0.741572 0.638819
vt 0.741572 0.638819
vt 0.741572 0.638819
vt 0.786573 0.150039
vt 0.786573 0.150039
vt 0.786573 0.150039
vt 0.738867 0.278219
vt 0.739137 0.276628
vt 0.739137 0.276628
vt 0.707310 0.959001
vt 0.707310 0.959001
vt 0.707580 0.957409
vt 0.776215 0.570110
vt 0.776215 0.570110
vt 0.776215 0.570110
vt 0.784367 0.714529
vt 0.784367 0.714529
vt 0.784367 0.714529
vt 0.791356 0.023851
vt 0.791356 0.023851
vt 0.791356 0.023851
vt 0.718516 0.485707
vt 0.718516 0.485707
vt 0.718516 0.485707
vt 0.780529 0.364849
vt 0.780529 0.364849
vt 0.780529 0.364849
vt 0.771964 0.243621
vt 0.771964 0.243621
vt 0.771964 0.243621
vt 0.695042 0.725633
vt 0.695042 0.725633
vt 0.695042 0.725633
vt 0.782133 0.534325
vt 0.782133 0.534325
vt 0.782133 0.534325
vt 0.670534 0.910814
vt 0.670534 0.910814
vt 0.670534 0.910814
vt 0.667827 0.882078
vt 0.667827 0.882078
vt 0.667827 0.882078
vt 0.711441 0.828333
vt 0.711441 0.828333
vt 0.711441 0.828333
vt 0.721958 0.975880
vt 0.721958 0.975880
vt 0.721958 0.975880
vt 0.776497 0.483387
vt 0.776497 0.483387
vt 0.776497 0.483387
vt 0.795803 0.506811
vt 0.795803 0.506811
vt 0.795803 0.506811
vt 0.749574 0.676297
vt 0.749574 0.676297
vt 0.749574 0.676297
vt 0.723178 0.907845
vt 0.723178 0.907845
vt 0.723178 0.907845
vt 0.763607 0.668143
vt 0.763607 0.668143
vt 0.763607 0.668143
vt 0.697292 0.902353
vt 0.697292 0.902353
vt 0.697292 0.902353
vt 0.701463 0.686477
vt 0.706396 0.803105
vt 0.671981 0.843428
vt 0.702763 0.902660
vt 0.725579 0.621595
vt 0.750823 0.310632
vt 0.729506 0.411582
vt 0.696456 0.568091
vt 0.701021 0.617748
vt 0.697741 0.685379
vt 0.686831 0.705257
vt 0.688403 0.682854
vt 0.695940 0.643963
vt 0.692902 0.735620
vt 0.690669 0.709432
vt 0.679748 0.771152
vt 0.693043 0.782237
vt 0.716165 0.504134
vt 0.693466 0.610698
vt 0.697511 0.695953
vt 0.701413 0.778182
vt 0.674722 0.817922
vt 0.696427 0.824158
vt 0.712997 0.633824
vt 0.729903 0.439644
vn 0.962440 -0.259823 -0.078745
vn 0.962440 -0.259823 -0.078745
vn 0.962440 -0.259823 -0.078745
vn -0.608022 -0.494786 -0.620884
vn -0.608022 -0.494786 -0.620884
vn -0.608022 -0.494786 -0.620884
vn 0.970366 -0.203405 -0.130445
vn 0.970366 -0.203405 -0.130445
vn 0.970366 -0.203405 -0.130445
vn -0.671242 -0.621930 0.403282
vn -0.671242 -0.621930 0.403282
vn -0.671242 -0.621930 0.403282
vn 0.506081 -0.715807 -0.481148
vn 0.506081 -0.715807 -0.481148
vn 0.506081 -0.715807 -0.481148
vn 0.704339 -0.259560 0.660708
vn 0.704339 -0.259560 0.660708
vn 0.704339 -0.259560 0.660708
vn 0.334100 -0.543275 0.770214
vn 0.334100 -0.543275 0.770214
vn 0.334100 -0.543275 0.770214
vn 0.193212 -0.980229 0.042657
vn 0.193212 -0.980229 0.042657
vn 0.193212 -0.980229 0.042657
vn 0.969189 -0.096241 0.226738
vn 0.969189 -0.096241 0.226738
vn 0.969189 -0.096241 0.226738
vn 0.249919 -0.764042 0.594795
vn 0.249919 -0.764042 0.594795
vn 0.249919 -0.764042 0.594795
vn -0.410070 -0.329785 0.850344
vn -0.410070 -0.329785 0.850344
vn -0.410070 -0.329785 0.850344
vn 0.542313 -0.585208 0.602849
vn 0.542313 -0.585208 0.602849
vn 0.542313 -0.585208 0.602849
vn -0.124453 -0.568255 0.813386
vn -0.124453 -0.568255 0.813386
vn -0.124453 -0.568255 0.813386
vn 0.612616 -0.238569 0.753516
vn 0.612616 -0.238569 0.753516
vn 0.612616 -0.238569 0.753516
vn 0.942517 -0.325646 -0.074944
vn 0.942517 -0.325646 -0.074944
vn 0.942517 -0.325646 -0.074944
vn -0.450696 -0.686909 0.570114
vn -0.450696 -0.686909 0.570114
vn -0.450696 -0.686909 0.570114
vn 0.310798 -0.494704 0.811586
vn 0.310798 -0.494704 0.811586
vn 0.310798 -0.494705 0.811586
vn 0.572178 -0.403548 -0.713976
vn 0.572178 -0.403548 -0.713976
vn 0.572178 -0.403548 -0.713976
vn 0.440515 -0.274780 -0.854659
vn 0.440515 -0.274780 -0.854659
vn 0.440515 -0.274780 -0.854659
vn -0.595075 -0.554834 -0.581416
vn -0.595075 -0.554834 -0.581416
vn -0.595075 -0.554834 -0.581416
vn -0.685054 -0.527346 -0.502601
vn -0.685054 -0.527346 -0.502601
vn -0.685054 -0.527346 -0.502601
vn 0.943575 -0.312324 -0.110089
vn 0.943575 -0.312324 -0.110089
vn 0.943575 -0.312324 -0.110089
vn -0.065939 -0.989943 -0.125161
vn -0.065939 -0.989943 -0.125161
vn -0.065939 -0.989943 -0.125161
vn 0.572809 -0.330087 -0.750288
vn 0.572809 -0.330087 -0.750288
vn 0.572809 -0.330087 -0.750288
vn 0.719566 -0.360407 0.593575
vn 0.719566 -0.360407 0.593575
vn 0.719566 -0.360407 0.593575
vn 0.577327 -0.575820 0.578900
vn 0.577327 -0.575820 0.578900
vn 0.577326 -0.575820 0.578900
vn 0.708313 -0.330405 0.623799
vn 0.708313 -0.330405 0.623799
vn 0.708313 -0.330405 0.623799
vn -0.115733 -0.982417 -0.146504
vn -0.115733 -0.982417 -0.146504
vn -0.115733 -0.982417 -0.146504
vn 0.642944 -0.562014 -0.520348
vn 0.642944 -0.562014 -0.520348
vn 0.642944 -0.562014 -0.520348
vn 0.575340 -0.348501 -0.739954
vn 0.575339 -0.348501 -0.739954
vn 0.575340 -0.348501 -0.739954
vn -0.666515 -0.384711 -0.638557
vn -0.666515 -0.384711 -0.638557
vn -0.666515 -0.384711 -0.638557
vn 0.952738 -0.287989 -0.096708
vn 0.952738 -0.287989 -0.096708
vn 0.952738 -0.287989 -0.096708
vn 0.037516 -0.916206 0.398949
vn 0.037516 -0.916206 0.398949
vn 0.037516 -0.916206 0.398949
vn 0.932045 -0.360084 -0.040387
vn 0.932045 -0.360084 -0.040387
vn 0.932045 -0.360084 -0.040387
vn 0.967254 -0.246151 -0.061884
vn 0.967254 -0.246151 -0.061884
vn 0.967254 -0.246151 -0.061884
vn 0.650359 -0.532077 -0.542150
vn 0.650359 -0.532077 -0.542150
vn 0.650359 -0.532077 -0.542150
vn 0.156056 -0.966907 0.201836
vn 0.156056 -0.966907 0.201836
vn 0.156056 -0.966907 0.201836
vn -0.165836 -0.957452 0.236185
vn -0.165836 -0.957452 0.236185
vn -0.165836 -0.957452 0.236185
vn -0.681677 -0.392891 -0.617215
vn -0.681677 -0.392891 -0.617214
vn -0.681677 -0.392891 -0.617214
vn -0.614393 -0.664916 0.424745
vn -0.614393 -0.664916 0.424745
vn -0.614393 -0.664916 0.424745
vn -0.757803 -0.472256 0.450232
vn -0.757803 -0.472256 0.450232
vn -0.757803 -0.472256 0.450232
vn 0.954283 -0.291189 -0.067475
vn 0.954283 -0.291189 -0.067475
vn 0.954283 -0.291189 -0.067475
vn 0.628391 -0.629302 0.457279
vn 0.628391 -0.629302 0.457279
vn 0.628391 -0.629302 0.457279
vn -0.107105 -0.684164 0.721421
vn -0.107105 -0.684164 0.721421
vn -0.107105 -0.684164 0.721421
vn 0.219639 -0.802613 0.554591
vn 0.219639 -0.802613 0.554591
vn 0.219639 -0.802613 0.554591
vn 0.110908 -0.800346 -0.589191
vn 0.110908 -0.800346 -0.589191
vn 0.110908 -0.800346 -0.589191
vn -0.013648 -0.868685 -0.495177
vn -0.013648 -0.868685 -0.495177
vn -0.013648 -0.868685 -0.495177
vn -0.280298 -0.893841 0.349974
vn -0.280298 -0.893841 0.349974
vn -0.280298 -0.893841 0.349974
vn -0.212002 -0.972468 0.096755
vn -0.212002 -0.972468 0.096755
vn -0.212002 -0.972468 0.096755
vn -0.676461 -0.469399 -0.567508
vn -0.676461 -0.469399 -0.567508
vn -0.676461 -0.469399 -0.567508
vn -0.717406 -0.513361 0.470946
vn -0.717406 -0.513361 0.470946
vn -0.717406 -0.513361 0.470946
vn -0.683167 -0.538499 -0.493256
vn -0.683167 -0.538499 -0.493256
vn -0.683167 -0.538499 -0.493256
vn 0.954765 -0.288367 -0.072589
vn 0.954765 -0.288367 -0.072589
vn 0.954765 -0.288367 -0.072589
vn -0.525260 -0.656304 -0.541633
vn -0.525260 -0.656304 -0.541633
vn -0.525260 -0.656304 -0.541633
vn -0.969649 -0.232102 -0.076876
vn -0.976088 -0.217069 0.011545
vn -0.991086 -0.128345 0.035729
vn -0.912745 -0.045102 -0.406033
vn -0.933577 -0.122076 -0.336944
vn 0.193265 0.384677 -0.902592
vn 0.234615 0.371114 -0.898460
vn 0.807986 0.370198 -0.458379
vn 0.774907 0.435199 -0.458390
vn 0.593050 0.398665 0.699542
vn 0.940507 0.338865 0.024848
vn 0.897380 0.440589 0.024288
vn 0.645541 0.413712 0.641964
vn -0.853199 -0.091440 0.513507
vn 0.116828 0.264103 0.957393
vn 0.162191 0.311209 0.936399
vn -0.749775 0.039898 0.660489
vn 0.264083 0.829146 0.492725
vn 0.626055 0.779535 0.019502
vn -0.155557 0.969193 -0.190963
vn -0.643009 0.648346 0.407661
vn -0.057280 0.787997 0.613009
vn -0.759456 0.522383 -0.387741
vn -0.906591 0.421873 0.010767
vn 0.028193 0.706874 -0.706778
vn 0.559520 0.722159 -0.406723
vn 0.069054 0.558891 0.826361
vn -0.728883 0.311337 0.609753
vn -0.993055 0.110587 0.040144
vn -0.854579 0.211038 -0.474508
vn 0.129805 0.506968 -0.852135
vn 0.673660 0.586249 -0.449993
vn 0.770621 0.637118 0.014961
vn 0.464198 0.634480 0.618025
vn 0.314864 0.393164 0.863877
s off
g polySurface500 polySurface494 polySurface492
usemtl initialShadingGroup
f 26/55/59 28/56/60 27/57/61
f 29/58/62 31/59/63 30/60/64
f 26/61/65 32/62/66 28/63/67
f 33/64/68 31/65/69 29/66/70
f 34/67/71 35/68/72 28/69/73
f 36/70/74 38/71/75 37/72/76
f 39/73/77 41/74/78 40/75/79
f 42/76/80 44/77/81 43/78/82
f 36/79/83 45/80/84 26/81/85
f 46/82/86 48/83/87 47/84/88
f 39/85/89 40/86/90 33/87/91
f 46/88/92 40/89/93 37/90/94
f 47/91/95 40/92/96 46/93/97
f 41/94/98 45/95/99 40/96/100
f 49/97/101 45/98/102 41/99/103
f 43/100/104 44/101/105 39/102/106
f 39/103/107 44/104/108 41/105/109
f 50/106/110 52/107/111 51/108/112
f 30/109/113 34/110/114 53/111/115
f 30/112/116 31/113/117 54/114/118
f 55/115/119 29/116/120 56/117/121
f 50/118/122 28/119/123 32/120/124
f 34/121/125 54/122/126 57/123/127
f 50/124/128 51/125/129 30/126/130
f 37/127/131 45/128/132 36/129/133
f 40/130/134 45/131/135 37/132/136
f 38/133/137 46/134/138 37/135/139
f 57/136/140 58/137/141 34/138/142
f 30/139/143 28/140/144 50/141/145
f 51/142/146 56/143/147 30/144/148
f 54/145/149 34/146/150 30/147/151
f 49/148/152 52/149/153 50/150/154
f 57/151/155 31/152/156 48/153/157
f 32/154/158 45/155/159 49/156/160
f 26/157/161 45/158/162 32/159/163
f 35/160/164 27/161/165 28/162/166
f 51/163/167 42/164/168 43/165/169
f 52/166/170 42/167/171 51/168/172
f 30/169/173 56/170/174 29/171/175
f 39/172/176 33/173/177 29/174/178
f 59/175/179 29/176/180 55/177/181
f 49/178/182 41/179/183 52/180/184
f 52/181/185 41/182/186 44/183/187
f 33/184/188 40/185/189 47/186/190
f 33/187/191 47/188/192 48/189/193
f 34/190/194 60/191/195 35/192/196
f 58/193/197 60/194/198 34/195/199
f 48/196/200 31/197/201 33/198/202
f 52/199/203 44/200/204 42/201/205
f 51/202/206 43/203/207 55/204/208
f 43/205/209 39/206/210 55/207/211
f 51/208/212 55/209/213 56/210/214
f 50/211/215 32/212/216 49/213/217
f 54/214/218 31/215/219 57/216/220
s 1
f 58/137/221 57/151/222 80/217/223 69/218/224 60/194/225
f 69/218/224 70/219/226 35/192/227 60/194/225
f 27/161/228 35/192/227 70/219/226 71/220/229
f 36/79/230 26/55/231 83/221/232 67/222/233
f 48/83/234 46/134/235 77/223/236 68/224/237
f 63/225/238 85/226/239 61/227/240
f 64/228/241 79/229/242 61/227/240
f 65/230/243 82/231/244 61/227/240
f 61/227/240 66/232/245 65/230/243
f 62/233/246 66/232/245 61/227/240
f 68/224/237 77/223/236 78/234/247 73/235/248
f 69/218/224 80/217/223 81/236/249 74/237/250
f 74/237/250 75/238/251 70/219/226 69/218/224
f 71/220/229 70/219/226 75/238/251 76/239/252
f 67/222/233 83/221/232 84/240/253 72/241/254
f 73/235/248 78/234/247 79/229/242 64/228/241
f 74/237/250 81/236/249 82/231/244 65/230/243
f 65/230/243 66/232/245 75/238/251 74/237/250
f 76/239/252 75/238/251 66/232/245 62/233/246
f 72/241/254 84/240/253 85/226/239 63/225/238
f 77/223/236 46/134/235 38/71/255 36/79/230 67/222/233
f 78/234/247 77/223/236 67/222/233 72/241/254
f 79/229/242 78/234/247 72/241/254 63/225/238
f 61/227/240 79/229/242 63/225/238
f 80/217/223 57/151/222 48/83/234 68/224/237
f 81/236/249 80/217/223 68/224/237 73/235/248
f 82/231/244 81/236/249 73/235/248 64/228/241
f 61/227/240 82/231/244 64/228/241
f 83/221/232 26/55/231 27/161/228 71/220/229
f 84/240/253 83/221/232 71/220/229 76/239/252
f 85/226/239 84/240/253 76/239/252 62/233/246
f 61/227/240 85/226/239 62/233/246
