# This file uses centimeters as units for non-parametric coordinates.

mtllib ¶—ƒ.mtl
g default
v -1.992286 13.415463 -18.955012
v -3.588909 12.648444 -18.681666
v -0.405641 7.151173 -11.220713
v -0.369547 1.864360 -3.270654
v 0.588374 0.174238 -0.166076
v 1.501132 2.307354 -3.161079
v 2.468086 8.554289 -11.078524
v -2.063536 18.061322 -11.175121
v -2.681483 17.218358 -11.334123
v -0.667150 11.502164 -4.443883
v -0.956041 6.633927 2.572375
v -0.110633 4.720264 5.742149
v 1.598540 7.900412 3.023997
v 1.054231 15.870639 -3.892094
v -2.458027 19.294277 0.865376
v -3.780295 18.766884 0.740082
v -2.641713 15.458167 4.402671
v -3.726709 13.473158 7.474883
v -3.064151 12.349090 9.162562
v -2.579238 13.877406 7.629779
v -1.117618 16.285856 4.384077
v -2.180690 18.427467 -7.599494
v -2.370572 19.020931 -1.804032
v -2.490336 17.007117 -14.341506
v 2.955153 12.140216 -6.320297
v 0.920077 15.156697 0.359785
v -3.929136 16.037542 -14.265193
v -0.316175 13.969203 -12.886079
vt 0.742244 0.616118
vt 0.708127 0.616118
vt 0.776362 0.616118
vt 0.810479 0.616118
vt 0.844596 0.616118
vt 0.878713 0.616118
vt 0.912830 0.616118
vt 0.742244 0.741118
vt 0.708127 0.741118
vt 0.708127 0.693551
vt 0.776362 0.741118
vt 0.810479 0.741118
vt 0.844596 0.741118
vt 0.878713 0.705562
vt 0.878713 0.741118
vt 0.912830 0.694441
vt 0.912830 0.741118
vt 0.742244 0.866118
vt 0.708127 0.866118
vt 0.776362 0.866118
vt 0.810479 0.866118
vt 0.844596 0.866118
vt 0.878713 0.807178
vt 0.912830 0.778239
vt 0.912830 0.838405
vt 0.912830 0.866118
vt 0.878713 0.866118
vt 0.899987 0.664956
vn -0.947801 -0.247190 0.201419
vn -0.947801 -0.247190 0.201419
vn -0.947801 -0.247190 0.201419
vn -0.947801 -0.247190 0.201419
vn -0.947801 -0.247190 0.201419
vn -0.998508 -0.035847 -0.041189
vn -0.998508 -0.035847 -0.041189
vn -0.998508 -0.035847 -0.041189
vn -0.998508 -0.035847 -0.041189
vn -0.953976 -0.276894 0.115146
vn -0.953976 -0.276894 0.115146
vn -0.953976 -0.276894 0.115146
vn -0.953976 -0.276894 0.115146
vn 0.947900 -0.219329 0.231041
vn 0.947900 -0.219329 0.231041
vn 0.947900 -0.219329 0.231041
vn 0.947900 -0.219329 0.231041
vn 0.989895 -0.124668 0.067575
vn 0.992388 0.009549 0.122776
vn 0.991178 -0.036079 0.127530
vn 0.819368 0.522285 -0.236335
vn 0.850546 0.457690 -0.259019
vn 0.877855 0.406278 -0.253593
vn -0.928241 -0.369927 -0.039031
vn -0.928241 -0.369927 -0.039031
vn -0.928241 -0.369927 -0.039031
vn -0.928241 -0.369927 -0.039031
vn -0.964622 -0.137630 -0.224860
vn -0.964622 -0.137630 -0.224860
vn -0.964622 -0.137630 -0.224860
vn -0.964622 -0.137630 -0.224860
vn -0.920384 -0.388682 0.042656
vn -0.920384 -0.388682 0.042656
vn -0.920384 -0.388682 0.042656
vn -0.920384 -0.388682 0.042656
vn 0.828285 0.110039 0.549396
vn 0.828285 0.110039 0.549396
vn 0.828285 0.110039 0.549396
vn 0.828285 0.110039 0.549396
vn 0.887522 0.229648 0.399458
vn 0.944052 0.180498 0.276019
vn 0.861417 0.226661 0.454517
vn 0.725430 0.685341 0.063711
vn 0.657445 0.751462 -0.055409
vn 0.738559 0.668070 0.090622
vn -0.591262 0.797774 -0.118173
vn -0.559392 0.818791 -0.129083
vn -0.559392 0.818791 -0.129083
vn -0.559392 0.818791 -0.129083
vn -0.559392 0.818791 -0.129083
vn -0.574352 0.809159 -0.124024
vn -0.367512 0.740705 0.562398
vn -0.355092 0.705384 0.613468
vn -0.333966 0.647565 0.684928
vn -0.333966 0.647565 0.684928
vn 0.657444 0.751463 -0.055408
vn 0.753966 0.644978 0.124657
vn 0.753966 0.644978 0.124657
vn 0.753966 0.644978 0.124657
vn 0.875558 0.366511 -0.314749
vn 0.871575 0.404110 -0.277583
vn 0.850418 0.454410 -0.265144
vn 0.834514 0.485108 -0.261259
vn 0.989550 -0.144006 0.007231
vn 0.917814 0.294098 0.266690
vn 0.992546 0.111154 0.049981
vn 0.896559 0.049116 0.440192
vn -0.456415 0.682943 -0.570328
vn -0.456415 0.682943 -0.570328
vn -0.507361 0.711646 -0.485948
vn -0.546061 0.729977 -0.411035
vn -0.388348 0.803781 0.450691
vn -0.388348 0.803781 0.450691
vn -0.388348 0.803781 0.450691
vn 0.320005 -0.744708 -0.585667
vn 0.320005 -0.744709 -0.585667
vn 0.320005 -0.744708 -0.585667
vn 0.320005 -0.744709 -0.585667
vn 0.320005 -0.744708 -0.585667
vn 0.320005 -0.744708 -0.585667
vn 0.320005 -0.744708 -0.585667
s off
g polySurface74 polySurface71 polySurface70 pSphere3
usemtl initialShadingGroup
f 2/2/1 3/1/2 10/8/3 9/9/4 27/10/5
f 3/1/6 4/3/7 11/11/8 10/8/9
f 4/3/10 5/4/11 12/12/12 11/11/13
f 5/4/14 6/5/15 13/13/16 12/12/17
s 1
f 6/5/18 25/14/19 13/13/20
s 2
f 14/15/21 24/16/22 8/17/23
s off
f 9/9/24 10/8/25 17/18/26 16/19/27
f 10/8/28 11/11/29 18/20/30 17/18/31
f 11/11/32 12/12/33 19/21/34 18/20/35
f 12/12/36 13/13/37 20/22/38 19/21/39
s 3
f 13/13/40 26/23/41 20/22/42
s 4
f 14/15/43 22/24/44 23/25/45
s 5
f 9/9/46 16/19/47 15/26/48 23/25/49 22/24/50 8/17/51
s 6
f 17/18/52 21/27/53 15/26/54 16/19/55
s 4
f 14/15/43 8/17/56 22/24/44
f 14/15/43 23/25/45 15/26/57 21/27/58 26/23/59
s 2
f 7/6/60 1/7/61 24/16/22 28/28/62
f 7/6/60 28/28/62 25/14/63
s 1
f 6/5/18 7/6/64 25/14/19
f 13/13/20 25/14/19 14/15/65
s 3
f 13/13/40 14/15/66 26/23/41
f 20/22/42 26/23/41 21/27/67
s 2
f 25/14/63 28/28/62 24/16/22 14/15/21
s 5
f 1/7/68 2/2/69 27/10/70 24/16/71
f 27/10/70 9/9/46 8/17/51 24/16/71
s 6
f 17/18/52 18/20/72 19/21/73 20/22/74 21/27/53
s off
f 3/1/75 2/2/76 1/7/77 7/6/78 6/5/79 5/4/80 4/3/81
