# This file uses centimeters as units for non-parametric coordinates.

mtllib ¶—ƒ2.mtl
g default
v -4.971601 5.108321 -11.338943
v -5.600257 5.063282 -11.070326
v -3.268392 3.169568 -8.609402
v -2.445809 0.757074 -5.451627
v -2.025016 -0.181521 -4.228602
v -1.853013 0.724192 -5.516656
v -1.500271 2.984500 -9.411323
v -4.155145 9.371580 -11.199327
v -5.062702 9.029976 -11.035325
v -1.606807 5.856930 -5.171284
v -0.642297 1.526645 0.699874
v 0.387619 -0.176136 2.966729
v 1.317695 1.099380 0.415932
v 0.513595 6.044063 -5.924399
v -2.975337 14.421388 -6.201540
v -4.277211 14.080059 -5.626189
v -0.974205 9.468028 0.484572
v -0.125522 4.116766 7.976046
v 0.894929 1.442651 11.151460
v 2.718409 5.027971 10.816842
v 2.495242 10.505872 -1.583074
v -3.443876 19.620543 -0.177868
v -5.040499 18.853524 0.095479
v -1.857232 13.356253 7.556431
v -1.821137 8.069440 15.506491
v -0.863217 6.379317 18.611069
v 0.049542 8.512433 15.616066
v 1.016495 14.759369 7.698620
v -3.128804 2.306859 -10.034055
v -4.204146 4.092513 -11.508145
v -3.052353 17.954145 -3.459634
v -3.357788 12.887803 -8.275516
v -4.032636 7.776332 -11.125213
v 2.216346 3.510688 -2.135441
v 2.216304 4.692827 6.691839
v 2.781743 7.985155 2.039505
v 2.276777 2.703703 5.066041
v 1.558163 12.303876 5.572933
v -4.945930 16.879685 -3.255209
v -4.566028 11.931364 -7.853831
vt 0.708127 0.241118
vt 0.742244 0.241118
vt 0.742244 0.366118
vt 0.708127 0.366118
vt 0.776362 0.241118
vt 0.776362 0.366118
vt 0.810479 0.241118
vt 0.810479 0.366118
vt 0.844596 0.241118
vt 0.844596 0.366118
vt 0.869960 0.366118
vt 0.878713 0.366118
vt 0.912830 0.310530
vt 0.912830 0.366118
vt 0.742244 0.491118
vt 0.708127 0.491118
vt 0.708127 0.429586
vt 0.776362 0.491118
vt 0.810479 0.491118
vt 0.844596 0.444545
vt 0.844596 0.491118
vt 0.870829 0.491118
vt 0.878713 0.491118
vt 0.912830 0.440736
vt 0.912830 0.491118
vt 0.742244 0.616118
vt 0.708127 0.616118
vt 0.708127 0.552973
vt 0.776362 0.616118
vt 0.810479 0.616118
vt 0.844596 0.616118
vt 0.849693 0.491118
vt 0.878713 0.591024
vt 0.878713 0.616118
vt 0.912830 0.559355
vt 0.912830 0.616118
vt 0.666716 0.187672
vt 0.639893 0.241118
vt 0.656951 0.116118
vt 0.681304 0.187672
vt 0.691069 0.116118
vt 0.725186 0.116118
vt 0.759303 0.116118
vt 0.793420 0.116118
vt 0.827537 0.116118
vt 0.878713 0.241118
vt 0.861655 0.116118
vt 0.912830 0.241118
vt 0.895772 0.116118
vt 0.791453 0.310530
vn -0.826651 -0.020316 0.562348
vn -0.826651 -0.020316 0.562348
vn -0.826651 -0.020316 0.562348
vn -0.826651 -0.020316 0.562348
vn -0.946295 0.139650 0.291589
vn -0.946295 0.139650 0.291589
vn -0.946295 0.139650 0.291589
vn -0.946295 0.139650 0.291589
vn -0.945195 -0.115751 0.305300
vn -0.945195 -0.115751 0.305300
vn -0.945195 -0.115751 0.305300
vn -0.945195 -0.115751 0.305300
vn 0.623094 -0.743292 -0.243456
vn 0.623094 -0.743292 -0.243456
vn 0.623094 -0.743292 -0.243456
vn 0.623094 -0.743292 -0.243456
vn 0.815644 -0.428705 -0.388507
vn 0.788308 -0.487022 -0.376006
vn 0.706658 -0.621395 -0.338381
vn 0.769463 0.176704 -0.613761
vn 0.711103 0.071936 -0.699398
vn 0.757180 0.027830 -0.652613
vn -0.903206 -0.274291 0.330127
vn -0.903206 -0.274291 0.330127
vn -0.903206 -0.274291 0.330127
vn -0.903206 -0.274291 0.330127
vn -0.903206 -0.274291 0.330127
vn -0.993527 -0.038627 0.106827
vn -0.993527 -0.038627 0.106827
vn -0.993527 -0.038627 0.106827
vn -0.993527 -0.038627 0.106827
vn -0.951664 -0.274511 0.137765
vn -0.951664 -0.274511 0.137765
vn -0.951664 -0.274511 0.137765
vn -0.951664 -0.274511 0.137765
vn 0.848903 -0.523288 0.074387
vn 0.848903 -0.523288 0.074387
vn 0.848903 -0.523288 0.074387
vn 0.848903 -0.523288 0.074387
vn 0.848903 -0.523288 0.074387
vn 0.981846 -0.105592 -0.157570
vn 0.984238 -0.090516 -0.151929
vn 0.989827 -0.119631 -0.077012
vn 0.770972 0.255913 -0.583189
vn 0.780549 0.296266 -0.550428
vn 0.741266 0.467062 -0.482057
vn -0.909662 -0.388152 0.147828
vn -0.909662 -0.388152 0.147828
vn -0.909662 -0.388152 0.147828
vn -0.909662 -0.388152 0.147828
vn -0.909662 -0.388152 0.147828
vn -0.979687 -0.186916 -0.072637
vn -0.979687 -0.186916 -0.072637
vn -0.979687 -0.186916 -0.072637
vn -0.979687 -0.186916 -0.072637
vn -0.920665 -0.389888 0.019085
vn -0.920665 -0.389888 0.019085
vn -0.920665 -0.389888 0.019085
vn -0.920665 -0.389888 0.019085
vn 0.884056 -0.169377 0.435610
vn 0.884056 -0.169377 0.435610
vn 0.884056 -0.169377 0.435610
vn 0.884056 -0.169377 0.435610
vn 0.960860 0.245601 0.128174
vn 0.965507 0.224279 0.132271
vn 0.973186 0.180293 0.142838
vn 0.964720 0.227149 0.133108
vn 0.845869 0.522228 -0.108553
vn 0.835921 0.506858 -0.210550
vn 0.842876 0.513685 -0.160277
vn 0.801554 0.584954 0.123855
vn 0.801554 0.584954 0.123855
vn 0.801554 0.584954 0.123855
vn -0.604690 -0.691046 -0.395986
vn -0.604690 -0.691046 -0.395986
vn -0.604690 -0.691046 -0.395986
vn -0.764829 -0.581541 0.277214
vn -0.764829 -0.581541 0.277214
vn -0.764829 -0.581541 0.277214
vn -0.965755 -0.252785 0.058450
vn -0.965755 -0.252785 0.058450
vn -0.965755 -0.252785 0.058450
vn -0.910439 -0.413622 -0.004181
vn -0.910439 -0.413622 -0.004181
vn -0.910439 -0.413622 -0.004181
vn 0.589902 -0.695483 -0.410266
vn 0.589902 -0.695483 -0.410266
vn 0.589902 -0.695483 -0.410266
vn 0.479296 -0.777230 -0.407662
vn 0.479296 -0.777230 -0.407662
vn 0.479296 -0.777230 -0.407662
vn 0.407412 -0.151489 -0.900593
vn 0.407412 -0.151489 -0.900593
vn 0.407412 -0.151489 -0.900593
vn 0.843011 0.517172 -0.147873
vn 0.741904 0.421128 -0.521757
vn 0.845995 0.522790 -0.104795
vn 0.778234 0.241020 -0.579880
vn 0.799015 0.266871 -0.538845
vn 0.736632 0.153735 -0.658588
vn 0.443639 -0.084659 -0.892198
vn 0.828096 -0.398600 -0.394176
vn 0.828096 -0.398600 -0.394176
vn 0.983304 -0.079608 -0.163631
vn 0.983304 -0.079608 -0.163631
vn 0.983304 -0.079608 -0.163631
vn 0.999219 0.038298 -0.009690
vn 0.981973 0.136620 -0.130631
vn 0.976730 0.158620 0.144353
vn 0.976730 0.158620 0.144353
vn 0.982648 0.067068 0.172928
vn -0.451250 0.677835 -0.580442
vn -0.446090 0.652741 -0.612317
vn -0.463855 0.761847 -0.452137
vn -0.463855 0.761847 -0.452137
vn -0.464775 0.591424 -0.658940
vn -0.472256 0.599431 -0.646264
vn -0.544489 0.658219 -0.519884
vn -0.543566 0.649302 -0.531924
vn -0.449142 0.475339 -0.756521
vn -0.159488 0.047976 -0.986033
vn -0.180940 0.030883 -0.983009
vn -0.169077 0.040352 -0.984776
vn -0.372121 0.354949 -0.857635
vn -0.381064 -0.135565 -0.914556
vn -0.320005 0.744709 0.585666
vn -0.320005 0.744709 0.585666
vn -0.320006 0.744709 0.585666
vn -0.320005 0.744709 0.585666
vn -0.320005 0.744709 0.585666
vn -0.320005 0.744709 0.585666
vn -0.320005 0.744709 0.585666
s off
g polySurface75 polySurface71 polySurface70 pSphere3
usemtl initialShadingGroup
f 2/1/1 3/2/2 10/3/3 9/4/4
f 3/2/5 4/5/6 11/6/7 10/3/8
f 4/5/9 5/7/10 12/8/11 11/6/12
f 5/7/13 6/9/14 13/10/15 12/8/16
s 1
f 6/9/17 34/11/18 13/10/19
s 2
f 14/12/20 33/13/21 8/14/22
s off
f 9/4/23 10/3/24 17/15/25 16/16/26 40/17/27
f 10/3/28 11/6/29 18/18/30 17/15/31
f 11/6/32 12/8/33 19/19/34 18/18/35
f 12/8/36 13/10/37 37/20/38 20/21/39 19/19/40
s 3
f 13/10/41 36/22/42 37/20/43
s 4
f 21/23/44 32/24/45 15/25/46
s off
f 16/16/47 17/15/48 24/26/49 23/27/50 39/28/51
f 17/15/52 18/18/53 25/29/54 24/26/55
f 18/18/56 19/19/57 26/30/58 25/29/59
f 19/19/60 20/21/61 27/31/62 26/30/63
s 5
f 20/21/64 35/32/65 38/33/66 27/31/67
s 6
f 28/34/68 31/35/69 22/36/70
s off
f 30/37/71 1/38/72 29/39/73
f 2/1/74 30/40/75 29/41/76
f 3/2/77 2/1/78 29/42/79
f 4/5/80 3/2/81 29/43/82
f 5/7/83 4/5/84 29/44/85
f 6/9/86 5/7/87 29/45/88
f 7/46/89 6/9/90 29/47/91
f 1/48/92 7/46/93 29/49/94
s 6
f 21/23/95 15/25/96 31/35/69
f 21/23/95 31/35/69 28/34/68 38/33/97
s 4
f 14/12/98 8/14/99 32/24/45
f 14/12/98 32/24/45 21/23/44
s 2
f 7/46/100 1/48/101 33/13/21
f 7/46/100 33/13/21 14/12/20
s 1
f 6/9/17 7/46/102 14/12/103 34/11/18
s 3
f 13/10/41 34/11/104 14/12/105 21/23/106 36/22/42
f 37/20/43 35/32/107 20/21/108
f 37/20/43 36/22/42 35/32/107
s 5
f 38/33/66 35/32/65 36/22/109 21/23/110
f 27/31/67 38/33/66 28/34/111
s 7
f 31/35/112 39/28/113 23/27/114 22/36/115
f 16/16/116 39/28/113 31/35/112 15/25/117
f 32/24/118 40/17/119 16/16/116 15/25/117
f 8/14/120 33/50/121 1/38/122 2/1/123 9/4/124
f 2/1/123 1/38/122 30/40/125
f 9/4/124 40/17/119 32/24/118 8/14/120
s off
f 24/26/126 25/29/127 26/30/128 27/31/129 28/34/130 22/36/131 23/27/132
