# This file uses centimeters as units for non-parametric coordinates.

mtllib ƒS[ƒ‹.mtl
g default
v 1.533222 -1.784272 -37.841402
v 0.657778 -1.784272 -37.806812
v -0.030340 -1.784272 -37.263963
v -0.267766 -1.784272 -36.420619
v 0.035643 -1.784272 -35.598476
v 0.764574 -1.784272 -35.112022
v 1.640018 -1.784272 -35.146613
v 2.328136 -1.784272 -35.689462
v 2.565562 -1.784272 -36.532806
v 2.262153 -1.784272 -37.354949
v 1.533222 39.081024 -37.841402
v 0.657778 39.081024 -37.806812
v -0.030340 39.081024 -37.263963
v -0.267766 39.081024 -36.420619
v 0.035643 39.081024 -35.598476
v 0.764574 39.081024 -35.112022
v 1.640018 39.081024 -35.146613
v 2.328136 39.081024 -35.689462
v 2.565562 39.081024 -36.532806
v 2.262153 39.081024 -37.354949
v 1.148898 -1.784272 -36.476712
v 1.148898 39.081024 -36.476712
v 0.362288 -1.784272 32.322161
v -0.513156 -1.784272 32.356751
v -1.201274 -1.784272 32.899601
v -1.438700 -1.784272 33.742944
v -1.135291 -1.784272 34.565087
v -0.406360 -1.784272 35.051541
v 0.469084 -1.784272 35.016950
v 1.157202 -1.784272 34.474101
v 1.394628 -1.784272 33.630757
v 1.091219 -1.784272 32.808614
v 0.362288 39.081024 32.322161
v -0.513156 39.081024 32.356751
v -1.201274 39.081024 32.899601
v -1.438700 39.081024 33.742944
v -1.135291 39.081024 34.565087
v -0.406360 39.081024 35.051541
v 0.469084 39.081024 35.016950
v 1.157202 39.081024 34.474101
v 1.394628 39.081024 33.630757
v 1.091219 39.081024 32.808614
v -0.022036 -1.784272 33.686851
v -0.022036 39.081024 33.686851
v -1.636656 32.769378 36.336816
v 2.044330 32.769378 36.394478
v -1.636656 49.114044 36.336816
v 2.044330 49.114044 36.394478
v -0.461633 49.114044 -38.579717
v 3.219353 49.114044 -38.522056
v -0.461633 32.769378 -38.579717
v 3.219353 32.769378 -38.522056
vt 0.210218 0.044907
vt 0.175027 0.019339
vt 0.131529 0.019339
vt 0.096339 0.044907
vt 0.082897 0.086276
vt 0.096339 0.127645
vt 0.131529 0.153212
vt 0.175027 0.153212
vt 0.210218 0.127645
vt 0.223660 0.086276
vt 0.096973 0.156657
vt 0.108234 0.156657
vt 0.119495 0.156657
vt 0.130756 0.156657
vt 0.142017 0.156657
vt 0.153278 0.156657
vt 0.164539 0.156657
vt 0.175800 0.156657
vt 0.187061 0.156657
vt 0.198322 0.156657
vt 0.209583 0.156657
vt 0.096973 0.325995
vt 0.108234 0.325995
vt 0.119495 0.325995
vt 0.130756 0.325995
vt 0.142017 0.325995
vt 0.153278 0.325995
vt 0.164539 0.325995
vt 0.175800 0.325995
vt 0.187061 0.325995
vt 0.198322 0.325995
vt 0.209583 0.325995
vt 0.210218 0.354584
vt 0.175027 0.329017
vt 0.131529 0.329017
vt 0.096339 0.354584
vt 0.082897 0.395953
vt 0.096339 0.437322
vt 0.131529 0.462890
vt 0.175027 0.462890
vt 0.210218 0.437322
vt 0.223660 0.395953
vt 0.153278 0.083461
vt 0.153278 0.393138
vt 0.309427 0.158666
vt 0.320729 0.158666
vt 0.320729 0.328611
vt 0.309427 0.328611
vt 0.332030 0.158666
vt 0.332030 0.328611
vt 0.343332 0.158666
vt 0.343332 0.328611
vt 0.354633 0.158666
vt 0.354633 0.328611
vt 0.365934 0.158666
vt 0.365934 0.328611
vt 0.377236 0.158666
vt 0.377236 0.328611
vt 0.388537 0.158666
vt 0.388537 0.328611
vt 0.399838 0.158666
vt 0.399838 0.328611
vt 0.411140 0.158666
vt 0.411140 0.328611
vt 0.422441 0.158666
vt 0.422441 0.328611
vt 0.387761 0.020856
vt 0.423078 0.046515
vt 0.365934 0.085207
vt 0.344107 0.020856
vt 0.308791 0.046515
vt 0.295301 0.088032
vt 0.308791 0.129550
vt 0.344107 0.155209
vt 0.387761 0.155209
vt 0.423078 0.129550
vt 0.436568 0.088032
vt 0.423078 0.440337
vt 0.387761 0.465996
vt 0.365934 0.395995
vt 0.344107 0.465996
vt 0.308791 0.440337
vt 0.295301 0.398820
vt 0.308791 0.357303
vt 0.344107 0.331643
vt 0.387761 0.331643
vt 0.423078 0.357303
vt 0.436568 0.398820
vt 0.741560 0.046994
vt 0.836309 0.046994
vt 0.836309 0.141743
vt 0.741560 0.141743
vt 0.836309 0.236492
vt 0.741560 0.236492
vt 0.836309 0.331240
vt 0.741560 0.331240
vt 0.836309 0.425989
vt 0.741560 0.425989
vt 0.550021 0.802847
vt 0.944592 0.802847
vt 0.944592 0.897596
vt 0.550021 0.897596
vt 0.057551 0.802847
vt 0.443213 0.802847
vt 0.443213 0.897596
vt 0.057551 0.897596
vn -0.039486 0.000000 -0.999220
vn -0.039486 0.000000 -0.999220
vn -0.039486 0.000000 -0.999220
vn -0.039486 0.000000 -0.999220
vn -0.619362 0.000000 -0.785105
vn -0.619362 0.000000 -0.785105
vn -0.619362 0.000000 -0.785105
vn -0.619362 0.000000 -0.785105
vn -0.962579 0.000000 -0.271000
vn -0.962579 0.000000 -0.271000
vn -0.962579 0.000000 -0.271000
vn -0.962579 0.000000 -0.271000
vn -0.938153 0.000000 0.346222
vn -0.938153 0.000000 0.346222
vn -0.938153 0.000000 0.346222
vn -0.938153 0.000000 0.346222
vn -0.555095 0.000000 0.831787
vn -0.555095 0.000000 0.831787
vn -0.555095 0.000000 0.831787
vn -0.555095 0.000000 0.831787
vn 0.039475 0.000000 0.999221
vn 0.039475 0.000000 0.999221
vn 0.039475 0.000000 0.999221
vn 0.039475 0.000000 0.999221
vn 0.619362 0.000000 0.785105
vn 0.619362 0.000000 0.785105
vn 0.619362 0.000000 0.785105
vn 0.619362 0.000000 0.785105
vn 0.962582 0.000000 0.270990
vn 0.962582 0.000000 0.270990
vn 0.962582 0.000000 0.270990
vn 0.962582 0.000000 0.270990
vn 0.938153 0.000000 -0.346222
vn 0.938153 0.000000 -0.346222
vn 0.938153 0.000000 -0.346222
vn 0.938153 0.000000 -0.346222
vn 0.555095 0.000000 -0.831787
vn 0.555095 0.000000 -0.831787
vn 0.555095 0.000000 -0.831787
vn 0.555095 0.000000 -0.831787
vn 0.000000 -1.000000 0.000000
vn 0.000000 -1.000000 0.000000
vn 0.000000 -1.000000 0.000000
vn 0.000000 -1.000000 0.000000
vn 0.000000 -1.000000 0.000000
vn 0.000000 -1.000000 0.000000
vn 0.000000 -1.000000 0.000000
vn 0.000000 -1.000000 0.000000
vn 0.000000 -1.000000 0.000000
vn 0.000000 -1.000000 0.000000
vn 0.000000 -1.000000 0.000000
vn -0.000016 1.000000 -0.000020
vn -0.000016 1.000000 -0.000020
vn -0.000000 1.000000 -0.000000
vn -0.000008 1.000000 -0.000010
vn 0.000008 1.000000 0.000010
vn 0.000016 1.000000 0.000020
vn 0.000016 1.000000 0.000020
vn 0.000016 1.000000 0.000020
vn 0.000008 1.000000 0.000010
vn -0.000008 1.000000 -0.000010
vn -0.000016 1.000000 -0.000020
vn -0.039481 0.000000 -0.999220
vn -0.039481 0.000000 -0.999220
vn -0.039481 0.000000 -0.999220
vn -0.039481 0.000000 -0.999220
vn -0.619362 0.000000 -0.785105
vn -0.619362 0.000000 -0.785105
vn -0.619362 0.000000 -0.785105
vn -0.619362 0.000000 -0.785105
vn -0.962581 0.000000 -0.270995
vn -0.962581 0.000000 -0.270995
vn -0.962581 0.000000 -0.270995
vn -0.962581 0.000000 -0.270995
vn -0.938153 0.000000 0.346222
vn -0.938153 0.000000 0.346222
vn -0.938153 0.000000 0.346222
vn -0.938153 0.000000 0.346222
vn -0.555096 0.000000 0.831786
vn -0.555096 0.000000 0.831786
vn -0.555096 0.000000 0.831786
vn -0.555096 0.000000 0.831786
vn 0.039481 0.000000 0.999220
vn 0.039481 0.000000 0.999220
vn 0.039481 0.000000 0.999220
vn 0.039481 0.000000 0.999220
vn 0.619362 0.000000 0.785105
vn 0.619362 0.000000 0.785105
vn 0.619362 0.000000 0.785105
vn 0.619362 0.000000 0.785105
vn 0.962581 0.000000 0.270995
vn 0.962581 0.000000 0.270995
vn 0.962581 0.000000 0.270995
vn 0.962581 0.000000 0.270995
vn 0.938152 0.000000 -0.346224
vn 0.938152 0.000000 -0.346224
vn 0.938152 0.000000 -0.346224
vn 0.938152 0.000000 -0.346224
vn 0.555095 0.000000 -0.831787
vn 0.555095 0.000000 -0.831787
vn 0.555095 0.000000 -0.831787
vn 0.555095 0.000000 -0.831787
vn 0.000000 -1.000000 0.000000
vn 0.000000 -1.000000 0.000000
vn 0.000000 -1.000000 0.000000
vn 0.000000 -1.000000 0.000000
vn 0.000000 -1.000000 0.000000
vn 0.000000 -1.000000 0.000000
vn 0.000000 -1.000000 0.000000
vn 0.000000 -1.000000 0.000000
vn 0.000000 -1.000000 0.000000
vn 0.000000 -1.000000 0.000000
vn 0.000000 -1.000000 0.000000
vn -0.000016 1.000000 -0.000020
vn -0.000016 1.000000 -0.000020
vn -0.000000 1.000000 -0.000000
vn -0.000008 1.000000 -0.000010
vn 0.000008 1.000000 0.000010
vn 0.000016 1.000000 0.000020
vn 0.000016 1.000000 0.000020
vn 0.000016 1.000000 0.000020
vn 0.000008 1.000000 0.000010
vn -0.000008 1.000000 -0.000010
vn -0.000016 1.000000 -0.000020
vn -0.015663 0.000000 0.999877
vn -0.015663 0.000000 0.999877
vn -0.015663 0.000000 0.999877
vn -0.015663 0.000000 0.999877
vn 0.000000 1.000000 0.000000
vn 0.000000 1.000000 0.000000
vn 0.000000 1.000000 0.000000
vn 0.000000 1.000000 0.000000
vn 0.015663 0.000000 -0.999877
vn 0.015663 0.000000 -0.999877
vn 0.015663 0.000000 -0.999877
vn 0.015663 0.000000 -0.999877
vn 0.000000 -1.000000 0.000000
vn 0.000000 -1.000000 0.000000
vn 0.000000 -1.000000 0.000000
vn 0.000000 -1.000000 0.000000
vn 0.999877 0.000000 0.015682
vn 0.999877 0.000000 0.015682
vn 0.999877 0.000000 0.015682
vn 0.999877 0.000000 0.015682
vn -0.999877 0.000000 -0.015682
vn -0.999877 0.000000 -0.015682
vn -0.999877 0.000000 -0.015682
vn -0.999877 0.000000 -0.015682
s off
g pCylinder4
usemtl initialShadingGroup
f 1/11/1 2/12/2 12/23/3 11/22/4
f 2/12/5 3/13/6 13/24/7 12/23/8
f 3/13/9 4/14/10 14/25/11 13/24/12
f 4/14/13 5/15/14 15/26/15 14/25/16
f 5/15/17 6/16/18 16/27/19 15/26/20
f 6/16/21 7/17/22 17/28/23 16/27/24
f 7/17/25 8/18/26 18/29/27 17/28/28
f 8/18/29 9/19/30 19/30/31 18/29/32
f 9/19/33 10/20/34 20/31/35 19/30/36
f 10/20/37 1/21/38 11/32/39 20/31/40
s 1
f 2/2/41 1/1/42 21/43/43
f 3/3/44 2/2/41 21/43/43
f 4/4/45 3/3/44 21/43/43
f 5/5/46 4/4/45 21/43/43
f 6/6/47 5/5/46 21/43/43
f 7/7/48 6/6/47 21/43/43
f 8/8/49 7/7/48 21/43/43
f 9/9/50 8/8/49 21/43/43
f 10/10/51 9/9/50 21/43/43
f 1/1/42 10/10/51 21/43/43
s 2
f 11/41/52 12/40/53 22/44/54
f 12/40/53 13/39/55 22/44/54
f 13/39/55 14/38/56 22/44/54
f 14/38/56 15/37/57 22/44/54
f 15/37/57 16/36/58 22/44/54
f 16/36/58 17/35/59 22/44/54
f 17/35/59 18/34/60 22/44/54
f 18/34/60 19/33/61 22/44/54
f 19/33/61 20/42/62 22/44/54
f 20/42/62 11/41/52 22/44/54
s off
f 23/45/63 24/46/64 34/47/65 33/48/66
f 24/46/67 25/49/68 35/50/69 34/47/70
f 25/49/71 26/51/72 36/52/73 35/50/74
f 26/51/75 27/53/76 37/54/77 36/52/78
f 27/53/79 28/55/80 38/56/81 37/54/82
f 28/55/83 29/57/84 39/58/85 38/56/86
f 29/57/87 30/59/88 40/60/89 39/58/90
f 30/59/91 31/61/92 41/62/93 40/60/94
f 31/61/95 32/63/96 42/64/97 41/62/98
f 32/63/99 23/65/100 33/66/101 42/64/102
s 3
f 24/67/103 23/68/104 43/69/105
f 25/70/106 24/67/103 43/69/105
f 26/71/107 25/70/106 43/69/105
f 27/72/108 26/71/107 43/69/105
f 28/73/109 27/72/108 43/69/105
f 29/74/110 28/73/109 43/69/105
f 30/75/111 29/74/110 43/69/105
f 31/76/112 30/75/111 43/69/105
f 32/77/113 31/76/112 43/69/105
f 23/68/104 32/77/113 43/69/105
s 4
f 33/78/114 34/79/115 44/80/116
f 34/79/115 35/81/117 44/80/116
f 35/81/117 36/82/118 44/80/116
f 36/82/118 37/83/119 44/80/116
f 37/83/119 38/84/120 44/80/116
f 38/84/120 39/85/121 44/80/116
f 39/85/121 40/86/122 44/80/116
f 40/86/122 41/87/123 44/80/116
f 41/87/123 42/88/124 44/80/116
f 42/88/124 33/78/114 44/80/116
s off
f 45/89/125 46/90/126 48/91/127 47/92/128
f 47/92/129 48/91/130 50/93/131 49/94/132
f 49/94/133 50/93/134 52/95/135 51/96/136
f 51/96/137 52/95/138 46/97/139 45/98/140
f 46/99/141 52/100/142 50/101/143 48/102/144
f 51/103/145 45/104/146 47/105/147 49/106/148
