# This file uses centimeters as units for non-parametric coordinates.

mtllib Lreg.mtl
g default
v -39.079123 13.120933 -16.929231
v -41.139545 4.020006 -13.452122
v -41.797068 13.100690 -16.808053
v -40.277494 13.399149 -15.074990
v -39.753274 3.799380 -14.852671
v -38.688363 3.813410 -13.634370
v -40.130887 12.838576 -18.436887
v -40.140202 9.023746 -14.081675
v -40.038518 4.096316 -12.098901
v -39.927668 8.661249 -16.423054
v -39.628085 13.179287 -15.928718
v -40.217386 11.230479 -14.560092
v -40.111780 6.509440 -13.112510
v -41.174907 6.384647 -14.252999
v -39.755128 11.566824 -17.285698
v -39.041637 10.923047 -16.218786
v -40.683143 8.718218 -15.825729
v -40.538515 4.037946 -12.737792
v -39.498699 11.127882 -15.402239
v -39.551332 13.015108 -17.709644
v -40.048110 10.770015 -17.474499
v -39.429577 8.647075 -15.979890
v -40.483930 5.775646 -13.178244
v -39.864892 11.846003 -15.355925
v -39.158416 3.827988 -14.320263
v -39.388996 3.921355 -12.844414
v -39.900077 6.286884 -15.626221
v -41.570703 10.993200 -15.930267
v -41.332900 8.858350 -15.216606
v -40.623467 6.475135 -13.712460
v -41.035322 13.157235 -15.957535
v -39.580028 8.942837 -14.790108
v -39.445156 10.847045 -16.732095
v -40.929209 13.046078 -17.650751
v -39.323656 6.249218 -15.250027
vt 0.171116 0.184755
vt 0.171116 0.184755
vt 0.171116 0.184755
vt 0.142798 0.332976
vt 0.142798 0.332976
vt 0.142798 0.332976
vt 0.134790 0.432601
vt 0.134790 0.432601
vt 0.134790 0.432601
vt 0.157708 0.269803
vt 0.157708 0.269803
vt 0.157708 0.269803
vt 0.053446 0.242626
vt 0.053446 0.242626
vt 0.053446 0.242626
vt 0.141680 0.249140
vt 0.141680 0.249140
vt 0.141680 0.249140
vt 0.145768 0.334706
vt 0.145768 0.334706
vt 0.145768 0.334706
vt 0.143128 0.416984
vt 0.143128 0.416984
vt 0.143128 0.416984
vt 0.128263 0.404530
vt 0.128263 0.404530
vt 0.128263 0.404530
vt 0.092123 0.440457
vt 0.092123 0.440457
vt 0.092123 0.440457
vt 0.126334 0.466184
vt 0.126334 0.466184
vt 0.126334 0.466184
vt 0.125483 0.382541
vt 0.125483 0.382541
vt 0.125483 0.382541
vt 0.126821 0.475734
vt 0.126821 0.475734
vt 0.126821 0.475734
vt 0.138646 0.344293
vt 0.138646 0.344293
vt 0.138646 0.344293
vt 0.167597 0.233990
vt 0.167597 0.233990
vt 0.167597 0.233990
vt 0.048699 0.403721
vt 0.048699 0.403721
vt 0.048699 0.403721
vt 0.128400 0.464167
vt 0.128400 0.464167
vt 0.128400 0.464167
vt 0.167216 0.272762
vt 0.167216 0.272762
vt 0.167216 0.272762
vt 0.162112 0.109756
vt 0.162112 0.109756
vt 0.162112 0.109756
vt 0.144098 0.420803
vt 0.144098 0.420803
vt 0.144098 0.420803
vt 0.158184 0.283134
vt 0.158184 0.283134
vt 0.158184 0.283134
vt 0.128251 0.109978
vt 0.128251 0.109978
vt 0.128251 0.109978
vt 0.139664 0.347728
vt 0.139664 0.347728
vt 0.139664 0.347728
vt 0.123311 0.109391
vt 0.123311 0.109391
vt 0.123311 0.109391
vt 0.104795 0.378514
vt 0.104795 0.378514
vt 0.104795 0.378514
vt 0.161046 0.259248
vt 0.161046 0.259248
vt 0.161046 0.259248
vt 0.126909 0.445650
vt 0.126909 0.445650
vt 0.126909 0.445650
vt 0.158025 0.415129
vt 0.158025 0.415129
vt 0.158025 0.415129
vt 0.140160 0.367216
vt 0.140160 0.367216
vt 0.140160 0.367216
vt 0.156485 0.290045
vt 0.156485 0.290045
vt 0.156485 0.290045
vt 0.105319 0.393151
vt 0.105319 0.393151
vt 0.105319 0.393151
vt 0.169415 0.289815
vt 0.169415 0.289815
vt 0.169415 0.289815
vt 0.081735 0.447356
vt 0.081735 0.447356
vt 0.081735 0.447356
vt 0.062376 0.269648
vt 0.062376 0.269648
vt 0.062376 0.269648
vt 0.125633 0.304581
vt 0.125633 0.304581
vt 0.125633 0.304581
vt 0.123376 0.458550
vt 0.123376 0.458550
vt 0.123376 0.458550
vt 0.164792 0.382552
vt 0.164792 0.382552
vt 0.164792 0.382552
vt 0.131607 0.439025
vt 0.131607 0.439025
vt 0.131607 0.439025
vt 0.157991 0.249291
vt 0.157991 0.249291
vt 0.157991 0.249291
vt 0.108268 0.347823
vt 0.108268 0.347823
vt 0.108268 0.347823
vt 0.133763 0.237344
vt 0.133763 0.237344
vt 0.133763 0.237344
vt 0.076923 0.340395
vt 0.076923 0.340395
vt 0.076923 0.340395
vt 0.072401 0.336129
vt 0.072401 0.336129
vt 0.072401 0.336129
vt 0.129963 0.273061
vt 0.129963 0.273061
vt 0.129963 0.273061
vt 0.123904 0.273071
vt 0.123904 0.273071
vt 0.123904 0.273071
vt 0.042621 0.354330
vt 0.042621 0.354330
vt 0.042621 0.354330
vt 0.049177 0.483374
vt 0.049177 0.483374
vt 0.049177 0.483374
vt 0.149536 0.283179
vt 0.149536 0.283179
vt 0.149536 0.283179
vt 0.099834 0.308392
vt 0.099834 0.308392
vt 0.099834 0.308392
vt 0.136888 0.398093
vt 0.136888 0.398093
vt 0.136888 0.398093
vt 0.166786 0.241140
vt 0.166786 0.241140
vt 0.166786 0.241140
vt 0.111649 0.425855
vt 0.111649 0.425855
vt 0.111649 0.425855
vt 0.146886 0.292348
vt 0.146886 0.292348
vt 0.146886 0.292348
vt 0.108573 0.341832
vt 0.108573 0.341832
vt 0.108573 0.341832
vt 0.054139 0.215804
vt 0.054139 0.215804
vt 0.054139 0.215804
vn 0.738322 0.270508 0.617823
vn 0.738322 0.270508 0.617823
vn 0.738322 0.270508 0.617823
vn -0.688330 -0.276374 -0.670686
vn -0.688330 -0.276374 -0.670686
vn -0.688330 -0.276374 -0.670686
vn 0.655002 -0.232538 -0.718957
vn 0.655002 -0.232538 -0.718957
vn 0.655002 -0.232538 -0.718957
vn -0.611192 -0.254996 -0.749281
vn -0.611192 -0.254996 -0.749281
vn -0.611192 -0.254996 -0.749281
vn 0.716393 0.269249 0.643651
vn 0.716393 0.269249 0.643651
vn 0.716393 0.269249 0.643651
vn -0.691744 0.154822 0.705351
vn -0.691744 0.154822 0.705351
vn -0.691744 0.154822 0.705351
vn -0.777459 0.227500 0.586345
vn -0.777459 0.227500 0.586345
vn -0.777459 0.227500 0.586345
vn 0.642017 -0.238333 -0.728705
vn 0.642017 -0.238333 -0.728705
vn 0.642017 -0.238333 -0.728705
vn 0.760033 0.155393 0.631033
vn 0.760034 0.155393 0.631033
vn 0.760033 0.155393 0.631033
vn -0.767338 0.105240 0.632548
vn -0.767338 0.105240 0.632548
vn -0.767338 0.105240 0.632548
vn -0.588835 -0.393550 -0.705969
vn -0.588835 -0.393550 -0.705969
vn -0.588835 -0.393550 -0.705969
vn 0.891943 -0.247873 -0.378149
vn 0.891943 -0.247873 -0.378149
vn 0.891943 -0.247873 -0.378149
vn 0.878254 0.089695 0.469708
vn 0.878254 0.089695 0.469708
vn 0.878254 0.089695 0.469708
vn -0.740501 0.157052 0.653448
vn -0.740501 0.157052 0.653448
vn -0.740501 0.157052 0.653448
vn 0.804969 0.151418 0.573671
vn 0.804969 0.151418 0.573671
vn 0.804968 0.151418 0.573671
vn 0.721296 0.254998 0.643978
vn 0.721296 0.254998 0.643978
vn 0.721296 0.254998 0.643978
vn -0.700261 0.232846 0.674847
vn -0.700261 0.232846 0.674847
vn -0.700261 0.232846 0.674847
vn -0.701150 0.220681 0.678003
vn -0.701150 0.220681 0.678003
vn -0.701150 0.220681 0.678003
vn -0.709091 -0.232591 -0.665652
vn -0.709091 -0.232591 -0.665652
vn -0.709091 -0.232591 -0.665652
vn 0.640748 -0.245955 -0.727288
vn 0.640748 -0.245955 -0.727288
vn 0.640748 -0.245955 -0.727288
vn 0.763680 -0.258423 -0.591617
vn 0.763680 -0.258423 -0.591617
vn 0.763680 -0.258423 -0.591617
vn 0.786307 -0.178872 -0.591377
vn 0.786307 -0.178872 -0.591377
vn 0.786307 -0.178872 -0.591377
vn 0.877932 0.157041 0.452297
vn 0.877932 0.157041 0.452297
vn 0.877932 0.157041 0.452297
vn -0.686151 -0.299531 -0.662932
vn -0.686150 -0.299531 -0.662932
vn -0.686150 -0.299531 -0.662932
vn -0.669956 -0.323132 -0.668389
vn -0.669956 -0.323132 -0.668389
vn -0.669956 -0.323132 -0.668389
vn -0.748656 0.226696 0.622995
vn -0.748656 0.226696 0.622995
vn -0.748656 0.226696 0.622995
vn 0.867604 0.171148 0.466874
vn 0.867604 0.171148 0.466874
vn 0.867604 0.171148 0.466874
vn 0.566865 0.232701 0.790262
vn 0.566865 0.232701 0.790262
vn 0.566865 0.232701 0.790262
vn 0.852283 -0.183611 -0.489797
vn 0.852283 -0.183611 -0.489797
vn 0.852283 -0.183611 -0.489797
vn 0.787209 -0.239221 -0.568397
vn 0.787209 -0.239221 -0.568397
vn 0.787209 -0.239221 -0.568397
vn -0.684425 -0.318576 -0.655799
vn -0.684425 -0.318576 -0.655799
vn -0.684425 -0.318576 -0.655799
vn 0.784933 -0.197787 -0.587164
vn 0.784933 -0.197787 -0.587164
vn 0.784933 -0.197787 -0.587164
vn 0.806250 -0.167217 -0.567449
vn 0.806251 -0.167217 -0.567449
vn 0.806251 -0.167217 -0.567449
vn -0.746693 0.235619 0.622039
vn -0.746693 0.235619 0.622039
vn -0.746693 0.235619 0.622039
vn -0.570590 0.216542 0.792172
vn -0.570590 0.216542 0.792172
vn -0.570590 0.216542 0.792172
vn 0.907713 0.004425 0.419568
vn 0.907713 0.004425 0.419568
vn 0.907713 0.004425 0.419568
vn 0.735248 0.342940 0.584639
vn 0.735248 0.342940 0.584639
vn 0.735248 0.342940 0.584639
vn 0.812741 -0.160358 -0.560123
vn 0.812741 -0.160358 -0.560123
vn 0.812741 -0.160358 -0.560123
vn 0.756106 0.273757 0.594441
vn 0.756106 0.273757 0.594441
vn 0.756106 0.273757 0.594441
vn 0.521974 -0.222458 -0.823441
vn 0.521974 -0.222458 -0.823441
vn 0.521974 -0.222458 -0.823441
vn -0.719307 -0.242484 -0.650999
vn -0.719307 -0.242484 -0.650999
vn -0.719307 -0.242484 -0.650999
vn -0.752609 -0.324851 -0.572757
vn -0.752609 -0.324851 -0.572757
vn -0.752609 -0.324851 -0.572757
vn -0.625729 0.242753 0.741306
vn -0.625729 0.242753 0.741306
vn -0.625729 0.242753 0.741306
vn -0.687938 0.226296 0.689588
vn -0.687938 0.226296 0.689588
vn -0.687938 0.226296 0.689588
vn -0.710660 -0.295813 -0.638324
vn -0.710660 -0.295813 -0.638324
vn -0.710660 -0.295813 -0.638324
vn -0.730155 0.325795 0.600610
vn -0.730155 0.325795 0.600610
vn -0.730155 0.325795 0.600610
vn -0.903159 0.134768 0.407605
vn -0.903159 0.134768 0.407605
vn -0.903159 0.134768 0.407605
vn -0.769144 0.123882 0.626953
vn -0.769144 0.123882 0.626953
vn -0.769144 0.123882 0.626953
vn 0.770881 0.265271 0.579115
vn 0.770881 0.265271 0.579115
vn 0.770881 0.265271 0.579115
vn 0.784060 0.131458 0.606604
vn 0.784060 0.131458 0.606604
vn 0.784060 0.131458 0.606604
vn 0.775491 -0.137106 -0.616292
vn 0.775491 -0.137106 -0.616292
vn 0.775491 -0.137106 -0.616292
vn 0.610886 -0.305488 -0.730408
vn 0.610886 -0.305488 -0.730408
vn 0.610886 -0.305488 -0.730408
vn -0.705088 -0.325575 -0.629961
vn -0.705088 -0.325575 -0.629961
vn -0.705088 -0.325575 -0.629961
vn 0.521604 -0.224852 -0.823026
vn 0.521604 -0.224852 -0.823026
vn 0.521604 -0.224852 -0.823026
vn 0.668212 -0.187598 -0.719931
vn 0.668212 -0.187598 -0.719931
vn 0.668212 -0.187598 -0.719930
vn -0.005354 0.992621 -0.121142
vn -0.005354 0.992621 -0.121142
vn -0.005354 0.992621 -0.121142
vn -0.005354 0.992621 -0.121142
vn -0.005354 0.992621 -0.121142
vn -0.005354 0.992621 -0.121142
vn -0.005354 0.992621 -0.121142
vn -0.005354 0.992621 -0.121142
vn -0.075032 -0.993738 0.082798
vn -0.075032 -0.993738 0.082798
vn -0.075032 -0.993738 0.082798
vn -0.075032 -0.993738 0.082798
vn -0.075032 -0.993738 0.082798
vn -0.075032 -0.993738 0.082798
vn -0.075032 -0.993738 0.082798
s off
g polySurface498 polySurface18
usemtl initialShadingGroup
f 26/1/1 6/2/2 13/3/3
f 27/4/4 29/5/5 17/6/6
f 25/7/7 5/8/8 35/9/9
f 17/10/10 10/11/11 27/12/12
f 6/13/13 16/14/14 32/15/15
f 28/16/16 29/17/17 8/18/18
f 18/19/19 9/20/20 13/21/21
f 27/22/22 10/23/23 22/24/24
f 12/25/25 8/26/26 19/27/27
f 3/28/28 8/29/29 12/30/30
f 21/31/31 10/32/32 17/33/33
f 20/34/34 15/35/35 21/36/36
f 32/37/37 16/38/38 19/39/39
f 12/40/40 31/41/41 3/42/42
f 11/43/43 4/44/44 12/45/45
f 6/46/46 8/47/47 13/48/48
f 14/49/49 30/50/50 8/51/51
f 14/52/52 2/53/53 30/54/54
f 5/55/55 2/56/56 14/57/57
f 22/58/58 10/59/59 33/60/60
f 33/61/61 10/62/62 21/63/63
f 33/64/64 1/65/65 16/66/66
f 16/67/67 1/68/68 19/69/69
f 17/70/70 29/71/71 28/72/72
f 17/73/73 3/74/74 34/75/75
f 30/76/76 2/77/77 18/78/78
f 19/79/79 1/80/80 11/81/81
f 11/82/82 24/83/83 19/84/84
f 20/85/85 1/86/86 33/87/87
f 21/88/88 7/89/89 20/90/90
f 21/91/91 17/92/92 34/93/93
f 22/94/94 33/95/95 16/96/96
f 35/97/97 16/98/98 6/99/99
f 13/100/100 8/101/101 30/102/102
f 13/103/103 23/104/104 18/105/105
f 12/106/106 24/107/107 11/108/108
f 19/109/109 24/110/110 12/111/111
f 6/112/112 25/113/113 35/114/114
f 13/115/115 9/116/116 26/117/117
f 35/118/118 5/119/119 27/120/120
f 27/121/121 5/122/122 14/123/123
f 28/124/124 3/125/125 17/126/126
f 3/127/127 28/128/128 8/129/129
f 8/130/130 29/131/131 14/132/132
f 14/133/133 29/134/134 27/135/135
f 30/136/136 23/137/137 13/138/138
f 18/139/139 23/140/140 30/141/141
f 12/142/142 4/143/143 31/144/144
f 32/145/145 8/146/146 6/147/147
f 19/148/148 8/149/149 32/150/150
f 21/151/151 15/152/152 33/153/153
f 33/154/154 15/155/155 20/156/156
f 34/157/157 7/158/158 21/159/159
f 22/160/160 35/161/161 27/162/162
f 22/163/163 16/164/164 35/165/165
f 3/42/166 31/144/167 4/44/168 11/81/169 1/86/170 20/90/171 7/158/172 34/75/173
f 6/2/174 26/117/175 9/20/176 18/78/177 2/56/178 5/8/179 25/113/180
g default
v -34.449137 31.949032 -14.875020
v -35.408937 30.985921 -22.506165
v -36.067045 21.267383 -19.612854
v -44.060095 15.240316 -17.100533
v -41.245047 16.682742 -20.994900
v -46.007376 17.368743 -16.647076
v -35.524420 21.575814 -16.305313
v -44.693914 18.634912 -12.069704
v -43.142675 18.549102 -21.878277
v -41.367784 29.826062 -28.748161
v -36.101896 31.521272 -8.974516
v -37.309851 22.936772 -9.548777
v -38.176031 29.969815 -7.460151
v -41.638105 16.197677 -12.017763
v -40.461126 20.262660 -9.273455
v -36.802793 17.385055 -13.263716
v -40.459959 13.292437 -17.092762
v -42.476828 12.967384 -17.109631
v -40.121130 13.337059 -14.574354
v -35.174650 21.926616 -12.913790
v -40.141619 28.567756 -5.945444
v -42.478826 20.922933 -9.079687
v -47.622229 25.942245 -6.159064
v -36.496687 18.878356 -14.920774
v -37.386610 17.188289 -18.615967
v -39.693838 12.920713 -18.403244
v -38.687109 12.939545 -17.609680
v -36.067045 21.267383 -19.612850
v -44.503958 18.154155 -18.939156
v -43.273916 14.093897 -17.034317
v -40.734854 12.889910 -19.181694
v -47.711630 22.425677 -15.804420
v -47.720633 23.483735 -21.914658
v -47.720446 23.461961 -21.788904
v -41.638105 16.197677 -12.017763
v -48.139776 27.400283 -26.877604
v -44.380377 35.810697 -16.185463
vn 0.962440 -0.255354 -0.092211
vn 0.962440 -0.255354 -0.092211
vn 0.962440 -0.255354 -0.092211
vn -0.608022 -0.461673 -0.645885
vn -0.608022 -0.461673 -0.645885
vn -0.608022 -0.461673 -0.645885
vn 0.970366 -0.196312 -0.140893
vn 0.970366 -0.196312 -0.140893
vn 0.970366 -0.196312 -0.140893
vn -0.671242 -0.642150 0.370241
vn -0.671242 -0.642150 0.370241
vn -0.671242 -0.642150 0.370241
vn 0.506081 -0.689693 -0.517886
vn 0.506081 -0.689693 -0.517886
vn 0.506081 -0.689693 -0.517886
vn 0.704339 -0.293723 0.646246
vn 0.704339 -0.293723 0.646246
vn 0.704339 -0.293723 0.646246
vn 0.334100 -0.582771 0.740780
vn 0.334100 -0.582771 0.740780
vn 0.334100 -0.582771 0.740780
vn 0.193212 -0.981119 -0.008611
vn 0.193212 -0.981119 -0.008611
vn 0.193212 -0.981119 -0.008611
vn 0.969189 -0.107955 0.221401
vn 0.969189 -0.107955 0.221401
vn 0.969189 -0.107955 0.221401
vn 0.249919 -0.794072 0.554067
vn 0.249919 -0.794072 0.554067
vn 0.249919 -0.794072 0.554067
vn -0.410070 -0.373759 0.831954
vn -0.410070 -0.373759 0.831954
vn -0.410070 -0.373759 0.831954
vn 0.542313 -0.615904 0.571453
vn 0.542313 -0.615904 0.571453
vn 0.542313 -0.615904 0.571453
vn -0.124453 -0.609973 0.782588
vn -0.124453 -0.609973 0.782588
vn -0.124453 -0.609973 0.782588
vn 0.612616 -0.277609 0.740023
vn 0.612616 -0.277609 0.740023
vn 0.612616 -0.277609 0.740023
vn 0.942517 -0.321286 -0.091854
vn 0.942517 -0.321286 -0.091854
vn 0.942517 -0.321286 -0.091854
vn -0.450696 -0.715755 0.533449
vn -0.450696 -0.715755 0.533449
vn -0.450696 -0.715755 0.533449
vn 0.310798 -0.536428 0.784633
vn 0.310798 -0.536428 0.784633
vn 0.310798 -0.536428 0.784633
vn 0.572178 -0.365697 -0.734083
vn 0.572178 -0.365697 -0.734083
vn 0.572178 -0.365697 -0.734083
vn 0.440515 -0.229755 -0.867847
vn 0.440515 -0.229755 -0.867847
vn 0.440515 -0.229755 -0.867848
vn -0.595075 -0.523702 -0.609608
vn -0.595075 -0.523702 -0.609608
vn -0.595075 -0.523702 -0.609608
vn -0.685054 -0.500368 -0.529464
vn -0.685054 -0.500368 -0.529465
vn -0.685054 -0.500368 -0.529465
vn 0.943575 -0.306146 -0.126255
vn 0.943575 -0.306146 -0.126255
vn 0.943575 -0.306146 -0.126255
vn -0.065939 -0.982052 -0.176708
vn -0.065939 -0.982052 -0.176708
vn -0.065939 -0.982052 -0.176708
vn 0.572809 -0.290440 -0.766508
vn 0.572809 -0.290440 -0.766508
vn 0.572809 -0.290440 -0.766508
vn 0.719566 -0.390925 0.573936
vn 0.719566 -0.390925 0.573936
vn 0.719566 -0.390925 0.573936
vn 0.577326 -0.605277 0.548028
vn 0.577326 -0.605277 0.548028
vn 0.577326 -0.605277 0.548028
vn 0.708313 -0.362543 0.605686
vn 0.708313 -0.362543 0.605686
vn 0.708313 -0.362543 0.605686
vn -0.115733 -0.973421 -0.197628
vn -0.727731 -0.675985 -0.115982
vn -0.115733 -0.973421 -0.197628
vn -0.115733 -0.973421 -0.197628
vn 0.642944 -0.534063 -0.548999
vn 0.642944 -0.534063 -0.548999
vn 0.642944 -0.534063 -0.548999
vn 0.575340 -0.309368 -0.757150
vn 0.575339 -0.309368 -0.757150
vn 0.575340 -0.309368 -0.757150
vn -0.666515 -0.350826 -0.657783
vn -0.666515 -0.350826 -0.657783
vn -0.666515 -0.350826 -0.657783
vn 0.952738 -0.282544 -0.111621
vn 0.952738 -0.282544 -0.111621
vn 0.952738 -0.282544 -0.111621
vn 0.037516 -0.935797 0.350539
vn 0.037516 -0.935797 0.350539
vn 0.037516 -0.935797 0.350539
vn 0.932045 -0.357483 -0.059143
vn 0.932045 -0.357483 -0.059143
vn 0.932045 -0.357483 -0.059143
vn 0.967254 -0.242582 -0.074659
vn 0.967254 -0.242582 -0.074659
vn 0.967254 -0.242582 -0.074659
vn 0.650359 -0.503027 -0.569207
vn 0.650359 -0.503028 -0.569207
vn 0.650359 -0.503027 -0.569207
vn 0.156056 -0.976131 0.151047
vn 0.156056 -0.976131 0.151047
vn 0.156056 -0.976131 0.151047
vn -0.165836 -0.968484 0.185842
vn -0.165836 -0.968484 0.185842
vn -0.165836 -0.968484 0.185842
vn -0.681677 -0.360110 -0.636897
vn -0.681677 -0.360110 -0.636897
vn -0.681677 -0.360110 -0.636897
vn -0.614393 -0.686198 0.389428
vn -0.614393 -0.686198 0.389428
vn -0.614393 -0.686198 0.389428
vn -0.757803 -0.495132 0.424946
vn -0.757803 -0.495132 0.424946
vn -0.757803 -0.495132 0.424946
vn 0.954283 -0.287266 -0.082595
vn 0.954283 -0.287266 -0.082595
vn 0.954283 -0.287266 -0.082595
vn 0.628391 -0.652332 0.423778
vn 0.628391 -0.652332 0.423778
vn 0.628391 -0.652332 0.423778
vn -0.107105 -0.720919 0.684693
vn -0.107105 -0.720919 0.684693
vn -0.107105 -0.720919 0.684693
vn 0.219639 -0.830490 0.511903
vn 0.219639 -0.830490 0.511903
vn 0.219639 -0.830490 0.511903
vn 0.110908 -0.768472 -0.630199
vn 0.110908 -0.768472 -0.630199
vn 0.110908 -0.768472 -0.630199
vn -0.013648 -0.841629 -0.539883
vn -0.013648 -0.841629 -0.539883
vn -0.013648 -0.841629 -0.539883
vn -0.280298 -0.910904 0.302799
vn -0.280298 -0.910904 0.302799
vn -0.280298 -0.910904 0.302799
vn -0.212002 -0.976195 0.045819
vn -0.212002 -0.976195 0.045819
vn -0.212002 -0.976195 0.045819
vn -0.676461 -0.439110 -0.591256
vn -0.676461 -0.439110 -0.591256
vn -0.676461 -0.439110 -0.591256
vn -0.717406 -0.537263 0.443483
vn -0.717406 -0.537263 0.443483
vn -0.717406 -0.537263 0.443483
vn -0.683167 -0.511995 -0.520715
vn -0.683167 -0.511995 -0.520715
vn -0.683167 -0.511995 -0.520715
vn 0.954765 -0.284181 -0.087554
vn 0.954765 -0.284181 -0.087554
vn 0.954765 -0.284181 -0.087554
vn -0.525260 -0.627111 -0.575181
vn -0.525260 -0.627112 -0.575181
vn -0.525260 -0.627111 -0.575181
vn -0.912534 0.396785 -0.099214
vn -0.990827 -0.133395 -0.021635
vn -0.974681 0.220418 0.037593
vn -0.974662 0.220499 0.037607
vn -0.822706 0.486758 0.293635
vn -0.666925 0.737275 0.107869
vn -0.139638 0.880530 -0.452954
vn 0.297607 0.933408 -0.200450
vn 0.005630 0.906799 0.421526
vn 0.364429 0.931054 -0.018173
vn -0.211986 0.753279 0.622601
vn -0.211986 0.753279 0.622601
s off
g polySurface494 polySurface492
usemtl initialShadingGroup
f 36//181 38//182 37//183
f 39//184 41//185 40//186
f 36//187 42//188 38//189
f 43//190 41//191 39//192
f 44//193 45//194 38//195
f 46//196 48//197 47//198
f 49//199 51//200 50//201
f 52//202 54//203 53//204
f 46//205 55//206 36//207
f 56//208 58//209 57//210
f 49//211 50//212 43//213
f 56//214 50//215 47//216
f 57//217 50//218 56//219
f 51//220 55//221 50//222
f 59//223 55//224 51//225
f 53//226 54//227 49//228
f 49//229 54//230 51//231
f 60//232 62//233 61//234
f 40//235 44//236 63//237
f 40//238 41//239 64//240
f 65//241 39//242 66//243
f 60//244 38//245 42//246
f 44//247 64//248 67//249
f 60//250 61//251 40//252
f 47//253 55//254 46//255
f 50//256 55//257 47//258
f 48//259 56//260 47//261
f 67//262 69//263 68//264 44//265
f 40//266 38//267 60//268
f 61//269 66//270 40//271
f 64//272 44//273 40//274
f 59//275 62//276 60//277
f 67//278 41//279 58//280
f 42//281 55//282 59//283
f 36//284 55//285 42//286
f 45//287 37//288 38//289
f 61//290 52//291 53//292
f 62//293 52//294 61//295
f 40//296 66//297 39//298
f 49//299 43//300 39//301
f 70//302 39//303 65//304
f 59//305 51//306 62//307
f 62//308 51//309 54//310
f 43//311 50//312 57//313
f 43//314 57//315 58//316
f 44//317 71//318 45//319
f 68//320 71//321 44//322
f 58//323 41//324 43//325
f 62//326 54//327 52//328
f 61//329 53//330 65//331
f 53//332 49//333 65//334
f 61//335 65//336 66//337
f 60//338 42//339 59//340
f 64//341 41//342 67//343
s 1
f 71//344 68//345 69//346
f 69//346 67//347 58//348 72//349 71//344
f 72//349 45//350 71//344
f 37//351 45//350 72//349
f 46//352 36//353 37//351 72//349
f 58//348 56//354 48//355 46//352 72//349
