# This file uses centimeters as units for non-parametric coordinates.

mtllib Rreg.mtl
g default
v -53.364087 13.007915 -16.574651
v -55.642418 3.810065 -13.513398
v -56.084541 13.019198 -16.538269
v -54.616533 13.231637 -14.748991
v -54.215702 3.624217 -14.877913
v -53.189407 3.577980 -13.627685
v -54.371419 12.796819 -18.123742
v -54.563379 8.820334 -13.919979
v -54.583503 3.820471 -12.124916
v -54.281965 8.543930 -16.265835
v -53.943392 13.035642 -15.590056
v -54.598831 11.044425 -14.315803
v -54.595765 6.270992 -13.047270
v -55.624055 6.203586 -14.223962
v -54.047337 11.477526 -17.010987
v -53.375476 10.784409 -15.947967
v -55.055047 8.588277 -15.690366
v -55.063900 3.792970 -12.780698
v -53.855396 10.964242 -15.138678
v -53.812849 12.937985 -17.372741
v -54.343876 10.692396 -17.239075
v -53.798217 8.506378 -15.808378
v -54.974520 5.545218 -13.152474
v -54.214147 11.684896 -15.076256
v -53.637521 3.624751 -14.326698
v -53.913099 3.665242 -12.856177
v -54.308086 6.140949 -15.559922
v -55.911310 10.877172 -15.735160
v -55.721833 8.713869 -15.096671
v -55.088773 6.266218 -13.663598
v -55.349198 13.033388 -15.663108
v -53.982296 8.758866 -14.613364
v -53.763599 10.733256 -16.476015
v -55.191420 12.985000 -17.355256
v -53.744237 6.081418 -15.167836
vt 0.139970 0.189208
vt 0.139970 0.189208
vt 0.139970 0.189208
vt 0.129291 0.304027
vt 0.129291 0.304027
vt 0.129291 0.304027
vt 0.126271 0.381201
vt 0.126271 0.381201
vt 0.126271 0.381201
vt 0.134914 0.255090
vt 0.134914 0.255090
vt 0.134914 0.255090
vt 0.095593 0.234038
vt 0.095593 0.234038
vt 0.095593 0.234038
vt 0.128869 0.239083
vt 0.128869 0.239083
vt 0.128869 0.239083
vt 0.130411 0.305367
vt 0.130411 0.305367
vt 0.130411 0.305367
vt 0.129415 0.369104
vt 0.129415 0.369104
vt 0.129415 0.369104
vt 0.123809 0.359456
vt 0.123809 0.359456
vt 0.123809 0.359456
vt 0.110180 0.387287
vt 0.110180 0.387287
vt 0.110180 0.387287
vt 0.123082 0.407217
vt 0.123082 0.407217
vt 0.123082 0.407217
vt 0.122761 0.342422
vt 0.122761 0.342422
vt 0.122761 0.342422
vt 0.123265 0.414614
vt 0.123265 0.414614
vt 0.123265 0.414614
vt 0.127725 0.312794
vt 0.127725 0.312794
vt 0.127725 0.312794
vt 0.138643 0.227348
vt 0.138643 0.227348
vt 0.138643 0.227348
vt 0.093803 0.358829
vt 0.093803 0.358829
vt 0.093803 0.358829
vt 0.123861 0.405654
vt 0.123861 0.405654
vt 0.123861 0.405654
vt 0.138500 0.257383
vt 0.138500 0.257383
vt 0.138500 0.257383
vt 0.136575 0.131110
vt 0.136575 0.131110
vt 0.136575 0.131110
vt 0.129781 0.372062
vt 0.129781 0.372062
vt 0.129781 0.372062
vt 0.135093 0.265417
vt 0.135093 0.265417
vt 0.135093 0.265417
vt 0.123805 0.131282
vt 0.123805 0.131282
vt 0.123805 0.131282
vt 0.128109 0.315455
vt 0.128109 0.315455
vt 0.128109 0.315455
vt 0.121942 0.130827
vt 0.121942 0.130827
vt 0.121942 0.130827
vt 0.114959 0.339303
vt 0.114959 0.339303
vt 0.114959 0.339303
vt 0.136173 0.246914
vt 0.136173 0.246914
vt 0.136173 0.246914
vt 0.123299 0.391310
vt 0.123299 0.391310
vt 0.123299 0.391310
vt 0.135033 0.367666
vt 0.135033 0.367666
vt 0.135033 0.367666
vt 0.128296 0.330551
vt 0.128296 0.330551
vt 0.128296 0.330551
vt 0.134453 0.270770
vt 0.134453 0.270770
vt 0.134453 0.270770
vt 0.115156 0.350641
vt 0.115156 0.350641
vt 0.115156 0.350641
vt 0.139329 0.270592
vt 0.139329 0.270592
vt 0.139329 0.270592
vt 0.106262 0.392631
vt 0.106262 0.392631
vt 0.106262 0.392631
vt 0.098961 0.254970
vt 0.098961 0.254970
vt 0.098961 0.254970
vt 0.122817 0.282031
vt 0.122817 0.282031
vt 0.122817 0.282031
vt 0.121966 0.401303
vt 0.121966 0.401303
vt 0.121966 0.401303
vt 0.137585 0.342431
vt 0.137585 0.342431
vt 0.137585 0.342431
vt 0.125070 0.386178
vt 0.125070 0.386178
vt 0.125070 0.386178
vt 0.135021 0.239201
vt 0.135021 0.239201
vt 0.135021 0.239201
vt 0.116269 0.315528
vt 0.116269 0.315528
vt 0.116269 0.315528
vt 0.125883 0.229946
vt 0.125883 0.229946
vt 0.125883 0.229946
vt 0.104448 0.309774
vt 0.104448 0.309774
vt 0.104448 0.309774
vt 0.102742 0.306469
vt 0.102742 0.306469
vt 0.102742 0.306469
vt 0.124450 0.257614
vt 0.124450 0.257614
vt 0.124450 0.257614
vt 0.122165 0.257622
vt 0.122165 0.257622
vt 0.122165 0.257622
vt 0.091511 0.320569
vt 0.091511 0.320569
vt 0.091511 0.320569
vt 0.093983 0.420532
vt 0.093983 0.420532
vt 0.093983 0.420532
vt 0.131832 0.265452
vt 0.131832 0.265452
vt 0.131832 0.265452
vt 0.113088 0.284983
vt 0.113088 0.284983
vt 0.113088 0.284983
vt 0.127062 0.354469
vt 0.127062 0.354469
vt 0.127062 0.354469
vt 0.138337 0.232887
vt 0.138337 0.232887
vt 0.138337 0.232887
vt 0.117543 0.375975
vt 0.117543 0.375975
vt 0.117543 0.375975
vt 0.130833 0.272555
vt 0.130833 0.272555
vt 0.130833 0.272555
vt 0.116383 0.310888
vt 0.116383 0.310888
vt 0.116383 0.310888
vt 0.095855 0.213260
vt 0.095855 0.213260
vt 0.095855 0.213260
vn 0.721814 0.237100 0.650207
vn 0.721813 0.237100 0.650207
vn 0.721814 0.237100 0.650207
vn -0.670263 -0.241624 -0.701687
vn -0.670263 -0.241624 -0.701687
vn -0.670263 -0.241624 -0.701687
vn 0.674353 -0.213836 -0.706769
vn 0.674353 -0.213836 -0.706769
vn 0.674353 -0.213836 -0.706769
vn -0.590447 -0.218313 -0.776989
vn -0.590447 -0.218313 -0.776989
vn -0.590447 -0.218313 -0.776989
vn 0.699072 0.235155 0.675278
vn 0.699072 0.235155 0.675278
vn 0.699072 0.235155 0.675278
vn -0.711588 0.137186 0.689073
vn -0.711588 0.137186 0.689073
vn -0.711588 0.137186 0.689073
vn -0.792646 0.215448 0.570346
vn -0.792646 0.215448 0.570346
vn -0.792646 0.215448 0.570346
vn 0.661612 -0.219086 -0.717127
vn 0.661612 -0.219086 -0.717127
vn 0.661612 -0.219086 -0.717127
vn 0.741706 0.121289 0.659668
vn 0.741706 0.121289 0.659668
vn 0.741706 0.121289 0.659668
vn -0.785458 0.091404 0.612129
vn -0.785458 0.091404 0.612129
vn -0.785458 0.091404 0.612129
vn -0.571136 -0.358691 -0.738339
vn -0.571136 -0.358691 -0.738339
vn -0.571136 -0.358691 -0.738339
vn 0.900293 -0.245206 -0.359647
vn 0.900293 -0.245206 -0.359647
vn 0.900293 -0.245206 -0.359647
vn 0.864121 0.060180 0.499673
vn 0.864121 0.060180 0.499674
vn 0.864121 0.060180 0.499674
vn -0.758664 0.142026 0.635813
vn -0.758664 0.142026 0.635813
vn -0.758663 0.142026 0.635813
vn 0.788365 0.118892 0.603610
vn 0.788365 0.118892 0.603610
vn 0.788365 0.118892 0.603610
vn 0.703790 0.220838 0.675212
vn 0.703789 0.220838 0.675212
vn 0.703789 0.220838 0.675212
vn -0.718200 0.216415 0.661327
vn -0.718200 0.216415 0.661327
vn -0.718200 0.216415 0.661327
vn -0.719336 0.204153 0.663987
vn -0.719336 0.204153 0.663987
vn -0.719336 0.204153 0.663987
vn -0.690641 -0.197791 -0.695625
vn -0.690641 -0.197791 -0.695625
vn -0.690641 -0.197791 -0.695625
vn 0.660206 -0.226738 -0.716043
vn 0.660206 -0.226738 -0.716043
vn 0.660206 -0.226738 -0.716043
vn 0.778665 -0.245964 -0.577219
vn 0.778665 -0.245964 -0.577219
vn 0.778665 -0.245964 -0.577219
vn 0.802234 -0.166787 -0.573238
vn 0.802234 -0.166787 -0.573238
vn 0.802234 -0.166787 -0.573238
vn 0.865160 0.128136 0.484850
vn 0.865160 0.128136 0.484850
vn 0.865160 0.128136 0.484850
vn -0.668608 -0.265085 -0.694761
vn -0.668608 -0.265085 -0.694761
vn -0.668608 -0.265085 -0.694761
vn -0.652537 -0.288676 -0.700615
vn -0.652537 -0.288676 -0.700615
vn -0.652537 -0.288676 -0.700615
vn -0.765017 0.212876 0.607809
vn -0.765017 0.212876 0.607809
vn -0.765017 0.212876 0.607809
vn 0.854552 0.141816 0.499629
vn 0.854552 0.141816 0.499629
vn 0.854552 0.141816 0.499629
vn 0.544591 0.195073 0.815701
vn 0.544591 0.195073 0.815701
vn 0.544591 0.195073 0.815701
vn 0.864932 -0.176243 -0.469926
vn 0.864932 -0.176243 -0.469926
vn 0.864932 -0.176243 -0.469926
vn 0.801686 -0.227969 -0.552566
vn 0.801686 -0.227969 -0.552566
vn 0.801686 -0.227969 -0.552566
vn -0.667338 -0.284408 -0.688311
vn -0.667338 -0.284408 -0.688311
vn -0.667338 -0.284407 -0.688311
vn 0.800500 -0.185827 -0.569796
vn 0.800500 -0.185827 -0.569796
vn 0.800500 -0.185827 -0.569796
vn 0.821558 -0.156311 -0.548279
vn 0.821558 -0.156311 -0.548279
vn 0.821558 -0.156311 -0.548279
vn -0.762918 0.221801 0.607256
vn -0.762918 0.221801 0.607256
vn -0.762918 0.221801 0.607256
vn -0.592477 0.193961 0.781888
vn -0.592477 0.193961 0.781888
vn -0.592477 0.193961 0.781888
vn 0.894104 -0.023515 0.447242
vn 0.894104 -0.023515 0.447242
vn 0.894104 -0.023515 0.447242
vn 0.720657 0.310770 0.619738
vn 0.720657 0.310770 0.619738
vn 0.720657 0.310770 0.619738
vn 0.827898 -0.149822 -0.540499
vn 0.827898 -0.149822 -0.540499
vn 0.827898 -0.149822 -0.540499
vn 0.740360 0.240995 0.627526
vn 0.740360 0.240995 0.627526
vn 0.740360 0.240995 0.627526
vn 0.544797 -0.198043 -0.814846
vn 0.544797 -0.198043 -0.814846
vn 0.544797 -0.198043 -0.814846
vn -0.701430 -0.208095 -0.681683
vn -0.701430 -0.208095 -0.681684
vn -0.701430 -0.208095 -0.681683
vn -0.738162 -0.292915 -0.607714
vn -0.738162 -0.292915 -0.607714
vn -0.738162 -0.292915 -0.607714
vn -0.645674 0.222809 0.730385
vn -0.645673 0.222809 0.730385
vn -0.645674 0.222809 0.730385
vn -0.706426 0.209149 0.676180
vn -0.706426 0.209149 0.676180
vn -0.706426 0.209149 0.676180
vn -0.693830 -0.261976 -0.670797
vn -0.693830 -0.261976 -0.670797
vn -0.693830 -0.261976 -0.670797
vn -0.744626 0.312496 0.589812
vn -0.744626 0.312496 0.589812
vn -0.744626 0.312496 0.589812
vn -0.913794 0.131226 0.384395
vn -0.913794 0.131226 0.384395
vn -0.913794 0.131226 0.384395
vn -0.786862 0.110266 0.607198
vn -0.786862 0.110266 0.607198
vn -0.786862 0.110267 0.607198
vn 0.755503 0.232900 0.612350
vn 0.755504 0.232900 0.612350
vn 0.755504 0.232900 0.612350
vn 0.766195 0.097978 0.635095
vn 0.766195 0.097978 0.635095
vn 0.766195 0.097978 0.635095
vn 0.792711 -0.123968 -0.596859
vn 0.792711 -0.123968 -0.596859
vn 0.792711 -0.123968 -0.596859
vn 0.629739 -0.285708 -0.722357
vn 0.629739 -0.285708 -0.722357
vn 0.629739 -0.285708 -0.722357
vn -0.688884 -0.292104 -0.663411
vn -0.688884 -0.292104 -0.663411
vn -0.688884 -0.292104 -0.663411
vn 0.544386 -0.200446 -0.814534
vn 0.544386 -0.200446 -0.814534
vn 0.544386 -0.200446 -0.814534
vn 0.688130 -0.169072 -0.705615
vn 0.688130 -0.169072 -0.705615
vn 0.688130 -0.169072 -0.705615
vn 0.010453 0.996478 -0.083198
vn 0.010453 0.996478 -0.083198
vn 0.010453 0.996478 -0.083198
vn 0.010453 0.996478 -0.083198
vn 0.010453 0.996478 -0.083198
vn 0.010453 0.996478 -0.083198
vn 0.010453 0.996478 -0.083198
vn 0.010453 0.996478 -0.083198
vn -0.089606 -0.995075 0.042376
vn -0.089606 -0.995075 0.042376
vn -0.089606 -0.995075 0.042376
vn -0.089606 -0.995075 0.042376
vn -0.089606 -0.995075 0.042376
vn -0.089606 -0.995075 0.042376
vn -0.089606 -0.995075 0.042376
s off
g polySurface496 polySurface16
usemtl initialShadingGroup
f 26/1/1 6/2/2 13/3/3
f 27/4/4 29/5/5 17/6/6
f 25/7/7 5/8/8 35/9/9
f 17/10/10 10/11/11 27/12/12
f 6/13/13 16/14/14 32/15/15
f 28/16/16 29/17/17 8/18/18
f 18/19/19 9/20/20 13/21/21
f 27/22/22 10/23/23 22/24/24
f 12/25/25 8/26/26 19/27/27
f 3/28/28 8/29/29 12/30/30
f 21/31/31 10/32/32 17/33/33
f 20/34/34 15/35/35 21/36/36
f 32/37/37 16/38/38 19/39/39
f 12/40/40 31/41/41 3/42/42
f 11/43/43 4/44/44 12/45/45
f 6/46/46 8/47/47 13/48/48
f 14/49/49 30/50/50 8/51/51
f 14/52/52 2/53/53 30/54/54
f 5/55/55 2/56/56 14/57/57
f 22/58/58 10/59/59 33/60/60
f 33/61/61 10/62/62 21/63/63
f 33/64/64 1/65/65 16/66/66
f 16/67/67 1/68/68 19/69/69
f 17/70/70 29/71/71 28/72/72
f 17/73/73 3/74/74 34/75/75
f 30/76/76 2/77/77 18/78/78
f 19/79/79 1/80/80 11/81/81
f 11/82/82 24/83/83 19/84/84
f 20/85/85 1/86/86 33/87/87
f 21/88/88 7/89/89 20/90/90
f 21/91/91 17/92/92 34/93/93
f 22/94/94 33/95/95 16/96/96
f 35/97/97 16/98/98 6/99/99
f 13/100/100 8/101/101 30/102/102
f 13/103/103 23/104/104 18/105/105
f 12/106/106 24/107/107 11/108/108
f 19/109/109 24/110/110 12/111/111
f 6/112/112 25/113/113 35/114/114
f 13/115/115 9/116/116 26/117/117
f 35/118/118 5/119/119 27/120/120
f 27/121/121 5/122/122 14/123/123
f 28/124/124 3/125/125 17/126/126
f 3/127/127 28/128/128 8/129/129
f 8/130/130 29/131/131 14/132/132
f 14/133/133 29/134/134 27/135/135
f 30/136/136 23/137/137 13/138/138
f 18/139/139 23/140/140 30/141/141
f 12/142/142 4/143/143 31/144/144
f 32/145/145 8/146/146 6/147/147
f 19/148/148 8/149/149 32/150/150
f 21/151/151 15/152/152 33/153/153
f 33/154/154 15/155/155 20/156/156
f 34/157/157 7/158/158 21/159/159
f 22/160/160 35/161/161 27/162/162
f 22/163/163 16/164/164 35/165/165
f 3/42/166 31/144/167 4/44/168 11/81/169 1/86/170 20/90/171 7/158/172 34/75/173
f 6/2/174 26/117/175 9/20/176 18/78/177 2/56/178 5/8/179 25/113/180
g default
v -60.721661 31.766706 -14.646772
v -59.112354 21.267383 -19.612854
v -59.491394 30.669276 -22.565920
v -51.119305 15.240316 -17.100533
v -49.172024 17.368743 -16.647076
v -53.934353 16.682742 -20.994900
v -59.654980 21.575814 -16.305313
v -50.485485 18.634912 -12.069704
v -52.036724 18.549102 -21.878277
v -54.259976 29.633359 -29.248318
v -59.178761 31.222457 -9.003838
v -57.003368 29.969815 -7.460151
v -57.869549 22.936772 -9.548777
v -53.541294 16.197677 -12.017763
v -58.376606 17.385055 -13.263716
v -54.718273 20.262660 -9.273455
v -54.719441 13.292437 -17.092762
v -55.058270 13.337059 -14.574354
v -52.702572 12.967384 -17.109631
v -60.004749 21.926616 -12.913790
v -54.910439 28.536159 -5.957837
v -47.557171 25.942245 -6.159064
v -52.700573 20.922933 -9.079687
v -58.682713 18.878356 -14.920774
v -57.792790 17.188289 -18.615967
v -56.492291 12.939545 -17.609680
v -55.485561 12.920713 -18.403244
v -59.112354 21.267383 -19.612850
v -50.675442 18.154155 -18.939156
v -51.905483 14.093897 -17.034317
v -54.444546 12.889910 -19.181694
v -47.467770 22.425677 -15.804420
v -47.458767 23.483735 -21.914658
v -53.541294 16.197677 -12.017763
v -47.175930 27.386227 -26.743481
v -47.458954 23.461961 -21.788904
v -50.799023 35.810697 -16.185463
vn -0.962440 -0.255354 -0.092211
vn -0.962440 -0.255354 -0.092211
vn -0.962440 -0.255354 -0.092211
vn 0.608022 -0.461673 -0.645885
vn 0.608022 -0.461673 -0.645885
vn 0.608022 -0.461673 -0.645885
vn -0.970366 -0.196312 -0.140893
vn -0.970366 -0.196312 -0.140893
vn -0.970366 -0.196312 -0.140893
vn 0.671242 -0.642150 0.370241
vn 0.671242 -0.642150 0.370241
vn 0.671242 -0.642150 0.370241
vn -0.506081 -0.689693 -0.517886
vn -0.506081 -0.689693 -0.517886
vn -0.506081 -0.689693 -0.517886
vn -0.704339 -0.293723 0.646246
vn -0.704339 -0.293723 0.646246
vn -0.704339 -0.293723 0.646246
vn -0.334100 -0.582771 0.740780
vn -0.334100 -0.582771 0.740780
vn -0.334100 -0.582771 0.740780
vn -0.193212 -0.981119 -0.008611
vn -0.193212 -0.981119 -0.008611
vn -0.193212 -0.981119 -0.008611
vn -0.969189 -0.107955 0.221401
vn -0.969189 -0.107955 0.221401
vn -0.969189 -0.107955 0.221401
vn -0.249919 -0.794072 0.554067
vn -0.249919 -0.794072 0.554067
vn -0.249919 -0.794072 0.554067
vn 0.410070 -0.373759 0.831954
vn 0.410070 -0.373759 0.831954
vn 0.410070 -0.373759 0.831954
vn -0.542313 -0.615904 0.571453
vn -0.542313 -0.615904 0.571453
vn -0.542313 -0.615904 0.571453
vn 0.124453 -0.609973 0.782588
vn 0.124453 -0.609973 0.782588
vn 0.124453 -0.609973 0.782588
vn -0.612616 -0.277609 0.740023
vn -0.612616 -0.277609 0.740023
vn -0.612616 -0.277609 0.740023
vn -0.942517 -0.321286 -0.091854
vn -0.942517 -0.321286 -0.091854
vn -0.942517 -0.321286 -0.091854
vn 0.450696 -0.715755 0.533449
vn 0.450696 -0.715755 0.533449
vn 0.450696 -0.715755 0.533449
vn -0.310798 -0.536428 0.784633
vn -0.310798 -0.536428 0.784633
vn -0.310798 -0.536428 0.784633
vn -0.572178 -0.365697 -0.734083
vn -0.572178 -0.365697 -0.734083
vn -0.572178 -0.365697 -0.734083
vn -0.440515 -0.229755 -0.867848
vn -0.440515 -0.229755 -0.867848
vn -0.440515 -0.229755 -0.867848
vn 0.595075 -0.523702 -0.609608
vn 0.595075 -0.523702 -0.609608
vn 0.595075 -0.523702 -0.609608
vn 0.685054 -0.500368 -0.529464
vn 0.685054 -0.500368 -0.529465
vn 0.685054 -0.500368 -0.529465
vn -0.943575 -0.306146 -0.126255
vn -0.943575 -0.306146 -0.126255
vn -0.943575 -0.306146 -0.126255
vn 0.065939 -0.982052 -0.176708
vn 0.065939 -0.982052 -0.176708
vn 0.065939 -0.982052 -0.176708
vn -0.572809 -0.290440 -0.766508
vn -0.572809 -0.290440 -0.766508
vn -0.572809 -0.290440 -0.766508
vn -0.719566 -0.390925 0.573936
vn -0.719566 -0.390925 0.573936
vn -0.719566 -0.390925 0.573936
vn -0.577326 -0.605277 0.548028
vn -0.577326 -0.605277 0.548028
vn -0.577326 -0.605277 0.548028
vn -0.708313 -0.362543 0.605686
vn -0.708313 -0.362543 0.605686
vn -0.708313 -0.362543 0.605686
vn 0.115733 -0.973421 -0.197628
vn 0.115733 -0.973421 -0.197628
vn 0.115733 -0.973421 -0.197628
vn 0.727730 -0.675986 -0.115982
vn -0.642944 -0.534063 -0.548999
vn -0.642944 -0.534063 -0.548999
vn -0.642944 -0.534063 -0.548999
vn -0.575339 -0.309368 -0.757150
vn -0.575340 -0.309368 -0.757150
vn -0.575339 -0.309368 -0.757150
vn 0.666515 -0.350826 -0.657783
vn 0.666515 -0.350826 -0.657783
vn 0.666515 -0.350826 -0.657783
vn -0.952738 -0.282544 -0.111621
vn -0.952738 -0.282544 -0.111621
vn -0.952738 -0.282544 -0.111621
vn -0.037516 -0.935797 0.350539
vn -0.037516 -0.935797 0.350539
vn -0.037516 -0.935797 0.350539
vn -0.932045 -0.357483 -0.059143
vn -0.932045 -0.357483 -0.059143
vn -0.932045 -0.357483 -0.059143
vn -0.967254 -0.242582 -0.074659
vn -0.967254 -0.242582 -0.074659
vn -0.967254 -0.242582 -0.074659
vn -0.650359 -0.503027 -0.569207
vn -0.650359 -0.503027 -0.569207
vn -0.650359 -0.503028 -0.569207
vn -0.156056 -0.976131 0.151047
vn -0.156056 -0.976131 0.151047
vn -0.156056 -0.976131 0.151047
vn 0.165836 -0.968484 0.185842
vn 0.165836 -0.968484 0.185842
vn 0.165836 -0.968484 0.185842
vn 0.681677 -0.360110 -0.636897
vn 0.681677 -0.360110 -0.636897
vn 0.681677 -0.360110 -0.636897
vn 0.614393 -0.686198 0.389428
vn 0.614393 -0.686198 0.389428
vn 0.614393 -0.686198 0.389428
vn 0.757803 -0.495132 0.424946
vn 0.757803 -0.495132 0.424946
vn 0.757803 -0.495132 0.424946
vn -0.954283 -0.287266 -0.082595
vn -0.954283 -0.287266 -0.082595
vn -0.954283 -0.287266 -0.082595
vn -0.628391 -0.652332 0.423778
vn -0.628391 -0.652332 0.423778
vn -0.628391 -0.652332 0.423778
vn 0.107105 -0.720919 0.684693
vn 0.107105 -0.720919 0.684693
vn 0.107105 -0.720919 0.684693
vn -0.219639 -0.830490 0.511903
vn -0.219639 -0.830490 0.511903
vn -0.219639 -0.830490 0.511903
vn -0.110908 -0.768472 -0.630199
vn -0.110908 -0.768472 -0.630199
vn -0.110908 -0.768472 -0.630199
vn 0.013648 -0.841629 -0.539883
vn 0.013648 -0.841629 -0.539883
vn 0.013648 -0.841629 -0.539883
vn 0.280298 -0.910904 0.302799
vn 0.280298 -0.910904 0.302799
vn 0.280298 -0.910904 0.302799
vn 0.212002 -0.976195 0.045819
vn 0.212002 -0.976195 0.045819
vn 0.212002 -0.976195 0.045819
vn 0.676461 -0.439110 -0.591256
vn 0.676461 -0.439110 -0.591256
vn 0.676461 -0.439110 -0.591256
vn 0.717406 -0.537263 0.443483
vn 0.717406 -0.537263 0.443483
vn 0.717406 -0.537263 0.443483
vn 0.683167 -0.511995 -0.520715
vn 0.683167 -0.511995 -0.520715
vn 0.683167 -0.511995 -0.520715
vn -0.954765 -0.284181 -0.087554
vn -0.954765 -0.284181 -0.087554
vn -0.954765 -0.284181 -0.087554
vn 0.525260 -0.627111 -0.575181
vn 0.525260 -0.627112 -0.575181
vn 0.525260 -0.627111 -0.575181
vn 0.903713 0.411598 -0.117855
vn 0.974359 0.222705 0.032059
vn 0.995892 -0.089457 -0.014022
vn 0.661190 0.743501 0.100167
vn 0.820058 0.494308 0.288382
vn 0.974341 0.222779 0.032070
vn 0.130691 0.882432 -0.451922
vn -0.330456 0.923327 -0.195617
vn -0.029315 0.912803 0.407347
vn -0.381095 0.924084 -0.028907
vn 0.196361 0.761843 0.617283
vn 0.196361 0.761843 0.617283
s off
g polySurface491 polySurface486
usemtl initialShadingGroup
f 36//181 38//182 37//183
f 39//184 41//185 40//186
f 36//187 37//188 42//189
f 43//190 39//191 40//192
f 44//193 37//194 45//195
f 46//196 48//197 47//198
f 49//199 51//200 50//201
f 52//202 54//203 53//204
f 46//205 36//206 55//207
f 56//208 58//209 57//210
f 49//211 43//212 51//213
f 56//214 48//215 51//216
f 58//217 56//218 51//219
f 50//220 51//221 55//222
f 59//223 50//224 55//225
f 54//226 49//227 53//228
f 49//229 50//230 53//231
f 60//232 62//233 61//234
f 41//235 63//236 44//237
f 41//238 64//239 40//240
f 65//241 66//242 39//243
f 60//244 42//245 37//246
f 44//247 67//248 64//249
f 60//250 41//251 62//252
f 48//253 46//254 55//255
f 51//256 48//257 55//258
f 47//259 48//260 56//261
f 67//262 44//263 68//264 71//265
f 41//266 60//267 37//268
f 62//269 41//270 66//271
f 64//272 41//273 44//274
f 59//275 60//276 61//277
f 67//278 57//279 40//280
f 42//281 59//282 55//283
f 36//284 42//285 55//286
f 45//287 37//288 38//289
f 62//290 54//291 52//292
f 61//293 62//294 52//295
f 41//296 39//297 66//298
f 49//299 39//300 43//301
f 69//302 65//303 39//304
f 59//305 61//306 50//307
f 61//308 53//309 50//310
f 43//311 58//312 51//313
f 43//314 57//315 58//316
f 44//317 45//318 70//319
f 68//320 44//321 70//322
f 57//323 43//324 40//325
f 61//326 52//327 53//328
f 62//329 65//330 54//331
f 54//332 65//333 49//334
f 62//335 66//336 65//337
f 60//338 59//339 42//340
f 64//341 67//342 40//343
s 1
f 70//344 71//345 68//346
f 71//345 70//344 72//347 57//348 67//349
f 72//347 70//344 45//350
f 38//351 72//347 45//350
f 46//352 72//347 38//351 36//353
f 57//348 72//347 46//352 47//354 56//355
