# This file uses centimeters as units for non-parametric coordinates.

mtllib トウモロコシ.mtl
g default
v 0.735235 0.310735 -2.695734
v 0.393342 0.863055 -3.030814
v -0.325327 1.648780 1.666437
v -1.186211 0.949711 -3.362406
v -1.385888 0.310735 -2.695734
v -1.194166 -0.320286 -3.367479
v -0.325327 -1.027311 1.666438
v 0.750060 -0.113739 -3.499207
v 0.506903 0.310735 3.291643
v 0.263149 0.899210 3.291643
v -0.325326 1.142965 3.291643
v -0.913802 0.899210 3.291643
v -1.157556 0.310735 3.291643
v -0.913802 -0.277741 3.291643
v -0.325326 -0.521495 3.291643
v 0.263149 -0.277741 3.291643
v 0.599374 0.310735 3.291643
v 0.328535 0.964596 3.291643
v -0.325326 1.235434 3.291643
v -0.979188 0.964596 3.291643
v -1.250026 0.310735 3.291643
v -0.979188 -0.343127 3.291643
v -0.325326 -0.613965 3.291643
v 0.328535 -0.343127 3.291643
v 0.853075 0.310735 -2.695734
v 0.476668 0.946381 -3.030814
v -1.269536 1.033036 -3.362405
v -1.503728 0.310735 -2.695734
v -1.277492 -0.403612 -3.367480
v 0.833385 -0.197065 -3.499207
v 1.012719 0.310735 -0.019573
v 0.620815 -0.635406 -0.019572
v -1.271467 -0.635406 -0.019572
v -1.663372 0.310735 -0.019572
v -1.271467 1.256876 -0.019573
v 0.620815 1.256876 -0.019572
v 0.140911 -0.145057 -3.612635
v 0.325319 0.329177 -3.629192
v 0.824981 0.332550 -0.602833
v 0.431932 -0.425631 -0.602833
v 0.824981 0.332550 -0.602833
v 0.140911 0.811961 -3.612635
v 0.431932 1.090731 -0.602833
v -0.981212 0.333452 -3.609518
v -1.534861 0.332550 -0.602833
v -1.141812 1.090731 -0.602833
v -0.852322 0.811961 -3.612635
v -0.356049 0.333735 -4.079477
v -0.355706 0.936150 -3.608588
v -0.852322 -0.145057 -3.612635
v -0.355706 -0.269247 -3.609518
v -1.141812 -0.425631 -0.602833
v -0.354940 -0.837109 -0.602832
v -0.988090 -0.277513 3.233298
v 0.431932 -0.425631 -0.602833
v -0.354940 -0.837109 -0.602832
v -0.354940 -0.837109 -0.602832
v -1.141812 -0.425631 -0.602833
v -0.988090 0.942614 3.233298
v 0.278209 0.942614 3.233298
v -0.988090 -0.277513 3.233298
v 0.278209 -0.277513 3.233298
v 0.431932 -0.425631 -0.602833
v 0.434241 0.332550 3.233298
v 0.431932 1.090731 -0.602833
v -1.141812 -0.425631 -0.602833
v -1.144121 0.332550 3.233298
v -1.141812 1.090731 -0.602833
v -1.141812 1.090731 -0.602833
v 0.431932 1.090731 -0.602833
v -0.354940 0.332550 3.305124
v 0.824981 0.332550 -0.602833
v -1.534861 0.332550 -0.602833
v -0.354940 1.502210 -0.602833
v -1.141812 -0.425631 -0.602833
v -1.534861 0.332550 -0.602833
v -0.356002 0.778282 -3.981498
v -0.817438 0.333671 -3.981499
v -0.356002 -0.110940 -3.981498
v -0.817438 0.333671 -3.981499
v 0.105434 0.333671 -3.981499
v -0.356002 -0.110940 -3.981498
v 0.105434 0.333671 -3.981499
v -0.356002 0.778282 -3.981498
v -0.005426 0.614615 -3.981499
v -0.683905 0.022110 -3.981499
v -0.683905 0.645232 -3.981499
v -0.037202 0.022110 -3.981499
v 0.286421 1.033612 -2.584065
v -0.355324 1.301446 -2.582042
v -0.997068 1.033612 -2.584065
v 0.547391 0.333001 -2.106175
v -1.258036 0.333001 -2.106176
v 0.278209 -0.277513 3.233298
v 0.431932 -0.425631 -0.602833
v -0.354940 -0.837109 -0.602832
v -0.354940 -0.427855 3.233298
v -0.727314 0.725826 3.995892
v 0.043822 0.725826 3.995893
v -0.727314 -0.181435 3.995892
v 0.043822 -0.181435 3.995892
v -0.341746 -0.181435 3.995893
v -0.727314 0.272196 3.995892
v 0.043822 0.272196 3.995892
v -0.341746 0.725826 3.995892
v -0.341746 0.272196 3.995892
v -0.726357 -0.179952 3.282135
v -0.727314 -0.181435 3.995892
v -0.727314 0.725826 3.995892
v -0.726357 0.724991 3.282135
v -0.726836 -0.180694 3.639014
v -0.726357 0.272519 3.282135
v -0.727314 0.272196 3.995892
v -0.726836 0.725409 3.639014
v -0.726836 0.272357 3.639014
v 0.043822 -0.181435 3.995892
v 0.042809 -0.179952 3.282135
v 0.042809 0.724991 3.282135
v 0.043822 0.725826 3.995893
v 0.043315 -0.180694 3.639014
v 0.043822 0.272196 3.995892
v 0.042809 0.272519 3.282135
v 0.043315 0.725409 3.639014
v 0.043315 0.272357 3.639014
v -0.726357 0.728448 3.282135
v 0.042809 0.728448 3.282135
v -0.727314 0.729283 3.995892
v 0.043822 0.729283 3.995893
v -0.726836 0.728865 3.639014
v 0.043315 0.728865 3.639014
v -0.341774 0.728448 3.282135
v -0.341746 0.729283 3.995892
v -0.341760 0.728865 3.639013
v -0.727314 -0.181435 3.995892
v 0.043822 -0.181435 3.995892
v -0.726357 -0.179952 3.282135
v 0.042809 -0.179952 3.282135
v -0.341774 -0.179952 3.282135
v -0.726836 -0.180694 3.639014
v 0.043315 -0.180694 3.639014
v -0.341746 -0.181435 3.995893
v -0.341760 -0.180694 3.639014
vt 0.472868 0.948566
vt 0.451429 0.948566
vt 0.451841 0.722619
vt 0.472868 0.724283
vt 0.494307 0.921998
vt 0.494395 0.675878
vt 0.515745 0.948566
vt 0.515745 0.724283
vt 0.537184 0.948566
vt 0.537171 0.635133
vt 0.558623 0.948566
vt 0.558623 0.724283
vt 0.580062 0.921998
vt 0.580255 0.661096
vt 0.601501 0.948566
vt 0.601501 0.724283
vt 0.622940 0.948566
vt 0.623704 0.674773
vt 0.451429 0.500000
vt 0.472868 0.500000
vt 0.494307 0.500000
vt 0.515745 0.500000
vt 0.537184 0.500000
vt 0.558623 0.500000
vt 0.580062 0.500000
vt 0.601501 0.500000
vt 0.622940 0.500000
vt 0.472868 0.387192
vt 0.451429 0.387192
vt 0.451429 0.275717
vt 0.472868 0.275717
vt 0.494307 0.340652
vt 0.515745 0.387192
vt 0.515745 0.275717
vt 0.537184 0.387192
vt 0.537184 0.275717
vt 0.558623 0.387192
vt 0.558623 0.275717
vt 0.580062 0.340652
vt 0.601501 0.387192
vt 0.601501 0.275717
vt 0.622940 0.387192
vt 0.622940 0.275717
vt 0.451429 0.051434
vt 0.472868 0.051434
vt 0.515745 0.051434
vt 0.537184 0.051434
vt 0.558623 0.051434
vt 0.601501 0.051434
vt 0.622940 0.051434
vt 0.005176 0.620647
vt 0.181154 0.621202
vt 0.186780 0.992639
vt 0.111811 0.992639
vt 0.036842 0.992639
vt 0.024175 0.664520
vt 0.174114 0.664520
vt 0.185369 0.893105
vt 0.049508 0.883230
vt 0.002384 0.661161
vt 0.177069 0.661161
vt 0.177069 0.886222
vt 0.040267 0.884943
vt 0.017665 0.619948
vt 0.180214 0.623208
vt 0.181340 0.805351
vt 0.149468 0.896423
vt 0.117596 0.987495
vt 0.052726 0.987495
vt 0.013978 0.626622
vt 0.095072 0.626622
vt 0.138458 0.717981
vt 0.181844 0.809339
vt 0.187522 0.992056
vt 0.045668 0.974522
vt 0.030962 0.804726
vt 0.064613 0.714863
vt 0.098265 0.625000
vt 0.180981 0.625000
vt 0.181739 0.986387
vt 0.046374 0.984452
vt 0.015549 0.620851
vt 0.180116 0.620538
vt 0.172869 0.991660
vt 0.107999 0.991660
vt 0.072534 0.908067
vt 0.029339 0.806255
vt 0.011210 0.624104
vt 0.183992 0.624104
vt 0.190347 0.997102
vt 0.045178 0.991510
vt 0.015263 0.626603
vt 0.182914 0.625568
vt 0.183178 0.997253
vt 0.037977 0.995631
vt 0.005219 0.628813
vt 0.187511 0.620113
vt 0.187511 0.997253
vt 0.040139 0.997253
vt 0.396071 0.123527
vt 0.519520 0.089396
vt 0.519156 0.223745
vt 0.372363 0.209023
vt 0.661152 0.108118
vt 0.692706 0.209681
vt 0.654001 0.333536
vt 0.525129 0.360800
vt 0.384312 0.333536
vt 0.051565 0.024555
vt 0.201503 0.000000
vt 0.201503 0.125000
vt 0.051565 0.125000
vt 0.201503 0.250000
vt 0.051565 0.225445
vt 0.187667 0.038931
vt 0.346063 0.042943
vt 0.327230 0.511461
vt 0.187623 0.511461
vt 0.327224 0.890447
vt 0.187623 0.983991
vt 0.038109 0.002925
vt 0.193768 -0.004624
vt 0.186843 0.499832
vt 0.001713 0.499832
vt 0.335402 0.002945
vt 0.371973 0.499832
vt 0.353919 0.752205
vt 0.186843 0.748286
vt 0.019767 0.752211
vt 0.024926 0.616698
vt 0.184083 0.612370
vt 0.184039 0.991716
vt 0.044431 0.991716
vt 0.043130 0.991660
vt 0.015549 0.625000
vt 0.176165 0.626622
vt 0.182465 0.987495
vt 0.333637 0.999083
vt 0.186843 0.996739
vt 0.040049 0.999083
vt 0.120189 0.993245
vt 0.089726 0.661161
vt 0.138752 1.005032
vt 0.099145 0.664520
vt 0.016886 0.619237
vt 0.189668 0.619237
vt 0.189668 0.989888
vt 0.016886 0.989887
vt 0.697076 0.544004
vt 0.845279 0.544004
vt 0.845279 0.669004
vt 0.697076 0.669004
vt 0.993482 0.544004
vt 0.993482 0.669004
vt 0.993482 0.794004
vt 0.845279 0.794004
vt 0.697076 0.794004
vt 0.699289 0.557771
vt 0.846010 0.557771
vt 0.846010 0.682771
vt 0.699289 0.682771
vt 0.992731 0.557771
vt 0.992731 0.682771
vt 0.992731 0.807771
vt 0.846010 0.807771
vt 0.699289 0.807771
vt 0.698403 0.537994
vt 0.848088 0.537994
vt 0.848088 0.662994
vt 0.698403 0.662994
vt 0.997774 0.537994
vt 0.997774 0.662994
vt 0.997774 0.787994
vt 0.848088 0.787994
vt 0.698403 0.787994
vt 0.697076 0.544286
vt 0.845279 0.544286
vt 0.845279 0.669286
vt 0.697076 0.669286
vt 0.993482 0.544286
vt 0.993482 0.669286
vt 0.993482 0.794286
vt 0.845279 0.794286
vt 0.697076 0.794286
vt 0.697076 0.542077
vt 0.845279 0.542077
vt 0.845279 0.667077
vt 0.697076 0.667077
vt 0.993482 0.542077
vt 0.993482 0.667077
vt 0.993482 0.792077
vt 0.845279 0.792077
vt 0.697076 0.792077
vn -0.886416 -0.462242 -0.024459
vn -0.886416 -0.462242 -0.024459
vn -0.886416 -0.462242 -0.024459
vn -0.886416 -0.462242 -0.024459
vn -0.727195 -0.684431 -0.052358
vn -0.727195 -0.684431 -0.052358
vn -0.727195 -0.684431 -0.052358
vn -0.727195 -0.684431 -0.052358
vn 0.704470 -0.706211 -0.070632
vn 0.704470 -0.706211 -0.070632
vn 0.704470 -0.706211 -0.070632
vn 0.704470 -0.706211 -0.070632
vn 0.932972 -0.357896 -0.038386
vn 0.932972 -0.357896 -0.038386
vn 0.932972 -0.357896 -0.038386
vn 0.932972 -0.357896 -0.038386
vn 0.934094 0.354915 -0.038767
vn 0.934094 0.354915 -0.038767
vn 0.934094 0.354915 -0.038767
vn 0.934094 0.354915 -0.038767
vn 0.704529 0.706156 -0.070586
vn 0.704529 0.706156 -0.070586
vn 0.704529 0.706156 -0.070586
vn 0.704529 0.706156 -0.070586
vn -0.705946 0.704850 -0.069470
vn -0.705946 0.704850 -0.069470
vn -0.705946 0.704850 -0.069470
vn -0.705946 0.704850 -0.069470
vn -0.964750 0.258241 -0.050686
vn -0.964750 0.258241 -0.050686
vn -0.964750 0.258241 -0.050686
vn -0.964750 0.258241 -0.050686
vn 0.000000 -0.000001 1.000000
vn -0.000000 -0.000000 1.000000
vn -0.000000 -0.000000 1.000000
vn 0.000000 -0.000001 1.000000
vn 0.000000 -0.000001 1.000000
vn 0.000000 -0.000001 1.000000
vn -0.000000 0.000000 1.000000
vn -0.000000 0.000000 1.000000
vn -0.000000 0.000000 1.000000
vn -0.000000 0.000000 1.000000
vn 0.000000 0.000000 1.000000
vn 0.000000 0.000000 1.000000
vn 0.000000 0.000000 1.000000
vn 0.000000 0.000000 1.000000
vn -0.000000 0.000000 1.000000
vn -0.000000 0.000000 1.000000
vn 0.915182 0.402000 0.028941
vn 0.915062 0.402387 0.027299
vn 0.903069 0.423525 -0.071359
vn 0.903069 0.423525 -0.071359
vn 0.485876 0.864565 0.128261
vn 0.275452 0.959734 -0.055102
vn 0.206459 0.972237 -0.110132
vn -0.331729 0.943156 -0.020297
vn -0.491317 0.860927 0.131956
vn -0.281996 0.957261 -0.064262
vn -0.931835 0.360637 0.040310
vn -0.931688 0.360905 0.041278
vn -0.940456 0.337806 -0.037808
vn -0.940456 0.337806 -0.037808
vn -0.932066 -0.359852 0.041943
vn -0.932230 -0.359547 0.040906
vn -0.941321 -0.335487 -0.036913
vn -0.941321 -0.335487 -0.036913
vn -0.491271 -0.860951 0.131971
vn -0.329859 -0.943786 -0.021468
vn -0.279486 -0.957891 -0.065817
vn 0.276429 -0.959494 -0.054386
vn 0.490355 -0.861397 0.132467
vn 0.206981 -0.972161 -0.109822
vn 0.942461 -0.329381 0.057236
vn 0.941544 -0.331564 0.059660
vn 0.963670 -0.266880 -0.010718
vn 0.963670 -0.266880 -0.010718
vn -0.659042 0.597909 -0.456255
vn 0.353033 0.466236 -0.811167
vn 0.326703 0.227669 -0.917296
vn -0.640162 0.560204 -0.525703
vn -0.689642 0.689644 -0.220872
vn 0.681576 0.567051 -0.462501
vn 0.690687 0.690687 -0.214252
vn 0.653965 0.479636 -0.585047
vn -0.340727 0.005312 -0.940147
vn -0.340715 0.001304 -0.940166
vn 0.682265 -0.566935 -0.461627
vn 0.655254 -0.479062 -0.584073
vn 0.690396 -0.690392 -0.216128
vn -0.698938 -0.561436 -0.443029
vn -0.682272 -0.682272 -0.262699
vn -0.691658 -0.465887 -0.551868
vn 0.917796 -0.380163 0.114570
vn 0.917796 -0.380163 0.114570
vn 0.510087 -0.846723 0.151234
vn 0.510087 -0.846723 0.151234
vn -0.510088 -0.846722 0.151234
vn -0.510088 -0.846722 0.151234
vn -0.917796 -0.380163 0.114570
vn -0.917796 -0.380163 0.114570
vn -0.917796 0.380164 0.114570
vn -0.917796 0.380164 0.114570
vn -0.510088 0.846722 0.151234
vn -0.510088 0.846722 0.151234
vn 0.510087 0.846723 0.151234
vn 0.510087 0.846723 0.151234
vn 0.917796 0.380163 0.114570
vn 0.917796 0.380163 0.114570
vn 0.904564 -0.403357 -0.138083
vn 0.904564 -0.403357 -0.138083
vn 0.904564 -0.403357 -0.138083
vn 0.904564 -0.403357 -0.138083
vn 0.904564 -0.403357 -0.138083
vn 0.933326 0.329926 -0.141606
vn 0.925381 0.357146 -0.126950
vn 0.942728 0.291806 -0.161595
vn 0.942728 0.291806 -0.161595
vn -0.940525 0.304210 -0.151224
vn -0.928407 0.348003 -0.130213
vn -0.919972 0.373995 -0.117382
vn -0.919972 0.373995 -0.117382
vn -0.608623 0.629377 -0.483180
vn -0.266017 0.859522 -0.436414
vn -0.241616 0.764509 -0.597618
vn -0.531481 0.553554 -0.641176
vn -0.850499 -0.280740 -0.444788
vn -0.755277 -0.254229 -0.604089
vn -0.531562 -0.552811 -0.641749
vn -0.608753 -0.628655 -0.483955
vn 0.244710 -0.763768 -0.597307
vn 0.498372 -0.563428 -0.658919
vn 0.576552 -0.633992 -0.515404
vn 0.268498 -0.856446 -0.440918
vn 0.517610 0.547536 -0.657483
vn 0.559333 0.652356 -0.511447
vn 0.806375 0.322505 -0.495732
vn 0.720412 0.287880 -0.630977
vn -0.413292 -0.908326 0.064289
vn -0.413292 -0.908326 0.064289
vn -0.413292 -0.908326 0.064289
vn -0.413292 -0.908326 0.064289
vn 0.380655 -0.912926 -0.147201
vn 0.380655 -0.912926 -0.147201
vn 0.380655 -0.912926 -0.147201
vn 0.380655 -0.912926 -0.147201
vn -0.380667 -0.912952 -0.147011
vn -0.380667 -0.912952 -0.147011
vn -0.380667 -0.912952 -0.147011
vn -0.380667 -0.912952 -0.147011
vn -0.057583 -0.057583 0.996679
vn 0.000910 -0.057679 0.998335
vn -0.001309 0.000965 0.999999
vn -0.057679 -0.000796 0.998335
vn 0.057583 -0.057583 0.996679
vn 0.057679 -0.000646 0.998335
vn 0.057583 0.057583 0.996679
vn 0.001052 0.057679 0.998335
vn -0.057583 0.057583 0.996679
vn 0.925593 -0.371443 0.072856
vn 0.925593 -0.371443 0.072856
vn 0.996916 -0.000000 0.078470
vn 0.996917 -0.000000 0.078470
vn 0.925593 0.371443 0.072856
vn 0.925593 0.371443 0.072856
vn -0.925593 -0.371443 0.072856
vn -0.925593 -0.371443 0.072856
vn -0.996916 0.000000 0.078470
vn -0.996916 0.000000 0.078470
vn -0.925593 0.371443 0.072856
vn -0.925593 0.371443 0.072856
vn -0.390276 0.918070 0.069509
vn 0.001341 0.997254 0.074050
vn -0.001241 0.999779 0.021001
vn -0.403980 0.914518 0.021387
vn 0.404210 0.912256 0.066361
vn 0.413377 0.910380 0.018127
vn 0.397830 0.907798 -0.132793
vn -0.000017 0.989820 -0.142327
vn -0.397826 0.907823 -0.132638
vn -0.911604 -0.384370 -0.145733
vn -0.911604 -0.384370 -0.145733
vn -0.911604 -0.384370 -0.145733
vn -0.911604 -0.384370 -0.145733
vn 0.259115 0.749134 -0.609637
vn 0.141689 0.163683 -0.976285
vn 0.148160 -0.155479 -0.976665
vn -0.145100 -0.154603 -0.977263
vn -0.755488 0.254297 -0.603797
vn -0.145125 0.154638 -0.977254
vn -0.241758 -0.763669 -0.598635
vn 0.701577 -0.302942 -0.644993
vn 0.311114 0.907773 -0.281348
vn -0.000067 0.955210 -0.295929
vn -0.311136 0.907831 -0.281135
vn -0.953487 0.241872 -0.179890
vn -0.953487 0.241872 -0.179890
vn 0.919973 0.373866 -0.117784
vn 0.919973 0.373866 -0.117784
vn 0.366866 -0.927268 0.074714
vn 0.366866 -0.927268 0.074714
vn 0.366866 -0.927268 0.074714
vn 0.366866 -0.927268 0.074714
vn 0.000000 0.000001 1.000000
vn 0.000000 0.000001 1.000000
vn -0.000000 0.000000 1.000000
vn 0.000000 0.000000 1.000000
vn 0.000000 0.000001 1.000000
vn -0.000001 0.000000 1.000000
vn -0.000002 -0.000001 1.000000
vn -0.000000 -0.000001 1.000000
vn 0.000001 -0.000000 1.000000
vn -0.999999 -0.000000 -0.001341
vn -0.999999 -0.000000 -0.001341
vn -0.999999 -0.000000 -0.001341
vn -0.999999 -0.000000 -0.001341
vn -0.999999 0.000000 -0.001341
vn -0.999999 0.000000 -0.001341
vn -0.999999 0.000000 -0.001341
vn -0.999999 0.000000 -0.001341
vn -0.999999 0.000000 -0.001341
vn 0.999999 0.000000 -0.001419
vn 0.999999 0.000000 -0.001419
vn 0.999999 0.000000 -0.001419
vn 0.999999 0.000000 -0.001419
vn 0.999999 0.000000 -0.001419
vn 0.999999 0.000000 -0.001419
vn 0.999999 0.000000 -0.001419
vn 0.999999 0.000000 -0.001419
vn 0.999999 0.000000 -0.001419
vn 0.000000 0.999999 -0.001170
vn 0.000000 0.999999 -0.001170
vn 0.000000 0.999999 -0.001170
vn 0.000000 0.999999 -0.001170
vn 0.000000 0.999999 -0.001170
vn 0.000000 0.999999 -0.001170
vn 0.000000 0.999999 -0.001170
vn 0.000000 0.999999 -0.001170
vn 0.000000 0.999999 -0.001170
vn -0.000000 -0.999998 -0.002078
vn 0.000000 -0.999998 -0.002077
vn 0.000000 -0.999998 -0.002078
vn -0.000000 -0.999998 -0.002078
vn 0.000000 -0.999998 -0.002077
vn 0.000000 -0.999998 -0.002078
vn 0.000000 -0.999998 -0.002078
vn 0.000000 -0.999998 -0.002078
vn -0.000000 -0.999998 -0.002078
vn 0.283821 0.841770 -0.459205
vn 0.787403 -0.338569 -0.515138
vn -0.850624 0.280783 -0.444522
vn -0.266275 -0.858782 -0.437712
s off
g polySurface80
usemtl initialShadingGroup
f 2/1/1 1/2/2 9/3/3 10/4/4
f 3/5/5 2/1/6 10/4/7 11/6/8
f 4/7/9 3/5/10 11/6/11 12/8/12
f 5/9/13 4/7/14 12/8/15 13/10/16
f 6/11/17 5/9/18 13/10/19 14/12/20
f 7/13/21 6/11/22 14/12/23 15/14/24
f 8/15/25 7/13/26 15/14/27 16/16/28
f 1/17/29 8/15/30 16/16/31 9/18/32
s 1
f 10/4/33 9/3/34 17/19/35 18/20/36
f 11/6/37 10/4/33 18/20/36 19/21/38
f 12/8/39 11/6/37 19/21/38 20/22/40
f 13/10/41 12/8/39 20/22/40 21/23/42
f 14/12/43 13/10/41 21/23/42 22/24/44
f 15/14/45 14/12/43 22/24/44 23/25/46
f 16/16/47 15/14/45 23/25/46 24/26/48
f 9/18/34 16/16/47 24/26/48 17/27/35
s 2
f 36/28/49 31/29/50 25/30/51 26/31/52
s 3
f 3/32/53 36/28/54 26/31/55
s 4
f 35/33/56 3/32/57 27/34/58
s 5
f 34/35/59 35/33/60 27/34/61 28/36/62
s 6
f 33/37/63 34/35/64 28/36/65 29/38/66
s 7
f 7/39/67 33/37/68 29/38/69
s 8
f 32/40/70 7/39/71 30/41/72
s 9
f 31/42/73 32/40/74 30/41/75 25/43/76
s 10
f 26/31/77 25/30/78 1/44/79 2/45/80
f 3/32/81 26/31/77 2/45/80
s 11
f 27/34/82 3/32/83 4/46/84
f 28/36/85 27/34/82 4/46/84 5/47/86
f 29/38/87 28/36/85 5/47/86 6/48/88
f 7/39/89 29/38/87 6/48/88
s 10
f 30/41/90 7/39/91 8/49/92
f 25/43/78 30/41/90 8/49/92 1/50/79
s 9
f 17/27/93 24/26/94 32/40/74 31/42/73
s 8
f 24/26/95 23/25/96 7/39/71 32/40/70
s 7
f 23/25/97 22/24/98 33/37/68 7/39/67
s 6
f 22/24/99 21/23/100 34/35/64 33/37/63
s 5
f 21/23/101 20/22/102 35/33/60 34/35/59
s 4
f 20/22/103 19/21/104 3/32/57 35/33/56
s 3
f 19/21/105 18/20/106 36/28/54 3/32/53
s 2
f 18/20/107 17/19/108 31/29/50 36/28/49
s off
f 40/51/109 37/52/110 38/53/111 92/54/112 39/55/113
s 12
f 89/143/114 92/144/115 38/57/116 42/58/117
s 13
f 91/141/118 93/142/119 45/61/120 46/62/121
s 14
f 47/64/122 49/65/123 77/66/124 87/67/125
s 15
f 44/70/126 80/71/127 86/72/128 50/75/129
s 16
f 82/76/130 88/77/131 37/80/132 51/81/133
s 17
f 85/86/134 42/83/135 38/84/136 83/85/137
s off
f 52/88/138 53/89/139 15/90/140 54/91/141
f 51/92/142 37/93/143 55/94/144 56/95/145
f 50/96/146 51/97/147 57/98/148 58/99/149
s 18
f 61/100/150 15/101/151 71/102/152 13/103/153
f 15/101/151 62/104/154 9/105/155 71/102/152
f 71/102/152 9/105/155 60/106/156 11/107/157
f 13/103/153 71/102/152 11/107/157 59/108/158
s 19
f 62/109/159 63/110/160 72/111/161 64/112/162
f 64/112/162 72/111/161 65/113/163 60/114/164
s 20
f 66/115/165 61/116/166 67/117/167 73/118/168
f 73/118/168 67/117/167 59/119/169 68/120/170
s 21
f 59/121/171 11/122/172 74/123/173 69/124/174
f 11/122/172 60/125/175 70/126/176 74/123/173
f 74/123/173 70/126/176 89/127/177 90/128/178
f 69/124/174 74/123/173 90/128/178 91/129/179
s off
f 50/130/180 75/131/181 76/132/182 44/133/183
s 17
f 84/87/184 85/86/134 48/134/185
s 16
f 48/135/186 88/77/131 82/76/130
s 15
f 48/136/187 86/72/128 80/71/127
s 14
f 78/68/188 87/67/125 48/137/189
s 17
f 48/134/185 85/86/134 83/85/137
s 15
f 79/73/190 86/72/128 48/136/187
s 14
f 48/137/189 87/67/125 77/66/124
s 16
f 48/135/186 81/78/191 88/77/131
s 21
f 90/128/178 89/127/177 42/138/192 49/139/193
f 91/129/179 90/128/178 49/139/193 47/140/194
s 13
f 44/60/195 93/142/119 91/141/118 47/63/196
s 12
f 41/56/197 92/144/115 89/143/114 43/59/198
s off
f 96/145/199 95/146/200 94/147/201 97/148/202
s 22
f 100/149/203 102/150/204 106/151/205 103/152/206
f 102/150/204 101/153/207 104/154/208 106/151/205
f 106/151/205 104/154/208 99/155/209 105/156/210
f 103/152/206 106/151/205 105/156/210 98/157/211
s 23
f 107/158/212 111/159/213 115/160/214 112/161/215
f 111/159/213 108/162/216 113/163/217 115/160/214
f 115/160/214 113/163/217 109/164/218 114/165/219
f 112/161/215 115/160/214 114/165/219 110/166/220
s 24
f 116/167/221 120/168/222 124/169/223 121/170/224
f 120/168/222 117/171/225 122/172/226 124/169/223
f 124/169/223 122/172/226 118/173/227 123/174/228
f 121/170/224 124/169/223 123/174/228 119/175/229
s 25
f 127/176/230 132/177/231 133/178/232 129/179/233
f 132/177/231 128/180/234 130/181/235 133/178/232
f 133/178/232 130/181/235 126/182/236 131/183/237
f 129/179/233 133/178/232 131/183/237 125/184/238
s 26
f 136/185/239 138/186/240 142/187/241 139/188/242
f 138/186/240 137/189/243 140/190/244 142/187/241
f 142/187/241 140/190/244 135/191/245 141/192/246
f 139/188/242 142/187/241 141/192/246 134/193/247
s 17
f 49/82/248 42/83/135 85/86/134 84/87/184
s 16
f 37/80/132 88/77/131 81/78/191 38/79/249
s 14
f 47/64/122 87/67/125 78/68/188 44/69/250
s 15
f 50/75/129 86/72/128 79/73/190 51/74/251
